<svg xmlns="http://www.w3.org/2000/svg" xmlns:xlink="http://www.w3.org/1999/xlink" viewBox="0 0 343.06 330.24"><defs><style>.cls-1{isolation:isolate;}.cls-14,.cls-2,.cls-22{fill:#321c13;}.cls-3{fill:#a3aa48;}.cls-4{fill:#b1bf4d;}.cls-5{fill:#382d44;}.cls-21,.cls-22,.cls-24,.cls-5{opacity:0.3;}.cls-14,.cls-22,.cls-5{mix-blend-mode:multiply;}.cls-6{fill:#544b3a;}.cls-7{fill:#c9c647;}.cls-8{fill:#663f1f;}.cls-19,.cls-20,.cls-21,.cls-9{fill:#f1ce6d;}.cls-9{opacity:0.7;}.cls-15,.cls-16,.cls-18,.cls-19,.cls-21,.cls-24,.cls-9{mix-blend-mode:overlay;}.cls-10{fill:#8a3;}.cls-11{fill:#baac3c;}.cls-12{fill:#a3ccc0;}.cls-13{fill:#693718;}.cls-14,.cls-19{opacity:0.5;}.cls-15,.cls-16,.cls-20{opacity:0.6;}.cls-15{fill:url(#linear-gradient);}.cls-16,.cls-24{fill:#efe6b6;}.cls-17{fill:url(#linear-gradient-2);}.cls-18{fill:#f9eab5;opacity:0.4;}.cls-23{fill:#4d2619;}.cls-25{fill:#d0801e;}</style><linearGradient id="linear-gradient" x1="52.8" y1="98.03" x2="342.65" y2="220.6" gradientUnits="userSpaceOnUse"><stop offset="0" stop-color="#fdfbbe"/><stop offset="1" stop-color="#6a005e"/></linearGradient><linearGradient id="linear-gradient-2" x1="291.2" y1="313.82" x2="291.74" y2="243.87" gradientTransform="translate(539.06 -43.67) rotate(89.18)" gradientUnits="userSpaceOnUse"><stop offset="0" stop-color="#a36725"/><stop offset="1" stop-color="#693718"/></linearGradient></defs><g class="cls-1"><g id="Layer_1" data-name="Layer 1"><path class="cls-2" d="M248.74,457.88c-10.43-25.08-10.88-25.63-24.17-29.13-3.83-1-8.59-2.26-15.09-4.53-3-1.23-6.2-4.34-9.61-7.64-2.16,0-1.91,1.08-1.67,1.33,3.57,3.44,6.93,6.7,10.4,8.12,6.66,2.34,10.12,3.88,15.34,4.62C239.82,432.44,247.09,459.92,248.74,457.88Z" transform="translate(-128.47 -134.88)"/><path class="cls-2" d="M251.74,442.17c-14.87-13.76-18.34-13.19-25.18-12.74a1.26,1.26,0,0,0,.19,1.42C237.75,427.76,251.31,444,251.74,442.17Z" transform="translate(-128.47 -134.88)"/><path class="cls-2" d="M225.37,441.77c-12.33-7.68-12.44-10.28-13.16-15.24a1,1,0,0,1,1.07-.16C212.7,434.85,226.61,441.09,225.37,441.77Z" transform="translate(-128.47 -134.88)"/><path class="cls-2" d="M222.17,464.62c5-26.7,4.91-27.4-4.3-37.6-2.65-2.93-6-6.59-10.14-12-1.83-2.66-2.82-7-3.87-11.65-1.8-1.2-2.19-.14-2.12.19,1.09,4.84,2.13,9.41,4.25,12.5,4.3,5.59,6.36,8.78,10.32,12.26C228.62,438.45,219.67,465.43,222.17,464.62Z" transform="translate(-128.47 -134.88)"/><path class="cls-2" d="M233.27,453.12c-4.91-19.66-8.13-21.08-14.1-24.44a1.26,1.26,0,0,0-.62,1.3C229.45,433.4,231.93,454.38,233.27,453.12Z" transform="translate(-128.47 -134.88)"/><path class="cls-2" d="M211.42,438.36c-6.12-13.18-4.79-15.41-2.68-20a1,1,0,0,1,1,.45C204.6,425.63,212.83,438.46,211.42,438.36Z" transform="translate(-128.47 -134.88)"/><path class="cls-2" d="M318.77,388.76c16.84,28.69,17.05,29.49,10.78,42.4A154.55,154.55,0,0,0,323,446.29c-1,3.26-.29,8.28.44,13.58-1.55,1.64-2.43.54-2.5.15-.77-5.55-1.49-10.79-.35-14.58,2.57-6.95,3.6-10.84,6.67-15.39C337.07,416.61,315.58,388.31,318.77,388.76Z" transform="translate(-128.47 -134.88)"/><path class="cls-2" d="M336.26,399.55c2.58,22.63-.51,24.77-5.92,29.55-.56-.26-1.19-.69-1.24-1.33C340.11,422.06,334.21,398.39,336.26,399.55Z" transform="translate(-128.47 -134.88)"/><path class="cls-2" d="M317.44,419.73c-1.49,15.67,1,17.91,5.27,22.58.43-.05.91-.22.94-.67C315,435,319,419.37,317.44,419.73Z" transform="translate(-128.47 -134.88)"/><path class="cls-2" d="M335.34,465c6.62-24.95,7-25.5,18.46-29.33,3.31-1.09,7.42-2.47,13-4.89,2.53-1.3,5.07-4.45,7.76-7.79,1.93-.08,1.82,1,1.63,1.26-2.81,3.49-5.47,6.79-8.41,8.29-5.7,2.48-8.63,4.1-13.21,5C340.56,439.76,337,467,335.34,465Z" transform="translate(-128.47 -134.88)"/><path class="cls-2" d="M331,449.67c11.81-14,15-13.49,21.13-13.25a1.31,1.31,0,0,1,0,1.4C341.91,435.1,331.54,451.42,331,449.67Z" transform="translate(-128.47 -134.88)"/><path class="cls-2" d="M354.48,448.51c10.19-7.91,10-10.46,10.12-15.36-.3-.2-.69-.37-1-.13C365.05,441.34,353.3,447.88,354.48,448.51Z" transform="translate(-128.47 -134.88)"/><path class="cls-3" d="M361.76,182.87l23.59,14.23,10.54,34.53c-9.32,7.35-39.82-45.51-39.82-45.51Z" transform="translate(-128.47 -134.88)"/><polygon class="cls-4" points="115.77 53.27 163.34 14.64 188.56 18.71 204.82 36.6 115.77 53.27"/><polygon class="cls-5" points="204.82 36.6 188.56 18.71 169.56 15.64 198.96 37.7 204.82 36.6"/><polygon class="cls-6" points="230.44 34.57 214.18 32.13 204.01 47.99 236.13 58.15 230.44 34.57"/><polygon class="cls-6" points="155.21 13.42 142.21 25.54 138.75 44.06 172.34 41.4 155.21 13.42"/><polygon class="cls-6" points="206.19 26.16 190.2 30.01 186.74 48.53 220.33 45.87 206.19 26.16"/><polygon class="cls-6" points="100.05 60.72 84.06 64.58 80.6 83.09 114.19 80.44 100.05 60.72"/><polygon class="cls-6" points="75.91 69.94 66.61 82.86 64.93 106.54 102.75 68.32 75.91 69.94"/><polygon class="cls-6" points="273.95 81.74 264.6 80.11 254.03 88.25 276.39 124.44 273.95 81.74"/><polygon class="cls-4" points="87.3 79.7 51.92 95.97 41.18 126.39 79.01 126.01 87.3 79.7"/><path class="cls-3" d="M408.86,302.8c7.09-4.33,52,31.81,53.5,73.87-3.48,9-35.25,9.31-44.77-2C417.59,374.64,389.5,331.49,408.86,302.8Z" transform="translate(-128.47 -134.88)"/><path class="cls-7" d="M206.26,300.76c-33.18,22.91-48.25,42.37-63.86,76.93l70.82-2.92Z" transform="translate(-128.47 -134.88)"/><path class="cls-8" d="M470.07,380.64c-51-3.8-79.46-21-171.26-21s-132.38,13.45-170.33,17.78C127,461.46,468.63,464.43,470.07,380.64Z" transform="translate(-128.47 -134.88)"/><polygon class="cls-5" points="110.68 266.87 131.89 296.4 142.2 296.05 119.02 267.17 110.68 266.87"/><polygon class="cls-5" points="202.99 268.09 224.21 297.62 234.51 297.26 211.33 268.39 202.99 268.09"/><path class="cls-9" d="M381.79,424c-1.37-7-12.75-10.63-25.43-8.15S334.52,426,335.88,433c.66,3.33,3.6,5.88,7.86,7.39,9.92-.81,19.63-1.92,29-3.35C379,433.47,382.7,428.56,381.79,424Z" transform="translate(-128.47 -134.88)"/><path class="cls-9" d="M413.64,420.22a16.56,16.56,0,0,0-7,9.79,187.58,187.58,0,0,0,25.85-8.86C428.15,416.42,420.11,415.9,413.64,420.22Z" transform="translate(-128.47 -134.88)"/><path class="cls-9" d="M146.28,385.78A26.14,26.14,0,0,0,135,376.56c-2.17.3-4.33.58-6.47.82-.22,12.52,7.17,23.24,19.91,32.14C152.88,404,152.18,394.09,146.28,385.78Z" transform="translate(-128.47 -134.88)"/><path class="cls-5" d="M329.64,417.1c0-3.37-5.1-6.1-11.39-6.1s-11.39,2.73-11.39,6.1,5.1,6.1,11.39,6.1S329.64,420.47,329.64,417.1Z" transform="translate(-128.47 -134.88)"/><path class="cls-5" d="M172.55,416.05c.46-1.65-1.67-3.67-4.75-4.52s-5.94-.19-6.39,1.46,1.67,3.67,4.75,4.51S172.1,417.7,172.55,416.05Z" transform="translate(-128.47 -134.88)"/><path class="cls-5" d="M434.41,410.17c0-1.91-2.88-3.45-6.43-3.45s-6.44,1.54-6.44,3.45,2.88,3.44,6.44,3.44S434.41,412.07,434.41,410.17Z" transform="translate(-128.47 -134.88)"/><path class="cls-5" d="M400.33,424c0-1.9-2.89-3.45-6.44-3.45s-6.44,1.55-6.44,3.45,2.88,3.45,6.44,3.45S400.33,425.92,400.33,424Z" transform="translate(-128.47 -134.88)"/><path class="cls-5" d="M217,426.38c0-2.08-3.16-3.78-7.05-3.78s-7,1.7-7,3.78,3.16,3.77,7,3.77S217,428.46,217,426.38Z" transform="translate(-128.47 -134.88)"/><path class="cls-5" d="M277.08,418.93c0-6-9.13-10.93-20.4-10.93s-20.4,4.89-20.4,10.93,9.13,10.93,20.4,10.93S277.08,425,277.08,418.93Z" transform="translate(-128.47 -134.88)"/><path class="cls-5" d="M469.93,384.16c-41.27-11.21-79.32-20.49-171.12-20.49s-135,6.37-170.17,17.58C128.64,414.88,469.93,417.78,469.93,384.16Z" transform="translate(-128.47 -134.88)"/><path class="cls-10" d="M471.53,379.73c-41.27-11.21-80.92-20.13-172.72-20.13s-135,6.37-170.17,17.58C128.64,410.82,471.53,413.35,471.53,379.73Z" transform="translate(-128.47 -134.88)"/><path class="cls-11" d="M329.36,376c-4.49-6.29-9.69-10.95-16.53-12.74l-41.75.27c-8.14.81-10,6.05-13,10.84-11.39,11.41-22.72,19.94-37.75,26.08a1234.59,1234.59,0,0,0,147.61,1.85C350.24,393.69,334.59,384.38,329.36,376Z" transform="translate(-128.47 -134.88)"/><path class="cls-5" d="M277.11,363.52l-37.26,38.26c7.53.43,15.25.79,23.07,1.08l1.92-3,65.34,1.36-20.34-36.06Z" transform="translate(-128.47 -134.88)"/><path class="cls-5" d="M352.68,402.87,312,363.29l-6.57,0,30.12,40.11C340.52,403.34,347.76,403,352.68,402.87Z" transform="translate(-128.47 -134.88)"/><path class="cls-5" d="M359.73,374.4c0,11.08,85.94,10.84,111.8,5.33-23-6.25-45.53-11.79-76.86-15.46C373.6,366.46,359.73,370.18,359.73,374.4Z" transform="translate(-128.47 -134.88)"/><path class="cls-5" d="M228.44,362.2c-34.13-.18-61.83,4.77-61.87,11.06s22.41,12.65,56.11,7.24C271.48,376,273.11,363,228.44,362.2Z" transform="translate(-128.47 -134.88)"/><polygon class="cls-12" points="165.59 217.26 159.53 218.16 95.43 271.24 91.83 279.98 104.53 280.87 165.59 217.26"/><polygon class="cls-12" points="179.2 223.46 176.36 222.71 209.84 280.46 222.31 279.5 214.99 266.63 179.2 223.46"/><polygon class="cls-5" points="98.69 272.87 103.69 280.82 104.53 280.87 155.07 227.87 149.65 227.59 98.69 272.87"/><polygon class="cls-5" points="213.09 271.24 209.84 281 222.04 279.65 214.99 266.63 182.59 227.73 180.56 227.73 213.09 271.24"/><polygon class="cls-13" points="119.06 260.22 119.61 263.92 199.43 265.01 201.94 261.74 194.43 252.37 129.07 251.72 119.06 260.22"/><polygon class="cls-13" points="134.34 247.43 134.72 249.96 192.32 250.5 194.03 248.26 188.9 241.87 141.18 241.62 134.34 247.43"/><polygon class="cls-13" points="142.43 238.2 142.72 239.6 187.04 240.32 187.62 238.43 183.81 234.9 146.06 235.05 142.43 238.2"/><polygon class="cls-13" points="147.44 231.83 147.69 233.23 182.89 233.86 183.36 231.97 180.25 228.44 150.4 228.68 147.44 231.83"/><polygon class="cls-14" points="196.83 215.81 130.6 215.81 130.6 236.7 194.93 233.29 196.83 215.81"/><polygon class="cls-6" points="271.73 111.36 241.16 59.91 180.53 20.16 165.76 20.16 107.67 55.83 63.63 101.46 59.14 112.64 50.5 115.08 37.36 128.69 59.78 234.15 74.56 241.28 85.25 237.72 91.37 243.83 101.56 242.3 128.56 236.19 148.94 215.81 170.85 217.84 199.38 237.21 238.1 243.83 250.33 239.24 263.06 242.81 284.46 234.15 298.73 171.48 295.51 125.93 281.95 132.44 271.73 111.36"/><polygon class="cls-5" points="295.91 125.25 282.49 132.16 276.39 120.78 273.95 81.33 262.14 93.14 241.29 73.61 188.15 78.48 205.49 239.75 234.91 243.99 235.32 146.53 246.71 128.1 271.92 144.36 290.63 210.24 298.35 171.2 295.91 125.25"/><polygon class="cls-15" points="151.55 54.09 235.32 67.91 255.11 84.99 241.16 59.91 180.53 20.16 165.76 20.16 107.67 55.83 63.63 101.46 59.14 112.64 50.5 115.08 37.36 128.69 59.11 231.02 78.08 240.6 85.25 237.72 91.37 243.83 73.47 130.54 77.95 124.44 90.55 141.52 74.29 110.2 81.34 83.64 140.98 87.43 151.55 54.09"/><polygon class="cls-16" points="107.67 55.83 111.43 79.84 92.18 72.79 107.67 55.83"/><polygon class="cls-2" points="214.66 112.89 114.8 112.89 127.54 236.7 144.36 228.03 184.1 228.03 194.12 233.29 214.66 112.89"/><polygon class="cls-13" points="116.84 104.23 102.07 104.23 122.96 238.22 131.62 236.7 116.84 104.23"/><polygon class="cls-13" points="224.85 102.19 210.08 102.19 196.83 238.22 205.49 239.75 224.85 102.19"/><rect class="cls-17" x="285.31" y="185.36" width="12.74" height="132.47" transform="translate(-92.55 404.75) rotate(-89.18)"/><polygon class="cls-5" points="221.9 124.92 105.39 122.2 105.8 131.04 221.09 133.08 221.9 124.92"/><polygon class="cls-5" points="230.04 98.41 92.59 88.65 97.06 119.96 229.83 114.88 230.04 98.41"/><polygon class="cls-2" points="242.82 90.83 84.41 85.53 86.62 117.14 241.07 110.69 242.82 90.83"/><polygon class="cls-2" points="87.8 65.13 241.67 61.05 241.67 89.08 91.37 84.49 87.8 65.13"/><polygon class="cls-13" points="242.82 88.67 84.41 83.36 86.62 114.98 241.07 108.52 242.82 88.67"/><polygon class="cls-18" points="118.75 109.93 239.66 106.95 239.39 93.4 118.75 109.93"/><polygon class="cls-5" points="242.64 90.82 99.91 87.03 90.96 82.35 242.64 88.65 242.64 90.82"/><polygon class="cls-13" points="87.8 62.96 241.67 58.88 241.67 86.91 91.37 82.32 87.8 62.96"/><polygon class="cls-18" points="91.37 66.02 94.62 79.57 227.73 83.64 91.37 66.02"/><polygon class="cls-5" points="98.42 118.34 111.97 122.13 116.58 69.27 112.51 66.28 98.42 118.34"/><polygon class="cls-5" points="220.68 112.92 229.61 114.36 229.63 109.93 235.42 109.67 237.22 64.66 232.34 62.22 220.68 112.92"/><path class="cls-4" d="M402.24,332.34c5.94-3.28,25.19,13.17,26,44.33-3,6.68-28.94,9.66-36.73,1.37C391.49,378,385.83,353.83,402.24,332.34Z" transform="translate(-128.47 -134.88)"/><polygon class="cls-6" points="50.43 134.33 68.32 180.69 63.17 134.06 67.78 120.51 50.43 134.33"/><polygon class="cls-19" points="207.48 192.65 214.99 134.2 207.03 133.52 196.83 238.22 201.57 238.71 207.05 196 211.13 188.49 207.48 192.65"/><polygon class="cls-19" points="122.96 238.22 128.37 236.67 116.98 135.01 106.72 134.06 122.96 238.22"/><polygon class="cls-5" points="102.21 122.95 112.24 239.52 122.96 238.22 105.39 122.2 102.21 122.95"/><path class="cls-9" d="M299.14,429.5c0-2.36-5.56-4.27-12.41-4.27s-12.4,1.91-12.4,4.27,5.55,4.27,12.4,4.27S299.14,431.86,299.14,429.5Z" transform="translate(-128.47 -134.88)"/><path class="cls-9" d="M205.83,412.57c.48-4.67-5.92-9.16-14.31-10s-15.58,2.21-16.06,6.88,5.92,9.15,14.31,10S205.34,417.24,205.83,412.57Z" transform="translate(-128.47 -134.88)"/><path class="cls-9" d="M239.8,429.81c.06-1.75-1.9-3.23-4.36-3.31s-4.5,1.3-4.55,3.05,1.9,3.23,4.36,3.3S239.75,431.56,239.8,429.81Z" transform="translate(-128.47 -134.88)"/><path class="cls-9" d="M167.83,403c0-1.75-1.9-3.23-4.37-3.3s-4.5,1.29-4.55,3,1.9,3.23,4.36,3.3S167.77,404.72,167.83,403Z" transform="translate(-128.47 -134.88)"/><path class="cls-9" d="M325.15,433.49c.05-1.74-1.9-3.22-4.37-3.3s-4.5,1.29-4.55,3,1.9,3.23,4.36,3.31S325.09,435.25,325.15,433.49Z" transform="translate(-128.47 -134.88)"/><path class="cls-9" d="M404.44,411.13c.06-1.75-1.9-3.23-4.36-3.3s-4.5,1.29-4.55,3,1.9,3.23,4.36,3.3S404.39,412.88,404.44,411.13Z" transform="translate(-128.47 -134.88)"/><path class="cls-9" d="M456.09,400.15c.05-1.75-1.9-3.23-4.36-3.3s-4.5,1.29-4.56,3,1.9,3.23,4.37,3.3S456,401.9,456.09,400.15Z" transform="translate(-128.47 -134.88)"/><polygon class="cls-5" points="73.47 130.54 108.44 239.93 91.37 243.83 73.47 130.54"/><path class="cls-4" d="M188.76,319.61c7.14-2.55,21.69,24.57,18.34,55.6-4.28,6.28-33.62,8.08-41.26-1.08C165.84,374.13,167.36,339,188.76,319.61Z" transform="translate(-128.47 -134.88)"/><path class="cls-9" d="M194.93,351.17a81.48,81.48,0,0,0,6.78-16.71c-4.09-10.12-9.42-16.11-13-14.85-21.4,19.36-22.92,54.52-22.92,54.52a13.55,13.55,0,0,0,5,3.5C179.17,373.22,188.17,363.72,194.93,351.17Z" transform="translate(-128.47 -134.88)"/><path class="cls-4" d="M192.19,360.78a3.87,3.87,0,1,0-3.87,3.86A3.87,3.87,0,0,0,192.19,360.78Z" transform="translate(-128.47 -134.88)"/><path class="cls-4" d="M194.62,344.92a3.86,3.86,0,1,0-3.86,3.86A3.86,3.86,0,0,0,194.62,344.92Z" transform="translate(-128.47 -134.88)"/><path class="cls-4" d="M183.24,345.43a2.34,2.34,0,1,0-2.34,2.33A2.34,2.34,0,0,0,183.24,345.43Z" transform="translate(-128.47 -134.88)"/><path class="cls-4" d="M190.86,330.89a2.34,2.34,0,1,0-2.33,2.34A2.33,2.33,0,0,0,190.86,330.89Z" transform="translate(-128.47 -134.88)"/><path class="cls-4" d="M176.94,362.61a2.34,2.34,0,1,0-2.34,2.33A2.34,2.34,0,0,0,176.94,362.61Z" transform="translate(-128.47 -134.88)"/><path class="cls-4" d="M181.51,372.26a2.34,2.34,0,1,0-2.34,2.34A2.33,2.33,0,0,0,181.51,372.26Z" transform="translate(-128.47 -134.88)"/><polygon class="cls-16" points="96.79 169.03 103.56 178.79 101.4 162.53 96.79 169.03"/><polygon class="cls-16" points="63.44 134.88 65.34 154.12 67.51 121.86 63.44 134.88"/><polygon class="cls-9" points="79.72 83.19 51.92 95.97 43 121.26 56.94 97.73 79.72 83.19"/><path class="cls-5" d="M366.57,378.71l16.2-89.87s7.86.16,8.27,1.38-1.63,86.21-1.63,86.21l-10.61-2.31Z" transform="translate(-128.47 -134.88)"/><polygon class="cls-20" points="109.67 133.79 119.56 217.56 106.68 133.79 109.67 133.79"/><polygon class="cls-21" points="126.88 122.67 196.83 119.15 224.48 123.76 126.88 122.67"/><polygon class="cls-16" points="235.32 148.02 235.13 189.93 246.71 128.1 235.32 148.02"/><polygon class="cls-16" points="69.41 105.32 74.69 110 80.6 83.09 69.41 105.32"/><polygon class="cls-6" points="180.53 20.16 164.56 41.07 182.05 42.29 217.43 44.33 180.53 20.16"/><polygon class="cls-6" points="171.07 5.69 168.22 37.82 189.78 32.94 179.2 0 171.07 5.69"/><polygon class="cls-16" points="179.2 0 173.92 16.67 174.32 38.23 164.63 40.9 168.7 36.4 171.07 5.69 179.2 0"/><polygon class="cls-16" points="263.52 132.98 271.92 138.67 265.96 117.52 263.52 132.98"/><path class="cls-9" d="M409.34,354.34c0-8.87-1.86-16.82-4.81-22.37a4,4,0,0,0-2.29.37c-16.41,21.49-10.75,45.7-10.75,45.7,2,2.12,5.16,3.5,8.83,4.27C405.62,377.7,409.34,366.91,409.34,354.34Z" transform="translate(-128.47 -134.88)"/><polygon class="cls-6" points="38.09 128.91 58.83 184.22 51.92 193.97 38.09 128.91"/><polygon class="cls-22" points="144.36 228.03 145.45 175.68 178.39 172.42 184.1 228.03 144.36 228.03"/><polygon class="cls-2" points="141.61 209.1 145 227.55 153.29 227.55 157.19 225.69 160.06 210.28 153.63 207.57 141.61 209.1"/><polygon class="cls-19" points="154.48 207.74 154.31 227.21 146.01 227.21 143.31 210.11 154.48 207.74"/><polygon class="cls-19" points="155.35 207.26 156.7 201.97 158.19 202.92 156.43 208.07 155.35 207.26"/><polygon class="cls-22" points="138.81 230.03 135.01 142.74 194.66 149.24 191.94 231.12 138.81 230.03"/><polygon class="cls-2" points="153.58 154.15 147.83 152.61 139.39 163.99 140.15 169.03 153.58 154.15"/><polygon class="cls-23" points="177.85 136.77 197.64 167.14 200.08 157.38 182.73 134.33 177.85 136.77"/><polygon class="cls-20" points="207.03 133.52 201.43 192.35 209.57 133.79 207.03 133.52"/><polygon class="cls-6" points="211.74 229.22 202.25 230.57 199 241.42 212.28 244.13 217.97 240.34 211.74 229.22"/><polygon class="cls-16" points="202.25 230.57 199 241.42 199.39 241.5 210.66 229.37 202.25 230.57"/><polygon class="cls-24" points="245.08 85.53 259.45 120.23 263.25 105.32 245.08 85.53"/><polygon class="cls-24" points="283.31 135.15 294.42 163.61 292.25 134.88 283.31 135.15"/><polygon class="cls-6" points="137.52 47.99 142.4 42.49 152.77 48.8 137.52 47.99"/><polygon class="cls-16" points="133.25 46.36 142.4 42.49 137.52 47.99 133.25 46.36"/><polygon class="cls-5" points="59.14 112.64 59.44 99.43 70.63 94.34 63.63 101.46 59.14 112.64"/><path class="cls-5" d="M196,365.86a2.58,2.58,0,1,0-2.57,2.57A2.58,2.58,0,0,0,196,365.86Z" transform="translate(-128.47 -134.88)"/><path class="cls-5" d="M190,374a1.8,1.8,0,1,0-1.8,1.8A1.8,1.8,0,0,0,190,374Z" transform="translate(-128.47 -134.88)"/><path class="cls-5" d="M204,352.24a2.64,2.64,0,1,0-2.63,2.64A2.64,2.64,0,0,0,204,352.24Z" transform="translate(-128.47 -134.88)"/><path class="cls-4" d="M413.3,365a4,4,0,0,0-4-3.63,3.49,3.49,0,0,0-3.36,3.8,4,4,0,0,0,4,3.79A3.48,3.48,0,0,0,413.3,365Z" transform="translate(-128.47 -134.88)"/><path class="cls-4" d="M413.91,350.73a3.68,3.68,0,0,0-3.66-3.11,3,3,0,0,0-3.07,3.19,3.66,3.66,0,0,0,3.7,3.23A3,3,0,0,0,413.91,350.73Z" transform="translate(-128.47 -134.88)"/><path class="cls-4" d="M404,351.27a2.1,2.1,0,0,0-2.16-1.92,1.93,1.93,0,0,0-2,2,2.1,2.1,0,0,0,2.17,2A1.93,1.93,0,0,0,404,351.27Z" transform="translate(-128.47 -134.88)"/><path class="cls-4" d="M409.57,339.89a2,2,0,0,0-2.05-1.68,1.64,1.64,0,0,0-1.77,1.68,2,2,0,0,0,2.06,1.71A1.63,1.63,0,0,0,409.57,339.89Z" transform="translate(-128.47 -134.88)"/><path class="cls-4" d="M398.8,367.21a2.29,2.29,0,0,0-2.32-2.28,2.38,2.38,0,0,0-2.27,2.4,2.29,2.29,0,0,0,2.33,2.34A2.37,2.37,0,0,0,398.8,367.21Z" transform="translate(-128.47 -134.88)"/><path class="cls-4" d="M403.75,377.37a2.42,2.42,0,1,0-2.29,2.76A2.53,2.53,0,0,0,403.75,377.37Z" transform="translate(-128.47 -134.88)"/><path class="cls-5" d="M422.12,371.31a3,3,0,0,0-2.84-2.58,2.3,2.3,0,0,0-2.13,2.72A3,3,0,0,0,420,374.1,2.29,2.29,0,0,0,422.12,371.31Z" transform="translate(-128.47 -134.88)"/><path class="cls-5" d="M412.5,379a2.09,2.09,0,0,0-2-2,1.85,1.85,0,0,0-1.66,2.1,2.07,2.07,0,0,0,2,2A1.86,1.86,0,0,0,412.5,379Z" transform="translate(-128.47 -134.88)"/><path class="cls-5" d="M423,356.87a2.79,2.79,0,0,0-2.69-2.26,2,2,0,0,0-2,2.34,2.76,2.76,0,0,0,2.71,2.33A2,2,0,0,0,423,356.87Z" transform="translate(-128.47 -134.88)"/><path class="cls-2" d="M448.08,269.41c-11.49-24.61-12-25.14-25.39-28.07-3.87-.84-8.67-1.89-15.26-3.89-3-1.09-6.39-4.07-9.93-7.21-2.16.07-1.86,1.15-1.61,1.39,3.71,3.29,7.21,6.4,10.73,7.68,6.75,2.05,10.28,3.44,15.52,4C438.09,244.37,446.52,271.52,448.08,269.41Z" transform="translate(-128.47 -134.88)"/><path class="cls-2" d="M450.41,253.59c-15.44-13.12-18.89-12.39-25.7-11.66a1.26,1.26,0,0,0,.26,1.42C435.82,239.79,450.06,255.39,450.41,253.59Z" transform="translate(-128.47 -134.88)"/><path class="cls-2" d="M424.05,254.32c-12.65-7.15-12.87-9.74-13.8-14.67a1,1,0,0,1,1.06-.21C411.1,247.94,425.26,253.58,424.05,254.32Z" transform="translate(-128.47 -134.88)"/><polygon class="cls-2" points="85.4 100.17 106.55 103.43 85.94 105.32 85.4 100.17"/><polygon class="cls-25" points="98.69 117.8 108.17 119.15 112.78 66.28 100.04 66.83 98.69 117.8"/><polygon class="cls-2" points="242.37 94.75 224.48 95.29 241.83 98.55 242.37 94.75"/><path class="cls-2" d="M293.31,219.6s1.08-7,20.6-5.15c0,0-16.26,2.17-14.91,5.42Z" transform="translate(-128.47 -134.88)"/><polygon class="cls-2" points="88.11 67.64 93.81 69.54 88.93 71.71 88.11 67.64"/><polygon class="cls-2" points="241.29 63.3 228.54 64.39 241.29 68.72 241.29 63.3"/><polygon class="cls-25" points="232.61 62.22 219.6 62.22 221.05 112.25 231.8 112.92 232.61 62.22"/><polygon class="cls-5" points="231.8 112.92 232.61 62.22 227.75 62.22 228.25 112.7 231.8 112.92"/><polygon class="cls-5" points="108.17 119.15 112.78 66.28 107.98 66.49 104.27 118.59 108.17 119.15"/><path class="cls-13" d="M358,241.56a1.83,1.83,0,1,0-1.83,1.83A1.83,1.83,0,0,0,358,241.56Z" transform="translate(-128.47 -134.88)"/><path class="cls-13" d="M234.41,249.69a1.83,1.83,0,1,0-1.83,1.83A1.83,1.83,0,0,0,234.41,249.69Z" transform="translate(-128.47 -134.88)"/><path class="cls-13" d="M238,205a1.83,1.83,0,1,0-1.83,1.83A1.83,1.83,0,0,0,238,205Z" transform="translate(-128.47 -134.88)"/><path class="cls-13" d="M357.49,201.44a1.83,1.83,0,1,0-1.83,1.83A1.83,1.83,0,0,0,357.49,201.44Z" transform="translate(-128.47 -134.88)"/><path class="cls-13" d="M251.42,301.56s-2.87-.66-3.52,14.08c0,0,3.15-12.28,3.82-9.71Z" transform="translate(-128.47 -134.88)"/><polygon class="cls-13" points="109.67 155.55 113.12 145.79 110.89 162.66 109.67 155.55"/><polygon class="cls-13" points="119.02 214.51 122.27 206.38 120.03 220.61 119.02 214.51"/><polygon class="cls-13" points="205.03 151.89 207.26 163.48 204.42 159.82 205.03 151.89"/><polygon class="cls-16" points="174.32 38.23 170.92 6.08 179.2 0 173.92 16.67 174.32 38.23"/><polygon class="cls-24" points="259.45 84.45 272.73 82.28 264.6 80.11 259.45 84.45"/><polygon class="cls-16" points="98.96 131.62 105.73 169.85 101.94 124.03 98.96 131.62"/><path class="cls-19" d="M341.63,406.12,317,373.18c-1.63.2,23.79,35,23.79,35Z" transform="translate(-128.47 -134.88)"/><polygon class="cls-19" points="134.57 239.01 97.97 272.05 95.43 271.24 134.57 239.01"/><polygon class="cls-2" points="136.91 114.27 151.55 107.36 145.04 114.68 136.91 114.27"/><polygon class="cls-2" points="123.9 84.18 128.78 89.87 130 84.18 123.9 84.18"/><polygon class="cls-2" points="184.08 60.59 190.18 65.88 190.59 60.19 184.08 60.59"/><polygon class="cls-19" points="201.93 261.73 194.43 252.37 141.23 251.84 131.76 260.13 201.93 261.73"/><polygon class="cls-19" points="144.84 247.04 148.3 241.55 188.9 241.87 194.03 248.26 144.84 247.04"/><polygon class="cls-19" points="149.92 238.5 151.96 235.25 183.81 234.9 186.93 238.1 149.92 238.5"/><path class="cls-9" d="M204,371a2.06,2.06,0,1,0-2,1.76A1.91,1.91,0,0,0,204,371Z" transform="translate(-128.47 -134.88)"/><rect class="cls-19" x="159.68" y="123.62" width="2.03" height="13.01"/><path class="cls-2" d="M293.44,273.55a2.64,2.64,0,0,0-2.64-2.64h-3.36a1.93,1.93,0,0,0-1.93,1.93v11.38a2.34,2.34,0,0,0,2.34,2.34h2.95a2.64,2.64,0,0,0,2.64-2.64Z" transform="translate(-128.47 -134.88)"/><path class="cls-19" d="M293.44,273.55a2.64,2.64,0,0,0-2.64-2.64h-3.36a1.93,1.93,0,0,0-1.93,1.93v11.38a2.34,2.34,0,0,0,2.34,2.34h2.95a2.64,2.64,0,0,0,2.64-2.64Z" transform="translate(-128.47 -134.88)"/><path class="cls-19" d="M291.71,273.22a2.12,2.12,0,0,0-2.12-2.13H286.9a1.56,1.56,0,0,0-1.56,1.55v9.15a1.89,1.89,0,0,0,1.88,1.88h2.37a2.13,2.13,0,0,0,2.12-2.13Z" transform="translate(-128.47 -134.88)"/><path class="cls-22" d="M292.49,275.08a2,2,0,0,0-1.85-2.12h-2.35a1.45,1.45,0,0,0-1.35,1.55v9.14a1.77,1.77,0,0,0,1.64,1.88h2.06a2,2,0,0,0,1.85-2.12Z" transform="translate(-128.47 -134.88)"/></g></g></svg>