<svg xmlns="http://www.w3.org/2000/svg" xmlns:xlink="http://www.w3.org/1999/xlink" viewBox="0 0 450.6 288.47"><defs><style>.cls-1{fill:none;}.cls-2{isolation:isolate;}.cls-3{fill:#7b6a73;}.cls-4{fill:#52464e;}.cls-5{fill:#3a2a34;}.cls-6{fill:#2f222b;}.cls-7{fill:#918088;}.cls-8{fill:#af9fa9;}.cls-9{fill:#c0aebb;}.cls-10{fill:#a18f9c;}.cls-11{clip-path:url(#clip-path);}.cls-12{fill:#e79e3b;}.cls-13{fill:#edb943;}.cls-14{fill:#efc344;}.cls-15{fill:#ead1a2;}.cls-16{fill:#efc257;}.cls-17{fill:#f3d56d;}.cls-18{fill:#3c2a33;}.cls-19{fill:#95402b;}.cls-20{fill:#833222;}.cls-21{fill:#c9783b;}.cls-22{fill:#cb9850;}.cls-23{fill:#594249;}.cls-24{fill:#694f58;}.cls-25{fill:#443037;}.cls-26{fill:#b5a77c;}.cls-27{fill:#a35936;}.cls-28{fill:#b05f3e;}.cls-29{fill:#e3a75d;}.cls-30{fill:#a8654a;}.cls-31{fill:#8e4e38;}.cls-32{fill:#ecb84c;}.cls-33{fill:#f4d86c;}.cls-34{fill:#f7e4a0;}.cls-35{fill:#7c493e;}.cls-36{fill:#68372f;}.cls-37{fill:#955045;}.cls-38{fill:#60332c;}.cls-39{opacity:0.53;mix-blend-mode:multiply;}.cls-40{clip-path:url(#clip-path-2);}.cls-41{fill:#493b3b;}.cls-42{fill:#655757;}.cls-43{fill:#5a4949;}.cls-44{fill:#796b6b;}.cls-45{fill:#ba6956;}.cls-46{fill:#9b4e40;}.cls-47{fill:#7c6f6f;}</style><clipPath id="clip-path" transform="translate(-74.7 -155.76)"><rect id="SVGID" class="cls-1" x="107.04" y="269.79" width="138.23" height="54.25"/></clipPath><clipPath id="clip-path-2" transform="translate(-74.7 -155.76)"><rect id="SVGID-2" data-name="SVGID" class="cls-1" x="424.82" y="352.43" width="84.17" height="48.68" transform="translate(768.92 895.17) rotate(-159.13)"/></clipPath></defs><g class="cls-2"><g id="Layer_1" data-name="Layer 1"><polygon class="cls-3" points="57.65 157.53 57.14 162.34 44.85 171.82 62.32 199.58 73.54 171.82 74.69 147.97 57.65 157.53"/><polygon class="cls-3" points="97.41 98.65 111.5 78.07 116.97 36.59 140.55 73.5 133.36 94.73 103.16 106.81 97.41 98.65"/><polygon class="cls-4" points="305.64 92.77 123.56 72.52 98.2 152.14 108.91 288.11 404.67 288.11 305.64 92.77"/><polygon class="cls-3" points="302.19 196.14 311.75 244.38 320.31 254.79 317.15 288.11 344.47 288.11 397.96 264.26 363.27 156.32 312.1 102.14 285.22 115.88 283.21 132.29 304.42 192.31 302.19 196.14"/><polygon class="cls-5" points="276.95 128.7 218.64 125.69 198.94 166.1 202.71 288.11 309.38 288.11 298.76 205.14 276.95 128.7"/><polygon class="cls-6" points="267.88 150.39 223.67 147.79 211.44 182.7 222.25 288.11 302.77 288.11 289.33 216.43 267.88 150.39"/><polygon class="cls-7" points="52.54 191.42 78.43 111.06 123.3 84.28 138.25 111.06 102.01 146.34 111.36 155.32 100.36 152.22 52.54 191.42"/><polygon class="cls-7" points="378.12 149.61 357.13 104.85 347.06 101.26 348.21 97.34 315 80.97 311.01 110.05 337.86 158.75 359.56 156.67 342.46 170.18 385.6 154.18 369.69 154.5 378.12 149.61"/><polygon class="cls-8" points="192.32 199.26 100.36 152.22 44.85 171.82 20.9 288.11 192.32 288.11 192.32 199.26"/><path class="cls-9" d="M175.35,313.71l-52.3,18.46-12.66,61.51a207.2,207.2,0,0,0,47.56-9.2C191.66,374,219.1,357.55,231,342.19Z" transform="translate(-74.7 -155.76)"/><polygon class="cls-8" points="186 188.8 102.01 146.34 106.61 101.26 119.84 76.44 196.93 111.06 211.31 122.17 190.02 159.41 186 188.8"/><polygon class="cls-10" points="196.93 111.06 174.84 143.5 167.01 156.79 103.34 133.37 102.01 146.34 186 188.8 190.02 159.41 211.31 122.17 196.93 111.06"/><path class="cls-9" d="M264.07,265.92l-69.4-30.46-12,23.31-1.87,18.77a105.28,105.28,0,0,0,26.35,6.67C236.57,287.89,261.75,279.73,264.07,265.92Z" transform="translate(-74.7 -155.76)"/><path class="cls-5" d="M356.47,307.9c0-1,.86-18.86.86-18.86l7.55-13,57.38-22.29L347,272.38l-9.92,5.88L311,282.42Z" transform="translate(-74.7 -155.76)"/><polygon class="cls-8" points="116.97 71.21 276.31 121.51 348.21 97.34 357.41 43.77 210.16 10.45 176.22 12.41 137.68 0 116.97 36.59 116.97 71.21"/><polygon class="cls-10" points="349.64 42.01 341.29 77.25 287.38 101.92 119.19 51.12 117.93 34.88 116.97 36.59 116.97 71.21 276.31 121.51 348.21 97.34 357.41 43.77 349.64 42.01"/><path class="cls-9" d="M284.39,171.05l-32.5,1.78L215,161l-19.83,34.61V196c24.61,5,55,8.48,88,9.74,47.78,1.82,90.47-1.52,118.05-8.21Z" transform="translate(-74.7 -155.76)"/><polygon class="cls-7" points="357.41 230.29 318.51 233.92 356.98 246.95 340.16 257.4 359.71 273.08 423.28 264.26 432.19 238.45 421.55 237.47 425.74 229.23 409.47 228.33 357.41 230.29"/><polygon class="cls-8" points="305.07 195.34 318.51 233.92 386.18 241.72 425.74 229.23 412.06 180.31 385.6 154.18 340.16 163.32 305.07 195.34"/><polygon class="cls-8" points="305.07 187.5 337.86 158.75 378.12 149.61 366.04 105.83 342.46 103.22 292.41 123.47 288.39 133.27 305.07 187.5"/><polygon class="cls-8" points="432.19 238.45 340.16 257.4 327.5 288.11 450.6 288.11 450.6 254.13 432.19 238.45"/><path class="cls-9" d="M423.57,413.89c9.34,9.74,34.92,16.75,65,16.75a169.85,169.85,0,0,0,34.55-3.37V412L505.61,397Z" transform="translate(-74.7 -155.76)"/><polygon class="cls-8" points="77.42 105.58 57.65 157.53 62.18 160.22 90 145.28 101.27 97.43 98.13 96.2 77.42 105.58"/><polygon class="cls-4" points="299.46 198.93 310.14 188.03 298.6 193.05 299.46 198.93"/><polygon class="cls-7" points="316.29 267.53 320.31 254.79 329.51 250.38 340.16 257.4 327.5 288.11 316.57 288.11 316.29 267.53"/><polygon class="cls-4" points="317.72 256.75 329.51 250.38 340.16 257.4 330.67 246.62 307.66 246.13 317.72 256.75"/><path class="cls-10" d="M187.23,412c-32.71,17.38-65.08,25.9-90.31,25.45l-1.32,6.41H267V355l-6.34-3.24C244.67,373.35,218.85,395.2,187.23,412Z" transform="translate(-74.7 -155.76)"/><polygon class="cls-5" points="219.65 133.03 218.35 122.25 201.74 106.08 229.78 120.53 243.37 132.05 219.65 133.03"/><path class="cls-9" d="M447.23,293.76l-8.34-30.22-21.12-2.34L373,279.33l-3.6,8.77,1.11,3.61c10.46,4.54,25,7.36,41,7.36C425,299.07,437.4,297.08,447.23,293.76Z" transform="translate(-74.7 -155.76)"/><polygon class="cls-5" points="305.07 257.89 305.64 244.5 310.96 246.2 330.67 246.62 311.75 244.38 305.79 239.76 298.45 213.63 305.07 257.89"/><path class="cls-9" d="M484.54,336.11l-25.2-24.9L416,319.92l-25.22,23c9.36,11.37,30.44,19.31,54.95,19.31,17,0,32.36-3.83,43.3-10Z" transform="translate(-74.7 -155.76)"/><polygon class="cls-7" points="393.29 244.25 386.61 242.54 387.04 228.08 398.04 214.12 384.23 226.12 375.61 242.29 383.59 245.97 393.29 244.25"/><polygon class="cls-7" points="332.89 264.1 333.54 275.37 346.7 270.47 355.54 260.42 347.99 273.16 337.64 279.29 337.86 284.43 420.69 288.11 321.03 288.11 332.89 264.1"/><polygon class="cls-10" points="277.46 118.25 287.38 101.92 302.48 84.28 303.34 73.82 285.22 61.74 306.51 72.19 315 80.97 326.35 93.42 277.46 118.25"/><polygon class="cls-3" points="304.31 195.62 314.77 188.4 340.01 190.35 358.78 200.89 340.01 189.13 317.19 186.19 314.34 183.99 304.31 195.62"/><polygon class="cls-3" points="346.05 160.47 338.5 158.75 340.23 151.4 356.41 135.97 337.42 150.67 331.38 166.84 337.42 161.45 346.05 160.47"/><polygon class="cls-5" points="277.02 121.76 286.77 113.52 303.99 105.34 327.93 93.34 305.28 106.81 290.4 113.18 286.52 120.04 277.02 121.76"/><polygon class="cls-4" points="131.92 162.34 151.77 165.28 161.26 169.86 172.76 166.59 178.23 158.75 174.2 144.71 187.15 120.21 179.38 144.38 183.98 154.83 193.76 153.85 190.02 159.41 189.16 192.07 131.92 162.34"/><polygon class="cls-3" points="180.82 182.92 172.6 182.95 162.7 174.76 174.2 171.16 181.39 162.02 186.28 163.32 186 174.76 180.82 182.92"/><polygon class="cls-4" points="20.9 288.11 196.93 288.11 196.35 276.02 192.32 259.69 182.26 250.87 171.33 213.96 179.96 252.5 174.49 257.73 152.06 248.91 173.91 261.32 181.11 259.36 186.57 276.02 176.5 285.49 20.9 288.11"/><polygon class="cls-4" points="193.19 198.28 158.96 197.3 145.56 205.21 124.16 227.02 142.28 203.5 156.08 194.03 160.11 186.19 155.51 175.41 193.19 198.28"/><polygon class="cls-3" points="162.12 180.07 163.85 188.03 159.6 196.03 190.54 196.67 177.62 188.83 162.12 180.07"/><polygon class="cls-7" points="93.45 142.34 86.77 143.81 78.79 135.23 82.45 121.02 75.98 137.93 72.1 154.1 72.96 157.77 94.32 148.46 93.45 142.34"/><polygon class="cls-8" points="76.85 145.77 75.55 153.12 77.06 155.32 88.71 151.4 87.42 146.99 83.96 146.26 78.14 140.38 76.85 145.77"/><polygon class="cls-10" points="95.83 277.82 111.36 259.69 93.24 248.42 94.53 234.21 76.85 198.93 97.98 231.27 98.42 247.44 118.69 254.3 120.42 270.47 95.83 277.82"/><g class="cls-11"><path class="cls-12" d="M212.48,309.1c.16-.53-.53-1.23-1.54-1.56s-2-.17-2.12.36.53,1.23,1.54,1.56S212.32,309.63,212.48,309.1Z" transform="translate(-74.7 -155.76)"/><path class="cls-12" d="M203.7,300.78c0-.56-.91-1-2-.89s-1.89.57-1.85,1.12.91.95,2,.89S203.73,301.33,203.7,300.78Z" transform="translate(-74.7 -155.76)"/><path class="cls-12" d="M221.91,320.32c0-.47-.86-.8-1.85-.74s-1.79.5-1.76,1,.85.8,1.85.74S221.94,320.79,221.91,320.32Z" transform="translate(-74.7 -155.76)"/><polygon class="cls-13" points="26.85 172.75 156.81 178.55 140.34 165.98 131.87 150.6 126.4 145.92 118.24 127.8 90.33 123.17 77.4 127.88 67.17 130.81 56.96 143.24 48.23 154.26 46.19 159.67 37.13 168.56 26.85 172.75"/><path class="cls-14" d="M142.89,329.88C163,318,176.24,298.19,177.19,281l-12.16-2-12.93,4.7-10.23,2.93L131.66,299l-8.74,11-2,5.4-9,8.9-10.28,4.19,40.55,1.81Z" transform="translate(-74.7 -155.76)"/><polygon class="cls-12" points="120.04 144.37 123.32 145.88 126.81 166.91 135.71 177.61 156.81 178.55 140.34 165.98 131.87 150.6 126.4 145.92 118.24 127.8 102.23 125.15 109.65 129.16 120.04 144.37"/><path class="cls-15" d="M194.92,300.23c-2.57-1.26-4-4.43-3.11-5.33C192.83,293.84,194.69,297.33,194.92,300.23Z" transform="translate(-74.7 -155.76)"/><polygon class="cls-12" points="90.33 123.17 81.31 126.15 76.84 130.01 89.98 125.64 102.38 125.23 90.33 123.17"/><path class="cls-16" d="M214.84,318.08c-.24-.43-1.27-.29-2.3.33s-1.67,1.47-1.43,1.9,1.26.29,2.29-.33S215.08,318.52,214.84,318.08Z" transform="translate(-74.7 -155.76)"/><path class="cls-16" d="M221.76,326.35c0-.5-1-.84-2.2-.76s-2.12.55-2.09,1.05,1,.84,2.21.76S221.79,326.85,221.76,326.35Z" transform="translate(-74.7 -155.76)"/><path class="cls-17" d="M200.79,324.38c-.13-.48-1.16-.6-2.31-.27s-2,1-1.84,1.46,1.16.61,2.3.28S200.91,324.87,200.79,324.38Z" transform="translate(-74.7 -155.76)"/><path class="cls-13" d="M210.49,329.42c0-.5-1-.9-2.16-.9s-2.14.41-2.14.91,1,.9,2.15.9S210.49,329.92,210.49,329.42Z" transform="translate(-74.7 -155.76)"/><path class="cls-17" d="M177,309.27a1.9,1.9,0,0,0-2.49-1,2,2,0,0,0-1.65,2.2,1.9,1.9,0,0,0,2.49,1A2,2,0,0,0,177,309.27Z" transform="translate(-74.7 -155.76)"/><path class="cls-17" d="M146.27,295.53c-.13-.48-1.16-.6-2.3-.27s-2,1-1.85,1.46,1.16.61,2.3.28S146.39,296,146.27,295.53Z" transform="translate(-74.7 -155.76)"/><path class="cls-17" d="M198,305.14c-.12-.49-1.15-.61-2.3-.28s-2,1-1.84,1.47,1.16.6,2.3.27S198.16,305.62,198,305.14Z" transform="translate(-74.7 -155.76)"/><path class="cls-17" d="M160.22,290.45c-.13-.48-1.16-.61-2.3-.28s-2,1-1.84,1.47,1.15.61,2.3.28S160.35,290.93,160.22,290.45Z" transform="translate(-74.7 -155.76)"/><path class="cls-17" d="M189.63,312.41c.19-.46-.53-1.24-1.61-1.75s-2.12-.55-2.32-.09.53,1.24,1.61,1.75S189.43,312.86,189.63,312.41Z" transform="translate(-74.7 -155.76)"/><path class="cls-17" d="M147.74,315.66c.2-.45-.52-1.23-1.61-1.74s-2.12-.55-2.31-.09.52,1.24,1.6,1.74S147.54,316.12,147.74,315.66Z" transform="translate(-74.7 -155.76)"/><path class="cls-17" d="M134.34,301.23c-.17-.55-1.22-.69-2.35-.31s-1.92,1.11-1.75,1.66,1.21.68,2.34.31S134.5,301.77,134.34,301.23Z" transform="translate(-74.7 -155.76)"/><path class="cls-17" d="M129.75,315.62c-.21-.67-1.3-.89-2.42-.49s-1.86,1.25-1.65,1.92,1.3.89,2.42.5S130,316.29,129.75,315.62Z" transform="translate(-74.7 -155.76)"/><path class="cls-17" d="M178.55,286.66c.26-.62-.4-1.52-1.49-2s-2.17-.42-2.43.19.4,1.52,1.48,2S178.28,287.27,178.55,286.66Z" transform="translate(-74.7 -155.76)"/><path class="cls-17" d="M171.23,320.91c0-.5-1-.9-2.14-.9s-2.15.4-2.15.9,1,.9,2.14.91S171.23,321.41,171.23,320.91Z" transform="translate(-74.7 -155.76)"/><path class="cls-17" d="M148.06,326.54c0-.5-1-.91-2.15-.91s-2.15.4-2.15.9,1,.91,2.15.91S148.06,327,148.06,326.54Z" transform="translate(-74.7 -155.76)"/><path class="cls-17" d="M185.27,326.29a2.23,2.23,0,1,0-2.15,1.65A2,2,0,0,0,185.27,326.29Z" transform="translate(-74.7 -155.76)"/><path class="cls-17" d="M161.23,313.49c0-.5-1-.9-2.15-.91s-2.15.41-2.15.91,1,.9,2.15.91S161.23,314,161.23,313.49Z" transform="translate(-74.7 -155.76)"/><path class="cls-17" d="M172.79,301.51c.19-.46-.53-1.24-1.61-1.74s-2.12-.55-2.32-.09.53,1.23,1.61,1.74S172.59,302,172.79,301.51Z" transform="translate(-74.7 -155.76)"/><path class="cls-17" d="M154.31,302.06c-.36-.58-1.46-.51-2.46.16s-1.51,1.69-1.15,2.27,1.46.51,2.45-.16S154.67,302.64,154.31,302.06Z" transform="translate(-74.7 -155.76)"/><path class="cls-17" d="M121.39,323.52c-.36-.58-1.46-.51-2.46.17s-1.51,1.69-1.15,2.27,1.46.5,2.45-.17S121.75,324.1,121.39,323.52Z" transform="translate(-74.7 -155.76)"/><path class="cls-17" d="M148.3,287.21c.2-.46-.52-1.24-1.61-1.74s-2.12-.55-2.31-.1.52,1.24,1.61,1.75S148.11,287.67,148.3,287.21Z" transform="translate(-74.7 -155.76)"/><path class="cls-16" d="M206.64,315.27c.06-.77-.85-1.47-2-1.57s-2.19.45-2.25,1.21.85,1.48,2,1.58S206.58,316,206.64,315.27Z" transform="translate(-74.7 -155.76)"/></g><path class="cls-18" d="M222.72,405.59c.38-7.38-4.9-12.87-10.16-13.07s-9.53,5.09-9.88,12,3.34,12.79,8.61,13S222.35,413,222.72,405.59Z" transform="translate(-74.7 -155.76)"/><polygon class="cls-18" points="136.99 252.58 133.01 252.37 130.42 261.4 136.52 261.74 136.99 252.58"/><polygon class="cls-18" points="138.15 236.77 131.54 236.41 133.71 245.71 137.69 245.92 138.15 236.77"/><path class="cls-18" d="M216.61,405.26c.35-6.9-4.13-12.83-10.45-13.09s-11.37,5-11.72,11.9,4.13,12.83,10.45,13.09S216.26,412.16,216.61,405.26Z" transform="translate(-74.7 -155.76)"/><path class="cls-18" d="M212.36,405c.23-4.5-2.7-8.38-6.83-8.55s-7.43,3.26-7.66,7.77,2.7,8.39,6.83,8.55S212.13,409.54,212.36,405Z" transform="translate(-74.7 -155.76)"/><path class="cls-18" d="M208.07,404.8c.11-2.12-1.07-3.94-2.76-4s-3,1.56-3.15,3.68,1.08,3.94,2.76,4S208,406.92,208.07,404.8Z" transform="translate(-74.7 -155.76)"/><path class="cls-18" d="M177.91,403.17c.38-7.38-4.9-12.87-10.17-13.07s-9.52,5.09-9.87,12,3.34,12.79,8.6,13S177.54,410.55,177.91,403.17Z" transform="translate(-74.7 -155.76)"/><polygon class="cls-18" points="92.17 250.16 88.2 249.95 85.61 258.99 91.71 259.32 92.17 250.16"/><polygon class="cls-18" points="93.34 234.35 86.73 233.99 88.9 243.29 92.87 243.5 93.34 234.35"/><path class="cls-18" d="M171.79,402.84c.35-6.9-4.13-12.83-10.45-13.09s-11.37,5-11.72,11.9,4.14,12.83,10.45,13.09S171.44,409.74,171.79,402.84Z" transform="translate(-74.7 -155.76)"/><path class="cls-18" d="M167.55,402.61c.22-4.5-2.7-8.38-6.83-8.55s-7.43,3.27-7.66,7.77,2.7,8.39,6.83,8.56S167.32,407.12,167.55,402.61Z" transform="translate(-74.7 -155.76)"/><path class="cls-18" d="M163.26,402.38c.11-2.12-1.08-3.94-2.76-4s-3,1.56-3.15,3.68,1.07,3.94,2.76,4S163.15,404.51,163.26,402.38Z" transform="translate(-74.7 -155.76)"/><polygon class="cls-18" points="118.94 247.3 120 226.51 116.5 226.33 115.45 247.11 118.94 247.3"/><polygon class="cls-18" points="73.41 244.85 74.47 224.06 70.97 223.87 69.92 244.66 73.41 244.85"/><polygon class="cls-18" points="137.32 247.44 59.88 243.26 59.7 246.87 137.13 251.05 137.32 247.44"/><polygon class="cls-19" points="106.88 163.69 153.44 167.83 141.5 232.7 83.17 229.55 106.88 163.69"/><path class="cls-20" d="M167.89,376.6c.92-18,15.67-48,31.78-47.14,9.58.52,25.14,1.36,21.78,30.48l6.69-36.35-46.56-4.14-23.71,65.87,10.74.58A36.57,36.57,0,0,1,167.89,376.6Z" transform="translate(-74.7 -155.76)"/><path class="cls-20" d="M180.5,351.26l39.87,4.29.35-3.33L178,347.15Z" transform="translate(-74.7 -155.76)"/><path class="cls-20" d="M182,336.52l39.87,4.28.35-3.32-39.62-3.74Z" transform="translate(-74.7 -155.76)"/><path class="cls-20" d="M180.29,366l39.87,4.29.35-3.33-39.63-3.74Z" transform="translate(-74.7 -155.76)"/><path class="cls-20" d="M180.05,381.35c.27,0,39.87,4.28,39.87,4.28l.35-3.33-39.63-3.73Z" transform="translate(-74.7 -155.76)"/><polygon class="cls-20" points="107.06 163.7 35.21 162.81 41.85 227.32 106.05 230.79 107.06 163.7"/><polygon class="cls-21" points="105.79 225.12 146.03 227.29 145.14 234.14 104.89 231.97 105.79 225.12"/><polygon class="cls-22" points="106.97 225.18 39.13 221.52 39.7 228.45 107.54 232.11 106.97 225.18"/><path class="cls-23" d="M190.14,403.83c.38-7.38-4.9-12.87-10.16-13.07s-9.52,5.09-9.87,12,3.33,12.79,8.6,13S189.77,411.21,190.14,403.83Z" transform="translate(-74.7 -155.76)"/><polygon class="cls-23" points="104.41 250.82 100.44 250.61 97.84 259.65 103.94 259.98 104.41 250.82"/><polygon class="cls-23" points="105.57 235.01 98.96 234.65 101.14 243.95 105.11 244.16 105.57 235.01"/><path class="cls-24" d="M184,403.5c.35-6.9-4.13-12.83-10.45-13.09s-11.37,5-11.72,11.9,4.13,12.83,10.45,13.09S183.68,410.4,184,403.5Z" transform="translate(-74.7 -155.76)"/><path class="cls-25" d="M179.78,403.27c.23-4.5-2.7-8.38-6.83-8.55s-7.43,3.27-7.65,7.77,2.69,8.39,6.82,8.56S179.55,407.78,179.78,403.27Z" transform="translate(-74.7 -155.76)"/><path class="cls-26" d="M176.07,403.07c.12-2.34-1.21-4.34-3.12-4.42s-3.43,1.72-3.55,4.06,1.22,4.35,3.12,4.43S176,405.42,176.07,403.07Z" transform="translate(-74.7 -155.76)"/><path class="cls-23" d="M141.75,401.22c.37-7.38-4.91-12.87-10.17-13.07s-9.52,5.09-9.87,12,3.33,12.79,8.6,13S141.37,408.6,141.75,401.22Z" transform="translate(-74.7 -155.76)"/><polygon class="cls-23" points="56.01 248.21 52.04 248 49.45 257.04 55.54 257.37 56.01 248.21"/><polygon class="cls-23" points="57.17 232.4 50.56 232.04 52.74 241.34 56.71 241.55 57.17 232.4"/><path class="cls-24" d="M135.63,400.89c.35-6.9-4.13-12.83-10.45-13.09s-11.37,5-11.72,11.9,4.13,12.83,10.45,13.09S135.28,407.79,135.63,400.89Z" transform="translate(-74.7 -155.76)"/><path class="cls-25" d="M131.38,400.66c.23-4.5-2.7-8.38-6.83-8.55s-7.42,3.26-7.65,7.77,2.7,8.39,6.82,8.55S131.15,405.17,131.38,400.66Z" transform="translate(-74.7 -155.76)"/><path class="cls-26" d="M127.09,400.43c.11-2.12-1.07-3.94-2.76-4s-3,1.56-3.14,3.68,1.07,3.94,2.75,4S127,402.56,127.09,400.43Z" transform="translate(-74.7 -155.76)"/><polygon class="cls-27" points="109.06 162.32 33.96 161.78 34.31 174.62 108.17 176.17 109.06 162.32"/><polygon class="cls-27" points="109.32 180.04 35.2 177.13 35.55 189.98 108.51 192.4 109.32 180.04"/><polygon class="cls-27" points="36.65 192.69 108.17 195.36 108.37 208.24 37.93 205.16 36.65 192.69"/><polygon class="cls-27" points="38.32 207.51 107.95 210.5 108.14 223.38 39.57 219.99 38.32 207.51"/><polygon class="cls-20" points="109.62 210.53 107.29 210.4 106.64 223.3 108.97 223.43 109.62 210.53"/><polygon class="cls-20" points="109.58 195.33 107.25 195.21 106.6 208.11 108.93 208.23 109.58 195.33"/><polygon class="cls-20" points="110.18 180.09 107.85 179.96 107.22 192.39 109.55 192.52 110.18 180.09"/><polygon class="cls-19" points="110.44 162.42 108.11 162.29 107.4 176.13 109.73 176.26 110.44 162.42"/><path class="cls-28" d="M118.9,330.59l54.7,1.15q1.46-6.3,2.89-13.71l-63.86-.46C114.77,322.12,116.86,326.48,118.9,330.59Z" transform="translate(-74.7 -155.76)"/><path class="cls-28" d="M127.13,346.3l42.17,1.4q1.74-5.49,3.43-12.34l-52.48-2.06C122.61,338,124.9,342.34,127.13,346.3Z" transform="translate(-74.7 -155.76)"/><path class="cls-28" d="M137.24,362,163,363.13a75,75,0,0,0,5.4-12.55l-39.63-1.48A116.48,116.48,0,0,0,137.24,362Z" transform="translate(-74.7 -155.76)"/><path class="cls-28" d="M161.59,365.36l-22.4-1C147.48,374,154.85,375.48,161.59,365.36Z" transform="translate(-74.7 -155.76)"/><polygon class="cls-29" points="54.63 229.26 84.29 230.86 87.23 224.12 57.56 222.51 54.63 229.26"/><path class="cls-20" d="M179.3,383.86c0-.69-.28-1.27-.7-1.29s-.79.52-.83,1.2.28,1.27.7,1.29S179.26,384.55,179.3,383.86Z" transform="translate(-74.7 -155.76)"/><path class="cls-20" d="M117.14,381.34c0-.69-.27-1.27-.69-1.29s-.8.52-.83,1.2.28,1.27.7,1.29S117.11,382,117.14,381.34Z" transform="translate(-74.7 -155.76)"/><path class="cls-30" d="M85.27,443.87h271.9s-38-3.1-41.37-3.31S244.41,416.35,192.72,413c0,0-32.46-12.63-34.09-12.83-.9-.12-30.85,0-41.08,5.61C104.15,413.14,103.65,424.07,85.27,443.87Z" transform="translate(-74.7 -155.76)"/><path class="cls-31" d="M156.53,400.19c-7.1.06-30.24.86-39,5.63-13.4,7.32-24.48,18.25-42.85,38.05H235.24C158.83,438.08,122.42,408.87,156.53,400.19Z" transform="translate(-74.7 -155.76)"/><path class="cls-31" d="M212.16,428.35s-23.54-10.62-12.58-14.76c-2.32-.22-4.61-.41-6.86-.55l-3.08-1.2C191.13,417.8,195.65,422.6,212.16,428.35Z" transform="translate(-74.7 -155.76)"/><path class="cls-30" d="M85.27,443.87h86.11s-49.22-7.45-57-8.28S85.27,443.87,85.27,443.87Z" transform="translate(-74.7 -155.76)"/><polygon class="cls-32" points="76.32 276.05 55.78 276.05 52.45 288.47 76.32 288.47 76.32 276.05"/><polygon class="cls-33" points="78.87 276.05 70.94 276.05 68.4 288.47 81.41 288.47 78.87 276.05"/><polygon class="cls-32" points="119.76 276.05 85.42 276.05 82.19 288.47 119.76 288.47 119.76 276.05"/><polygon class="cls-33" points="120.74 276.05 112.81 276.05 110.27 288.47 123.28 288.47 120.74 276.05"/><path class="cls-34" d="M185.65,433.55c0-.3-3.56-.54-8-.54s-8,.24-8,.54,3.57.53,8,.53S185.65,433.84,185.65,433.55Z" transform="translate(-74.7 -155.76)"/><path class="cls-34" d="M194.65,433.55c0-.3-.7-.54-1.56-.54s-1.56.24-1.56.54.69.53,1.56.53S194.65,433.84,194.65,433.55Z" transform="translate(-74.7 -155.76)"/><polygon class="cls-32" points="101.47 263.63 67.13 263.63 63.9 276.05 101.47 276.05 101.47 263.63"/><polygon class="cls-33" points="102.44 263.63 94.52 263.63 91.98 276.05 104.99 276.05 102.44 263.63"/><ellipse class="cls-34" cx="84.7" cy="265.36" rx="7.96" ry="0.54"/><ellipse class="cls-34" cx="100.09" cy="265.36" rx="1.56" ry="0.54"/><path class="cls-34" d="M152.29,433.55c0-.3-.7-.54-1.56-.54s-1.56.24-1.56.54.7.53,1.56.53S152.29,433.84,152.29,433.55Z" transform="translate(-74.7 -155.76)"/><path class="cls-12" d="M387,387.75c.09-.41-.38-.91-1.05-1.13s-1.27-.06-1.36.35.38.91,1,1.13S386.89,388.16,387,387.75Z" transform="translate(-74.7 -155.76)"/><path class="cls-12" d="M381.05,381.73c0-.42-.62-.69-1.31-.61s-1.21.49-1.17.91.61.7,1.3.61S381.08,382.15,381.05,381.73Z" transform="translate(-74.7 -155.76)"/><path class="cls-12" d="M393.41,396c0-.36-.58-.58-1.23-.5s-1.14.44-1.11.79.58.58,1.22.5S393.44,396.31,393.41,396Z" transform="translate(-74.7 -155.76)"/><polygon class="cls-13" points="240.64 250.5 325.32 250.5 314.28 241.51 308.36 230.11 304.68 226.74 298.89 213.25 280.61 210.69 272.33 214.7 265.75 217.27 259.44 227.06 254.05 235.73 252.87 239.9 247.21 246.97 240.64 250.5"/><path class="cls-14" d="M342.27,405.9c12.75-9.71,20.84-25.2,21-38.33l-8-1.12-8.28,4L340.45,373l-6.31,9.79-5.39,8.67-1.18,4.18-5.66,7.06-6.57,3.53h26.42Z" transform="translate(-74.7 -155.76)"/><polygon class="cls-12" points="300.5 225.78 302.67 226.82 305.5 242.67 311.58 250.5 325.32 250.5 314.28 241.51 308.36 230.11 304.68 226.74 298.89 213.25 288.4 211.78 293.34 214.58 300.5 225.78"/><path class="cls-15" d="M375.32,381.61c-1.7-.87-2.71-3.23-2.17-3.94S375.1,379.41,375.32,381.61Z" transform="translate(-74.7 -155.76)"/><polygon class="cls-12" points="280.61 210.68 274.83 213.25 272.02 216.33 280.45 212.57 288.51 211.84 280.61 210.68"/><path class="cls-16" d="M388.75,394.5c-.16-.33-.83-.18-1.48.32s-1,1.17-.89,1.5.83.17,1.49-.33S388.92,394.82,388.75,394.5Z" transform="translate(-74.7 -155.76)"/><path class="cls-16" d="M393.47,400.54c0-.38-.68-.6-1.45-.5s-1.36.49-1.33.87.69.6,1.46.5S393.51,400.92,393.47,400.54Z" transform="translate(-74.7 -155.76)"/><path class="cls-17" d="M379.78,399.76c-.1-.36-.77-.42-1.51-.13s-1.25.81-1.16,1.17.77.43,1.51.14S379.87,400.12,379.78,399.76Z" transform="translate(-74.7 -155.76)"/><path class="cls-13" d="M386.22,403.26c0-.38-.65-.66-1.42-.62s-1.39.39-1.37.77.65.65,1.42.61S386.23,403.64,386.22,403.26Z" transform="translate(-74.7 -155.76)"/><path class="cls-17" d="M363.93,389.08a1.17,1.17,0,0,0-1.65-.68,1.55,1.55,0,0,0-1,1.73,1.17,1.17,0,0,0,1.65.68A1.55,1.55,0,0,0,363.93,389.08Z" transform="translate(-74.7 -155.76)"/><path class="cls-17" d="M343.55,379.69c-.1-.36-.77-.42-1.5-.13s-1.26.81-1.16,1.18.76.42,1.5.13S343.64,380.05,343.55,379.69Z" transform="translate(-74.7 -155.76)"/><path class="cls-17" d="M377.48,385.23c-.1-.36-.77-.42-1.51-.13s-1.25.81-1.16,1.17.77.43,1.51.14S377.57,385.59,377.48,385.23Z" transform="translate(-74.7 -155.76)"/><path class="cls-17" d="M352.49,375.36c-.09-.36-.77-.42-1.5-.14s-1.26.82-1.16,1.18.77.42,1.5.13S352.59,375.72,352.49,375.36Z" transform="translate(-74.7 -155.76)"/><path class="cls-17" d="M372.2,391c.12-.35-.37-.92-1.09-1.27s-1.39-.35-1.51,0,.37.92,1.09,1.27S372.09,391.39,372.2,391Z" transform="translate(-74.7 -155.76)"/><path class="cls-17" d="M345,394.93c.12-.35-.37-.92-1.09-1.27s-1.39-.34-1.51,0,.38.92,1.09,1.27S344.93,395.29,345,394.93Z" transform="translate(-74.7 -155.76)"/><path class="cls-17" d="M335.94,384.42c-.12-.41-.81-.48-1.53-.16s-1.22.92-1.1,1.32.81.48,1.53.16S336.06,384.83,335.94,384.42Z" transform="translate(-74.7 -155.76)"/><path class="cls-17" d="M333.34,395.51c-.16-.5-.87-.63-1.59-.29s-1.18,1-1,1.51.87.64,1.59.3S333.5,396,333.34,395.51Z" transform="translate(-74.7 -155.76)"/><path class="cls-17" d="M364.31,371.85c.16-.47-.3-1.14-1-1.49s-1.42-.24-1.58.23.3,1.15,1,1.49S364.16,372.33,364.31,371.85Z" transform="translate(-74.7 -155.76)"/><path class="cls-17" d="M360.46,398.12c0-.38-.65-.65-1.42-.61s-1.38.38-1.37.76.65.65,1.42.61S360.48,398.5,360.46,398.12Z" transform="translate(-74.7 -155.76)"/><path class="cls-17" d="M345.54,403.18c0-.38-.65-.66-1.42-.62s-1.39.38-1.38.76.65.66,1.42.62S345.55,403.56,345.54,403.18Z" transform="translate(-74.7 -155.76)"/><path class="cls-17" d="M369.73,401.74a1.3,1.3,0,0,0-1.44-1.18,1.36,1.36,0,0,0-1.35,1.32,1.3,1.3,0,0,0,1.44,1.18A1.35,1.35,0,0,0,369.73,401.74Z" transform="translate(-74.7 -155.76)"/><path class="cls-17" d="M353.76,392.83c0-.38-.65-.66-1.42-.62s-1.39.38-1.38.76.65.65,1.42.62S353.77,393.21,353.76,392.83Z" transform="translate(-74.7 -155.76)"/><path class="cls-17" d="M361,383.33c.11-.35-.38-.92-1.09-1.27s-1.4-.34-1.51,0,.37.92,1.09,1.27S360.84,383.69,361,383.33Z" transform="translate(-74.7 -155.76)"/><path class="cls-17" d="M349,384.37c-.25-.42-1-.33-1.59.21s-.94,1.34-.69,1.77,1,.33,1.59-.21S349.2,384.8,349,384.37Z" transform="translate(-74.7 -155.76)"/><path class="cls-17" d="M328.11,401.79c-.25-.43-1-.33-1.59.21s-.94,1.34-.69,1.77,1,.33,1.59-.21S328.36,402.22,328.11,401.79Z" transform="translate(-74.7 -155.76)"/><path class="cls-17" d="M344.65,373.3c.12-.35-.37-.92-1.09-1.27s-1.39-.35-1.51,0,.38.92,1.09,1.27S344.54,373.65,344.65,373.3Z" transform="translate(-74.7 -155.76)"/><path class="cls-16" d="M383.34,392.64c0-.59-.59-1.09-1.36-1.13a1.26,1.26,0,0,0-1.43,1c0,.59.59,1.09,1.36,1.13S383.33,393.23,383.34,392.64Z" transform="translate(-74.7 -155.76)"/><polygon class="cls-35" points="283.05 240.83 240.35 243.75 241.43 283.75 284.13 283.75 283.05 240.83"/><polygon class="cls-36" points="283.17 240.83 326.54 243.75 325.44 283.75 282.07 283.75 283.17 240.83"/><polygon class="cls-37" points="283.79 273.88 239.29 274.6 239.54 282.91 283.52 282.91 283.79 273.88"/><polygon class="cls-37" points="284.12 262.9 239 264.51 239.25 273.04 283.84 272.19 284.12 262.9"/><polygon class="cls-37" points="284.45 251.59 238.69 254.14 238.95 262.9 284.17 261.15 284.45 251.59"/><polygon class="cls-37" points="284.8 239.94 238.38 243.49 238.65 252.5 284.5 249.79 284.8 239.94"/><polygon class="cls-35" points="283.1 273.88 327.37 274.6 327.13 282.91 283.37 282.91 283.1 273.88"/><polygon class="cls-35" points="282.78 262.9 327.66 264.51 327.41 273.04 283.05 272.19 282.78 262.9"/><polygon class="cls-35" points="282.44 251.59 327.96 254.14 327.71 262.9 282.73 261.15 282.44 251.59"/><polygon class="cls-35" points="282.1 239.94 328.28 243.49 328.01 252.5 282.39 249.79 282.1 239.94"/><path class="cls-38" d="M356.3,434.25c0-.62-.26-1.12-.64-1.12s-.69.5-.72,1.12.26,1.13.64,1.13S356.27,434.88,356.3,434.25Z" transform="translate(-74.7 -155.76)"/><path class="cls-38" d="M355.73,423.06c0-.62-.26-1.12-.64-1.12s-.69.5-.71,1.12.26,1.13.63,1.13S355.7,423.69,355.73,423.06Z" transform="translate(-74.7 -155.76)"/><path class="cls-38" d="M355.16,411.88c0-.63-.26-1.13-.63-1.13s-.7.5-.72,1.13.26,1.12.63,1.12S355.13,412.5,355.16,411.88Z" transform="translate(-74.7 -155.76)"/><path class="cls-38" d="M354.59,400.69c0-.63-.26-1.13-.63-1.13s-.7.5-.72,1.13.26,1.12.63,1.12S354.57,401.31,354.59,400.69Z" transform="translate(-74.7 -155.76)"/><path class="cls-38" d="M318.22,435.34c0-.59-.26-1.07-.63-1.07s-.7.48-.72,1.07.26,1.07.63,1.07S318.2,435.93,318.22,435.34Z" transform="translate(-74.7 -155.76)"/><path class="cls-38" d="M317.65,424.7c0-.59-.26-1.07-.63-1.07s-.69.48-.72,1.07.26,1.07.64,1.07S317.63,425.29,317.65,424.7Z" transform="translate(-74.7 -155.76)"/><path class="cls-38" d="M317.08,414.06c0-.59-.26-1.07-.63-1.07s-.69.48-.72,1.07.26,1.07.64,1.07S317.06,414.65,317.08,414.06Z" transform="translate(-74.7 -155.76)"/><path class="cls-38" d="M316.52,403.41c0-.59-.26-1.07-.64-1.07s-.69.48-.72,1.07.26,1.08.64,1.08S316.49,404,316.52,403.41Z" transform="translate(-74.7 -155.76)"/><path class="cls-38" d="M361.68,434.13c.05-.61-.21-1.1-.59-1.1s-.71.49-.76,1.1.22,1.11.59,1.11S361.64,434.75,361.68,434.13Z" transform="translate(-74.7 -155.76)"/><path class="cls-38" d="M361.54,423.13c0-.62-.22-1.11-.59-1.11s-.72.49-.76,1.11.21,1.1.59,1.1S361.49,423.74,361.54,423.13Z" transform="translate(-74.7 -155.76)"/><path class="cls-38" d="M361.39,412.12c.05-.62-.22-1.11-.59-1.11s-.71.49-.76,1.11.22,1.1.59,1.1S361.34,412.73,361.39,412.12Z" transform="translate(-74.7 -155.76)"/><path class="cls-38" d="M361.24,401.11c.05-.61-.21-1.11-.59-1.11s-.71.5-.76,1.11.22,1.11.59,1.11S361.2,401.72,361.24,401.11Z" transform="translate(-74.7 -155.76)"/><path class="cls-38" d="M398.53,435.89c.11-.61-.1-1.12-.47-1.15s-.77.45-.88,1.05.1,1.12.47,1.15S398.41,436.5,398.53,435.89Z" transform="translate(-74.7 -155.76)"/><path class="cls-38" d="M399.58,424.92c.11-.61-.1-1.12-.47-1.15s-.76.44-.88,1.05.1,1.12.47,1.14S399.47,425.52,399.58,424.92Z" transform="translate(-74.7 -155.76)"/><path class="cls-38" d="M400.63,413.94c.12-.61-.09-1.12-.46-1.15s-.77.45-.88,1,.09,1.12.46,1.15S400.52,414.55,400.63,413.94Z" transform="translate(-74.7 -155.76)"/><path class="cls-38" d="M401.69,403c.11-.6-.1-1.12-.47-1.14s-.77.44-.88,1.05.1,1.12.47,1.14S401.57,403.57,401.69,403Z" transform="translate(-74.7 -155.76)"/><g class="cls-39"><path class="cls-38" d="M364.44,374a20.23,20.23,0,0,1,11.75,1.11l-2.6-6-10.31-1.45-8-1.12L349.53,369l-.39.42-2.11,1-3.75,1.47c-.6-.23-1.13-.2-1.23.11a.57.57,0,0,0,.05.35l-1.65.64-6.31,9.79-5.39,8.67-1.18,4.18-2.12,2.64-12.37.94.27,9,1.93-.12,0,1.66-1.93.11.26,8.76,1.91-.08.05,1.61-1.91.07.25,8.53,1.89,0,0,1.56-1.89,0,.25,8.31h1.86l0,.84h25.32C338.67,405.16,347.55,377.71,364.44,374Z" transform="translate(-74.7 -155.76)"/><path class="cls-38" d="M402.9,402l.08-2.72-1.81-.14C401.75,400.05,402.33,401,402.9,402Z" transform="translate(-74.7 -155.76)"/></g><path class="cls-30" d="M503.2,443.87H283.55s40.35-3,43.78-3.21,59.33-22.28,102-23.5c0,0,22.64-10.38,23.81-10.49.65-.06,21.88,1.55,29.11,6.91C491.21,420.2,492,429,503.2,443.87Z" transform="translate(-74.7 -155.76)"/><path class="cls-31" d="M454.71,406.76c5.17.42,21.41,2.25,27.56,6.82,8.94,6.62,16,15.59,26.74,30.29H402.5C457.86,439.34,479.29,416,454.71,406.76Z" transform="translate(-74.7 -155.76)"/><path class="cls-31" d="M417.25,430.55s16.18-8.95,6.78-13.13c1.8-.12,3.57-.21,5.32-.26l2.18-1C431.52,421.59,429,425.79,417.25,430.55Z" transform="translate(-74.7 -155.76)"/><path class="cls-30" d="M503.2,443.87H450.08s31.24-5.59,35.93-6.16S503.2,443.87,503.2,443.87Z" transform="translate(-74.7 -155.76)"/><g class="cls-40"><path class="cls-12" d="M436.81,383.46c-.08-.39.36-.85,1-1s1.15,0,1.22.38-.36.85-1,1S436.88,383.84,436.81,383.46Z" transform="translate(-74.7 -155.76)"/><path class="cls-12" d="M442.27,378.05c0-.4.57-.63,1.19-.52s1.08.52,1,.91-.57.62-1.19.51S442.23,378.44,442.27,378.05Z" transform="translate(-74.7 -155.76)"/><path class="cls-12" d="M430.84,390.9c0-.33.53-.52,1.11-.41s1,.45,1,.79-.53.52-1.11.41S430.81,391.24,430.84,390.9Z" transform="translate(-74.7 -155.76)"/><polygon class="cls-13" points="426.21 248.12 349.97 244.55 360.1 236.56 365.67 226.09 369.06 223.08 374.55 210.65 391.06 209 398.44 213.13 404.3 215.82 409.77 225.29 414.44 233.67 415.42 237.64 420.36 244.52 426.21 248.12"/><path class="cls-14" d="M476.67,402.4c-11.27-9.66-18.23-24.57-18.1-36.92l7.19-.71,7.37,4.12,5.87,2.69,5.47,9.48,4.67,8.37,1,4,4.94,6.88,5.85,3.6-23.79-1.12Z" transform="translate(-74.7 -155.76)"/><polygon class="cls-12" points="372.84 222.36 370.86 223.24 367.98 238.03 362.34 245.13 349.97 244.55 360.1 236.56 365.67 226.09 369.06 223.08 374.55 210.65 384.02 209.7 379.53 212.13 372.84 222.36"/><path class="cls-15" d="M447.43,378.18c1.55-.75,2.5-2.92,2-3.62S447.68,376.12,447.43,378.18Z" transform="translate(-74.7 -155.76)"/><polygon class="cls-12" points="391.06 209 396.22 211.66 398.68 214.68 391.17 210.78 383.93 209.75 391.06 209"/><path class="cls-16" d="M435.06,389.72c.16-.29.76-.13,1.33.38s.92,1.14.77,1.44-.75.13-1.33-.37S434.91,390,435.06,389.72Z" transform="translate(-74.7 -155.76)"/><path class="cls-16" d="M430.69,395.21c0-.36.62-.54,1.31-.41s1.22.52,1.18.87-.63.54-1.32.41S430.65,395.56,430.69,395.21Z" transform="translate(-74.7 -155.76)"/><path class="cls-17" d="M443,395.05c.1-.33.7-.36,1.36-.06s1.11.82,1,1.16-.7.36-1.36.06S442.94,395.39,443,395.05Z" transform="translate(-74.7 -155.76)"/><path class="cls-13" d="M437.16,398.07c0-.36.6-.59,1.29-.52s1.24.42,1.22.78-.6.59-1.29.51S437.14,398.42,437.16,398.07Z" transform="translate(-74.7 -155.76)"/><path class="cls-17" d="M457.52,385.68a1,1,0,0,1,1.5-.57,1.51,1.51,0,0,1,.88,1.67,1,1,0,0,1-1.5.57A1.51,1.51,0,0,1,457.52,385.68Z" transform="translate(-74.7 -155.76)"/><path class="cls-17" d="M476.07,377.71c.1-.33.7-.36,1.36-.06s1.11.82,1,1.16-.7.36-1.36.06S476,378.05,476.07,377.71Z" transform="translate(-74.7 -155.76)"/><path class="cls-17" d="M445.41,381.49c.1-.34.7-.36,1.36-.06s1.11.82,1,1.15-.7.37-1.36.07S445.32,381.83,445.41,381.49Z" transform="translate(-74.7 -155.76)"/><path class="cls-17" d="M468.11,373.26c.1-.33.7-.36,1.36-.06s1.11.82,1,1.16-.7.36-1.36.06S468,373.6,468.11,373.26Z" transform="translate(-74.7 -155.76)"/><path class="cls-17" d="M450,387.17c-.1-.33.35-.85,1-1.14s1.26-.27,1.36.07-.36.85-1,1.15S450.13,387.51,450,387.17Z" transform="translate(-74.7 -155.76)"/><path class="cls-17" d="M474.41,392c-.1-.34.35-.85,1-1.15s1.26-.26,1.35.07-.35.86-1,1.15S474.5,392.32,474.41,392Z" transform="translate(-74.7 -155.76)"/><path class="cls-17" d="M482.82,382.48c.12-.38.74-.41,1.39-.08s1.07.91,1,1.29-.74.41-1.39.08S482.71,382.86,482.82,382.48Z" transform="translate(-74.7 -155.76)"/><path class="cls-17" d="M484.93,393c.15-.47.79-.56,1.43-.21s1,1,.89,1.47-.79.55-1.44.21S484.77,393.48,484.93,393Z" transform="translate(-74.7 -155.76)"/><path class="cls-17" d="M457.55,369.47c-.13-.45.29-1.06.95-1.36s1.29-.17,1.42.28-.3,1.06-.95,1.36S457.68,369.92,457.55,369.47Z" transform="translate(-74.7 -155.76)"/><path class="cls-17" d="M460.45,394.33c0-.36.6-.59,1.3-.52s1.24.41,1.22.77-.6.59-1.29.52S460.43,394.69,460.45,394.33Z" transform="translate(-74.7 -155.76)"/><path class="cls-17" d="M473.78,399.71c0-.35.6-.59,1.3-.52s1.24.42,1.22.78-.6.59-1.3.52S473.76,400.07,473.78,399.71Z" transform="translate(-74.7 -155.76)"/><path class="cls-17" d="M452,397.33a1.16,1.16,0,0,1,1.32-1,1.3,1.3,0,0,1,1.2,1.3,1.16,1.16,0,0,1-1.33,1A1.29,1.29,0,0,1,452,397.33Z" transform="translate(-74.7 -155.76)"/><path class="cls-17" d="M466.6,389.63c0-.35.6-.59,1.3-.52s1.24.42,1.22.77-.6.59-1.29.52S466.58,390,466.6,389.63Z" transform="translate(-74.7 -155.76)"/><path class="cls-17" d="M460.32,380.4c-.09-.33.36-.85,1-1.15s1.26-.26,1.36.08-.36.85-1,1.15S460.42,380.74,460.32,380.4Z" transform="translate(-74.7 -155.76)"/><path class="cls-17" d="M471.11,381.89c.23-.39.87-.28,1.43.26s.82,1.3.58,1.69-.87.28-1.43-.26S470.87,382.28,471.11,381.89Z" transform="translate(-74.7 -155.76)"/><path class="cls-17" d="M489.5,399.15c.24-.4.88-.28,1.43.26s.82,1.29.59,1.69-.88.27-1.43-.27S489.27,399.54,489.5,399.15Z" transform="translate(-74.7 -155.76)"/><path class="cls-17" d="M475.22,371.66c-.1-.34.35-.85,1-1.15s1.26-.27,1.35.07-.35.85-1,1.15S475.31,372,475.22,371.66Z" transform="translate(-74.7 -155.76)"/><path class="cls-16" d="M440,388.21a1.29,1.29,0,1,1,1.27,1A1.17,1.17,0,0,1,440,388.21Z" transform="translate(-74.7 -155.76)"/></g><polygon class="cls-41" points="320.98 204.99 322.44 202.98 365.1 235.26 362.85 236.67 320.98 204.99"/><polygon class="cls-41" points="376.49 256.5 379.08 261.15 358.34 280.27 357.27 278.9 376.49 256.5"/><polygon class="cls-41" points="396.93 270.17 401.91 270.17 403.71 288.12 402 288.12 396.93 270.17"/><path class="cls-42" d="M424.77,379.66l80,23.92L483,428.07a16.53,16.53,0,0,1-17.18,4.81l-23.39-7.17L424,382.08Z" transform="translate(-74.7 -155.76)"/><path class="cls-43" d="M424.77,379.66l80,23.92-2,2.21L431.3,384.05l-.71,2.1,16.7,38.44,21.19,6.6a15.22,15.22,0,0,0,13.86-2.43,16.5,16.5,0,0,1-16.52,4.12l-23.39-7.17L424,382.08Z" transform="translate(-74.7 -155.76)"/><polygon class="cls-44" points="388.22 240.4 424.27 251.17 413.17 263.65 388.22 252.32 388.22 240.4"/><polygon class="cls-44" points="372.35 235.65 383.75 239.06 383.75 250.29 375.73 246.65 371.8 237.34 372.35 235.65"/><path class="cls-45" d="M396,356.33l13.81,10.23-5.36,3.05-11.93-8.47a3,3,0,1,1,3.48-4.81Z" transform="translate(-74.7 -155.76)"/><circle class="cls-41" cx="354.63" cy="282.03" r="6.09"/><path class="cls-46" d="M391.69,358.35l11.94,8.47,3.67-2.09,2.47,1.83-5.36,3.05-11.93-8.47a2.94,2.94,0,0,1-1.17-3.12A3,3,0,0,0,391.69,358.35Z" transform="translate(-74.7 -155.76)"/><path class="cls-47" d="M425.42,437.8a3.92,3.92,0,1,1,3.91,3.91A3.92,3.92,0,0,1,425.42,437.8Z" transform="translate(-74.7 -155.76)"/></g></g></svg>