<svg id="Layer_1" data-name="Layer 1" xmlns="http://www.w3.org/2000/svg" viewBox="0 0 383.3 286.32"><defs><style>.cls-1{fill:#97ba63;}.cls-2{fill:#7b9e49;}.cls-3{fill:#e8e8e8;}.cls-4{fill:#e07331;}.cls-5{fill:#589400;}.cls-6{fill:#d9d9d9;}.cls-7{fill:#fff;}.cls-8{fill:#9eb4ca;}.cls-9{fill:#7e96ad;}.cls-10{fill:#b85e29;}.cls-11{fill:#ccc;}.cls-12{fill:#c28649;}.cls-13{fill:#e0a266;}</style></defs><path class="cls-1" d="M398.28,435.83h75a55.89,55.89,0,1,0-75,0Z" transform="translate(-108.35 -156.84)"/><path class="cls-2" d="M189.09,351.22c18.22-30-5.2-140.75-11.86-140.75s-30.08,110.72-11.86,140.75Z" transform="translate(-108.35 -156.84)"/><path class="cls-2" d="M160.65,370.21c14-23.06-4-108-9.11-108s-23.09,85-9.1,108Z" transform="translate(-108.35 -156.84)"/><circle class="cls-1" cx="161.35" cy="338.17" r="21.62" transform="translate(-306.64 286.42) rotate(-80.78)"/><circle class="cls-1" cx="141.61" cy="362.05" r="23.88" transform="translate(-351.63 259.85) rotate(-76.72)"/><circle class="cls-1" cx="147.96" cy="394.44" r="39.61" transform="translate(-378.27 290.98) rotate(-76.72)"/><circle class="cls-1" cx="338.38" cy="172.38" r="43.09"/><circle class="cls-1" cx="322.28" cy="126.39" r="28.44"/><rect class="cls-3" x="105.31" y="32.12" width="28.36" height="60.35"/><rect class="cls-4" x="102.98" y="28.53" width="33.01" height="9"/><rect class="cls-3" x="53" y="143.29" width="288.86" height="143.03"/><rect class="cls-5" x="26.35" y="275.07" width="342.15" height="11.25"/><rect class="cls-6" x="149.1" y="187.5" width="21.62" height="6.18"/><rect class="cls-6" x="128.57" y="207.37" width="21.62" height="6.18"/><rect class="cls-6" x="60.35" y="217.94" width="21.62" height="6.18"/><rect class="cls-6" x="53" y="181.33" width="21.62" height="6.18"/><rect class="cls-6" x="69.99" y="163.59" width="21.62" height="6.18"/><rect class="cls-6" x="159.91" y="166.67" width="21.62" height="6.18"/><rect class="cls-6" x="189.45" y="158.64" width="21.62" height="6.18"/><rect class="cls-6" x="168.12" y="152.73" width="21.62" height="6.18"/><rect class="cls-6" x="125.19" y="157.58" width="21.62" height="6.18"/><rect class="cls-6" x="110.96" y="163.59" width="21.62" height="6.18"/><rect class="cls-6" x="53" y="149.65" width="21.62" height="6.18"/><rect class="cls-6" x="53" y="195" width="7.35" height="6.18"/><polygon class="cls-4" points="349.27 143.03 46.65 143.03 197.43 0 349.27 143.03"/><polygon class="cls-3" points="197.16 38.86 144.93 87.44 144.93 143.29 249.29 143.29 249.29 87.44 197.16 38.86"/><path class="cls-7" d="M309,220.72h-6.88a21.67,21.67,0,0,0-21.57,21.72v57.69h50V242.44A21.66,21.66,0,0,0,309,220.72Z" transform="translate(-108.35 -156.84)"/><path class="cls-8" d="M326.9,300.13H284.24V242.38a18,18,0,0,1,17.95-17.95H309a17.94,17.94,0,0,1,17.95,17.95Z" transform="translate(-108.35 -156.84)"/><path class="cls-9" d="M291.66,245.55a18,18,0,0,1,17.95-18h6.76a18.29,18.29,0,0,1,3.16.3A17.83,17.83,0,0,0,309,224.43h-6.76a18,18,0,0,0-17.95,17.95v57.75h7.42Z" transform="translate(-108.35 -156.84)"/><polygon class="cls-10" points="144.82 89.14 197.05 38.86 249.29 89.14 260.45 89.14 197.11 28.77 133.67 89.14 144.82 89.14"/><rect class="cls-7" x="194.6" y="66.13" width="5.66" height="77.16"/><rect class="cls-7" x="173.14" y="83.42" width="48.59" height="2.03"/><rect class="cls-7" x="173.14" y="103.74" width="48.59" height="2.03"/><rect class="cls-11" x="140.46" y="112.76" width="7.57" height="30.53"/><rect class="cls-11" x="152.21" y="112.76" width="7.57" height="30.53"/><rect class="cls-11" x="163.96" y="112.76" width="7.57" height="30.53"/><rect class="cls-11" x="175.7" y="112.76" width="7.57" height="30.53"/><rect class="cls-11" x="187.45" y="112.76" width="7.57" height="30.53"/><rect class="cls-11" x="199.2" y="112.76" width="7.57" height="30.53"/><rect class="cls-11" x="210.94" y="112.76" width="7.57" height="30.53"/><rect class="cls-11" x="222.69" y="112.76" width="7.57" height="30.53"/><rect class="cls-11" x="234.44" y="112.76" width="7.57" height="30.53"/><rect class="cls-11" x="246.18" y="112.76" width="7.57" height="30.53"/><rect class="cls-11" x="140.46" y="112.76" width="113.29" height="3.11"/><path class="cls-11" d="M251.83,420.47h0a4.52,4.52,0,0,1-4.5-4.51h0a4.51,4.51,0,0,1,4.5-4.5h0a4.51,4.51,0,0,1,4.5,4.5h0A4.52,4.52,0,0,1,251.83,420.47Z" transform="translate(-108.35 -156.84)"/><path class="cls-11" d="M355.22,416h0a4.52,4.52,0,0,1,4.51-4.5h0a4.52,4.52,0,0,1,4.5,4.5h0a4.52,4.52,0,0,1-4.5,4.51h0A4.52,4.52,0,0,1,355.22,416Z" transform="translate(-108.35 -156.84)"/><rect class="cls-7" x="76.9" y="176.26" width="62.48" height="62.48"/><rect class="cls-8" x="81.96" y="181.33" width="52.35" height="52.35"/><polygon class="cls-9" points="89.38 186.62 134.31 186.62 134.31 181.32 81.96 181.32 81.96 233.67 89.38 233.67 89.38 186.62"/><rect class="cls-7" x="80.8" y="196.05" width="55.22" height="2.03"/><rect class="cls-7" x="80.8" y="214.05" width="55.22" height="2.03"/><rect class="cls-7" x="105.31" y="177.22" width="5.66" height="60.31"/><rect class="cls-6" x="53" y="256.03" width="21.62" height="6.18"/><rect class="cls-6" x="69.99" y="249.97" width="21.62" height="6.18"/><rect class="cls-6" x="114.38" y="241.2" width="21.62" height="6.18"/><rect class="cls-6" x="140.4" y="221.03" width="21.62" height="6.18"/><rect class="cls-6" x="154.69" y="249.97" width="8.22" height="6.18"/><rect class="cls-6" x="91.61" y="260.55" width="21.62" height="6.18"/><rect class="cls-6" x="224.56" y="187.5" width="21.62" height="6.18"/><rect class="cls-6" x="245.1" y="207.37" width="21.62" height="6.18"/><rect class="cls-6" x="313.32" y="217.94" width="21.62" height="6.18"/><rect class="cls-6" x="320.24" y="181.33" width="21.62" height="6.18"/><rect class="cls-6" x="303.67" y="163.59" width="21.62" height="6.18"/><rect class="cls-6" x="248.48" y="157.58" width="21.62" height="6.18"/><rect class="cls-6" x="262.7" y="163.59" width="21.62" height="6.18"/><rect class="cls-6" x="320.24" y="149.65" width="21.62" height="6.18"/><rect class="cls-6" x="334.51" y="195" width="7.35" height="6.18"/><rect class="cls-6" x="320.24" y="256.03" width="21.62" height="6.18"/><rect class="cls-6" x="303.67" y="249.97" width="21.62" height="6.18"/><rect class="cls-6" x="259.29" y="241.2" width="21.62" height="6.18"/><rect class="cls-6" x="233.26" y="221.03" width="21.62" height="6.18"/><rect class="cls-6" x="232.37" y="249.97" width="8.22" height="6.18"/><rect class="cls-6" x="282.06" y="260.55" width="21.62" height="6.18"/><rect class="cls-7" x="257.95" y="176.26" width="62.48" height="62.48"/><rect class="cls-8" x="263.02" y="181.33" width="52.35" height="52.35"/><polygon class="cls-9" points="270.43 186.62 315.37 186.62 315.37 181.32 263.02 181.32 263.02 233.67 270.43 233.67 270.43 186.62"/><rect class="cls-7" x="261.86" y="196.05" width="55.22" height="2.03"/><rect class="cls-7" x="261.86" y="214.05" width="55.22" height="2.03"/><rect class="cls-7" x="286.36" y="177.22" width="5.66" height="60.31"/><path class="cls-5" d="M417.68,443.16c10.06-16-4.3-66.53-8.46-66.53s-18.52,50.56-8.46,66.53Z" transform="translate(-108.35 -156.84)"/><path class="cls-5" d="M394,443.16c11.68-19.25-3.33-90.25-7.6-90.25s-19.29,71-7.61,90.25Z" transform="translate(-108.35 -156.84)"/><rect class="cls-7" x="162.91" y="176.26" width="69.03" height="98.97"/><rect class="cls-12" x="170.14" y="182.35" width="54.58" height="86.79"/><rect class="cls-13" x="180.92" y="194.64" width="33.01" height="62.21"/><rect class="cls-11" x="146.56" y="275.07" width="101.74" height="3.84"/><rect class="cls-3" x="146.56" y="278.64" width="101.74" height="7.68"/><rect class="cls-3" x="146.56" y="267.39" width="101.74" height="7.68"/><rect class="cls-11" x="140.4" y="263.56" width="114.05" height="3.84"/><rect class="cls-11" x="140.4" y="263.64" width="6.15" height="22.68"/><rect class="cls-11" x="248.3" y="263.64" width="6.15" height="22.68"/><rect class="cls-10" x="46.65" y="143.03" width="302.62" height="6.62"/></svg>