<svg id="Layer_1" data-name="Layer 1" xmlns="http://www.w3.org/2000/svg" viewBox="0 0 267.24 299.29"><defs><style>.cls-1{fill:#593cdb;}.cls-2{fill:#6948ff;}.cls-3{fill:#402f8b;}.cls-4{fill:#4b34b2;}.cls-5{fill:#ffb7a9;}.cls-6{fill:#908aa7;}.cls-7{fill:#9c45c8;}.cls-8{fill:#afa9c7;}.cls-9{fill:#afa9c6;}.cls-10{fill:#aea8c7;}.cls-11{fill:#aea8c5;}.cls-12{fill:#aea8c6;}.cls-13{fill:#ada7c6;}.cls-14{fill:#b0a9c6;}.cls-15{fill:#b1abc8;}.cls-16{fill:#b0aac7;}.cls-17{fill:#ada7c5;}.cls-18{fill:#b2a9c9;}.cls-19{fill:#aba5c5;}.cls-20{fill:#7d69d8;}.cls-21{fill:#aca5c8;}.cls-22{fill:#9a45ca;}.cls-23{fill:#a9a2c6;}.cls-24{fill:#8d83b6;}.cls-25{fill:#aea7c6;}.cls-26{fill:#aca5c5;}.cls-27{fill:#3c2e7d;}.cls-28{fill:#733199;}.cls-29{fill:#863bab;}.cls-30{fill:#a94bd8;}.cls-31{fill:#4936a1;}.cls-32{fill:#bf89ff;}.cls-33{fill:#5b44c3;}.cls-34{fill:#e77db8;}.cls-35{fill:#be88ff;}.cls-36{fill:#b682ff;}.cls-37{fill:#893e9c;}.cls-38{fill:#bbaff2;}.cls-39{fill:#e2dcfe;}.cls-40{fill:#bbaff3;}.cls-41{fill:#e3ddff;}.cls-42{fill:#33275a;}.cls-43{fill:#f5eeff;}</style></defs><path class="cls-1" d="M536,647.92c-.82-.43-1.67-.81-2.44-1.31-1.41-.93-1.49-1.89-.25-3a.69.69,0,0,0,.29-.85,1.42,1.42,0,0,1,.38-1.74c.92-.63.65-1.34.36-2.12a67.56,67.56,0,0,0-4.11-8.79c-2.82-5.25-5.71-10.45-8.76-15.57a2.13,2.13,0,0,0-1.83-1.3c-4-.25-8.06-.71-12.11-.68-1.81,0-3.57.28-5.36.4-.68,0-1,.51-1.39.91-2.47,2.53-4.83,5.15-7.46,7.51-4.14,3.71-8.44,7.22-12.76,10.71a40.94,40.94,0,0,1-4.8,3.1c-3.09,1.86-6,1.54-8.91-.42-1.95-.94-2.12-2.94-2.81-4.64a10.29,10.29,0,0,1-.47-3.26,6.76,6.76,0,0,1,.48-2.7,2.43,2.43,0,0,1,.7-.83c2.05-3.61,4.61-6.9,6.75-10.45,4-6.63,7.49-13.52,10.84-20.48,1-2.08,2.12-4.1,3.14-6.17.38-.83,1.11-.62,1.8-.64,5.64-.18,11.16.83,16.71,1.66,12.24,1.85,24.28,4.75,36.5,6.74.54.08,1.19.07,1.39.79-1.47.76-1.94,2.14-2.35,3.62a57.4,57.4,0,0,0-.45,29.3c1.54,6.47,3.07,12.94,5.17,19.25a2.27,2.27,0,0,1,0,2.16c-.72.53-1.57.32-2.36.4a10.37,10.37,0,0,1-2.36-.14C538.35,648.84,536.9,649,536,647.92Z" transform="translate(-406.38 -390.35)"/><path class="cls-2" d="M566.8,544.66a72.93,72.93,0,0,1-4.56,6.5c-3.29,4.16-6.65,8.27-9.75,12.58-2.59,3.61-4.67,7.55-7.22,11.19-.36.52-.69,1.06-1,1.58a40.35,40.35,0,0,1-9.92-5.21,66.71,66.71,0,0,1-23.15-25.23c-.52-1-1.41-1.67-2-2.6L509,543c3.07-1.45,4.44-4.51,6.51-6.91a2,2,0,0,0,.6-2c4.48-5.24,9.05-10.38,14.56-14.59.76-1.75,2.38-1.35,3.78-1.51,1.38-.36,2.82-.17,4.2-.48,1-.15,2-.31,3-.51,1.56-.15,3-.88,4.62-.76a3.19,3.19,0,0,1,2,3.73A3.72,3.72,0,0,0,551,524.1a3.84,3.84,0,0,0,4.42-2.16c1-2,1.67-2.19,4.05-1.52a2.59,2.59,0,0,1,.64,1.21c.18.72.2,1.46.4,2.18a10.74,10.74,0,0,1,.15,1.7,23,23,0,0,0,.31,4.61c0,.56,0,1.11,0,1.67,0,.26,0,.51,0,.77a6.83,6.83,0,0,0,0,1.5c.19.9.62.55,1,.18l2.84-2.27c1.08-.72,2.16-1.46,3.21-2.23.58-.43,1.17-.94,2-.66,1.23,2,1.17,3.23-.32,4.89-.44.48-.74,1-.26,1.51,1.22,1.34.61,2.69.09,4A56.8,56.8,0,0,1,566.8,544.66Z" transform="translate(-406.38 -390.35)"/><path class="cls-3" d="M541.8,594.83c-.91-.61-2-.4-3-.57-4.65-.79-9.25-1.85-13.9-2.63-5.67-1-11.23-2.47-16.92-3.26-4.78-.66-9.52-1.62-14.32-2.11a45.45,45.45,0,0,0-5.72-.07c-.83,0-1.69-.56-2.51,0A5.36,5.36,0,0,1,482.1,583c-.4-1.14-.41-1.14-1.54-.84-3.79,1-7.58,2-11.38,3a183.47,183.47,0,0,1-22.44,4.16,144.78,144.78,0,0,0-15.95,3.21,22,22,0,0,0-2.88,1.17,13.13,13.13,0,0,1-4.29,1.28c-1.4,0-2.07-.49-2.19-1.86a10.21,10.21,0,0,1,0-2.59c.48-2.92.25-5.88.44-8.82a59.1,59.1,0,0,1,1.24-7.85c.45-2.23,1.66-2.76,3.82-1.83a26.33,26.33,0,0,0,4.55,1c.62.15,1.26.19,1.89.28,1.23-.76,2.58-.51,3.89-.42,5,.37,10,.47,15.05,1a210.4,210.4,0,0,0,25.1,1.06c1.2,0,2.36.65,3.59.26,2.91-.36,5.82-.77,8.74-1,.85-.08,1.41-.26,1.68-1.09a.63.63,0,0,1,.68-.41c1-.64,2-.19,3,.12a291.22,291.22,0,0,1,27.21,10.68c6.18,2.69,12.18,5.78,18.42,8.36a4.16,4.16,0,0,1,2.15,1.37c.48.69.58,1.31-.31,1.76A.53.53,0,0,1,541.8,594.83Z" transform="translate(-406.38 -390.35)"/><path class="cls-1" d="M509.18,543.47a3.57,3.57,0,0,1,2.18,2.07,58.14,58.14,0,0,0,6.06,9.65c1.05,1.29,2.1,2.59,3.25,3.8,1.62,1.72,3.37,3.33,5,5,2.92,3.1,6.47,5.36,10,7.63a68,68,0,0,0,7.58,4.16,2,2,0,0,1,1,.68c0,.49-.52.82-.43,1.34-.6.44-1.22.14-1.83.06-6.36-.82-12.51-2.78-18.87-3.55-9.08-1.09-17.86-3.53-26.75-5.5-.87-.19-1.89,0-2.58-.79,1.61-.47,1.57-.49,2.37-2.23a133,133,0,0,1,8.3-15.14A86.32,86.32,0,0,1,509.18,543.47Z" transform="translate(-406.38 -390.35)"/><path class="cls-2" d="M541.8,594.83l.74.07c1.05,2.63,2.14,5.24,3.15,7.88a83.57,83.57,0,0,1,4.48,18.65,73.39,73.39,0,0,1,.66,8.63c0,2.32.53,4.58.79,6.88a5.71,5.71,0,0,0,1,2.37,6.1,6.1,0,0,1-2.23,9,8.1,8.1,0,0,1-.94.45,3.52,3.52,0,0,1-2.27.76c-1-.1-2.09.32-3-.48a3.7,3.7,0,0,0-.4-1.67,210.36,210.36,0,0,1-6.15-23.7A53.68,53.68,0,0,1,537,609a49.93,49.93,0,0,1,2.55-12.46C540.07,594.92,540.08,594.92,541.8,594.83Z" transform="translate(-406.38 -390.35)"/><path class="cls-3" d="M455.4,513.93c.29-.39.72-.28,1.11-.28,3.7,0,7.4,0,11.09.17a62.27,62.27,0,0,0,8-.34c4.95-.46,9.89-1,14.82-1.59,4.18-.53,8.34-1.25,12.51-1.9a19.63,19.63,0,0,1,5.52-.16,6,6,0,0,1,1.41,2.19c.35.8.91,1.49,1.32,2.26.2.37.39.74.58,1.12.75,2,2.09,3.87,1.22,6.19-.46.66-1.16.63-1.85.7-4.67.45-9.35.27-14,.44-7.09.26-14.19.42-21.29.71-2.71.11-5.42.36-7.81,1.91a6.69,6.69,0,0,1-1.64.52c-.57-.15-.62-.65-.66-1.09-.33-3.48-2.61-5.5-5.38-7.12A30,30,0,0,1,455.4,513.93Z" transform="translate(-406.38 -390.35)"/><path class="cls-4" d="M493.78,568.07c2.15-.23,4,.88,6.07,1.21,5.51.89,10.85,2.55,16.34,3.55,2,.37,4.07.7,6.14.88a83.46,83.46,0,0,1,8.3,1.51c3.5.68,6.93,1.69,10.5,2a17.42,17.42,0,0,1,2.68.65c1.05.18,1.3.91,1.42,1.86a22.57,22.57,0,0,1-.5,6.14,21.4,21.4,0,0,1-1.14,4.31,24.94,24.94,0,0,0-.74,3,43.05,43.05,0,0,1-4.59-2c-2.82-1.17-5.63-2.36-8.37-3.7-2.37-1.16-4.76-2.3-7.17-3.37-5.79-2.57-11.66-4.94-17.53-7.3-3.42-1.38-6.93-2.5-10.41-3.7a7.56,7.56,0,0,0-2.7-.5c.7-.79.56-1.81.7-2.74C492.9,569.12,492.92,568.38,493.78,568.07Z" transform="translate(-406.38 -390.35)"/><path class="cls-4" d="M481,575.15c-.44.41-1,.27-1.48.27-5,0-9.94.14-14.89-.07a41.72,41.72,0,0,1-6.68-.56,32.18,32.18,0,0,0-4.28-.31c-2.07-.14-4.14-.28-6.19-.49-3.37-.33-6.77-.1-10.14-.6a30.87,30.87,0,0,0-4-.11c0-1.9.25-3.78.48-5.66a22.26,22.26,0,0,1,.5-3.24,13.44,13.44,0,0,0,.57-3.4,5.56,5.56,0,0,1,.46-2c.46-1.12.85-1.29,1.78-.59a3.06,3.06,0,0,0,2.77.49,9,9,0,0,1,3.94.08,79,79,0,0,1,21,7.93c4.44,2.34,8.91,4.63,13.1,7.4A4.47,4.47,0,0,0,481,575.15Z" transform="translate(-406.38 -390.35)"/><path class="cls-5" d="M455.4,513.93a3.31,3.31,0,0,1,.94.41c2.18,2,5,3.09,7.11,5.12a7.52,7.52,0,0,1,2.59,5.47c0,.34-.05.7.28.94a21.22,21.22,0,0,1-3.49,4c-.89.73-1.78,1.48-2.6,2.28a6.29,6.29,0,0,1-4.85,1.44,10.13,10.13,0,0,1-7.66-3.44,4.88,4.88,0,0,1-1.25-4.78c.09-.33.13-.68.24-1,.19-.55,0-.89-.55-1a6,6,0,0,1-2.25-1.26,5,5,0,0,1-1.21-6.38,25.39,25.39,0,0,1,1.72-2.39,2.3,2.3,0,0,1,3.49-.57,4.58,4.58,0,0,0,3.37.88A9.61,9.61,0,0,1,455.4,513.93Z" transform="translate(-406.38 -390.35)"/><path class="cls-5" d="M545.51,675.74a91.84,91.84,0,0,1,12,7.23,14.81,14.81,0,0,0,5.3,2.48c1.42.32,2,1.07,1.89,2.25a1.55,1.55,0,0,1-1.32,1.59,12,12,0,0,1-2.39.35c-3.07,0-6.14.07-9.2-.06a89.92,89.92,0,0,1-12.35-1.38c-1.32-.25-1.82-.86-1.85-2.3,0-1.73,0-3.47,0-5.21,0-2.25,1.76-3.27,3.18-4.51a5.17,5.17,0,0,1,1.67-.85C543.52,675,544.61,674.65,545.51,675.74Z" transform="translate(-406.38 -390.35)"/><path class="cls-5" d="M422.36,629.56c-4.91,2.11-9.56,4.62-13.2,8.66a4.12,4.12,0,0,1-1.23.93,1.16,1.16,0,0,1-1.31,0c-.37-.31-.24-.74-.12-1.13.55-1.76,1-3.57,1.68-5.27,1.34-3.26,2.35-6.64,3.53-10,.43-1.19.93-2.36,1.4-3.54a1.8,1.8,0,0,1,1.37-1.16c2.37-.58,4.56-.55,6.49,1.21a5.31,5.31,0,0,0,4.19,1.7c.2,0,.42.18.63.27.78,1.34-.53,2.23-.7,3.37a15.32,15.32,0,0,0-.67,1.62C423.71,627.33,423.75,628.89,422.36,629.56Z" transform="translate(-406.38 -390.35)"/><path class="cls-6" d="M510.8,514.39a10.12,10.12,0,0,1-1.31-2.16c.67-1.17,1-2.68,2.76-2.73l7.59-.79c1.38-.25.92.57.68,1.21a2.26,2.26,0,0,0,1.59,3.2,1,1,0,0,0,1.3-.54c.76-1.23,2-2.28,1.62-4,0-.24.21-.37.42-.47l1.34-.08c1.06-.35,1.93-.26,2.36.94.06.16.24.26.36.38,2.11,2.1,2.4,2.08,4.12-.29.6-.83,1-1.83,2.23-2l1.73,0a10.32,10.32,0,0,1,1.93,1.42c1.52,1.25,2.22,1.11,3.25-.6.26-.44.21-1.27,1.12-.87l2,.06a6.62,6.62,0,0,1,.88.79,2.06,2.06,0,0,0,2.86.77c2.19,1.57,2.51,3.78.78,5.44a.88.88,0,0,1-.79-.2c-.56-.4-1-1.11-1.85-.3a1.43,1.43,0,0,0,0,2.3,1.12,1.12,0,0,1-1.49.58l-4.47.94c-.16-.84.58-1.18,1-1.71a.91.91,0,0,0-.11-1.37c-.41-.4-1-1-1.47-.47-1,1.18-2.78,2-2.52,4-1.33.61-2.79.18-4.15.52.56-1.43-.5-2.08-1.39-2.77-.65-.5-1,0-1.4.5-.82,1-1.25,2.37-2.46,3.09a1.13,1.13,0,0,1-.32.05,4.35,4.35,0,0,1-4.32-1c-.76-.77-1.51-.81-2,.31a3.79,3.79,0,0,1-1.29,1.35h0c-.44.27-1,0-1.42.26l-.17,0h-.16c-.52-1.26.54-2,1-2.92.26-.55,1-1,.45-1.7a5,5,0,0,0-2.35-1.69c-.37-.11-.6.28-.79.58-.37.58-.7,1.19-1.07,1.78-.61,1-.37,1.67.6,2.3.62.4,1.59.6,1.47,1.68a15.43,15.43,0,0,1-4.23.3,1.55,1.55,0,0,0-1.68,1.07c.08-2.25-.93-4.21-1.65-6.26.33-.25.65-.09,1,0,.61.24,1.25,1,1.87.36a6.21,6.21,0,0,0,1.84-3.43c.08-.9-1.15-1.16-1.87-1.59s-1,.21-1.35.67C512,512.32,511.82,513.62,510.8,514.39Z" transform="translate(-406.38 -390.35)"/><path class="cls-6" d="M424.11,626.11a2.17,2.17,0,0,1,.62-1.44c1.11-.12,1.54.85,2.16,1.44s1.45.77,2-.07c.77-1.19,2.59-1.91,1.78-3.9-.16-.37.41-.38.75-.24a17.85,17.85,0,0,1,3.41.41c.16.27,0,.55,0,.82-.13,1,.55,1.48,1.17,1.94s1.11-.26,1.63-.55c.94-.51,1.36-1.93,2.8-1.57a6.85,6.85,0,0,1,2.73.38c.19.14,0-.07.13.11,1.27,1.71,2.61,1.66,4,.22l2.77.06a3.45,3.45,0,0,1,2.49,1.33c.55.71,1.1.74,1.64,0a3.65,3.65,0,0,1,2.83-1.33l1.39-.07c.15.17.22.4.35.58,1.79,2.43,1.94,2.44,4.14.47.39-.35.73-.92,1.43-.65a16.32,16.32,0,0,0-.43,2.76c-1.39,1.66-1.39,1.66.46,3.45a15.6,15.6,0,0,0,2.4,4.52c-.12.13-.23.26-.35.38-.85.36-1.3-.23-1.71-.77-.95-1.25-2.21-2.21-3.15-3.46a1.07,1.07,0,0,0-1.77-.16c-.57.51-1.21,1-.57,1.88.3.41.87.92.56,1.35s-1.14.3-1.75.13l-3.76-.43c-.44-.47-.09-.87.18-1.21a1.22,1.22,0,0,0-.18-1.82c-.41-.42-.7-1.33-1.45-.81s-2,.93-1.57,2c.61,1.61-.27,1.43-1.24,1.39a1.41,1.41,0,0,1-.67-.13L448,633c-.32-.22-.75,0-1.07-.26h0c-.25-.59.35-1.14,0-1.82-1.17-2.06-2-2.26-3.67-.61-1,1-2,2-3.59,1.39l-1-.1a6,6,0,0,0-4.9-.59l-1.33-.1c-.43-1.32.69-2,1.35-2.67.9-1,.25-1.5-.28-2.16-.73-.92-1.15-.13-1.63.29a7,7,0,0,1-.62.6c-1.36.88-1.44,2.2-1.29,3.62h-.17l-.16,0c-.56-.31-1.22,0-1.78-.26l-1-.07c-.17-.15-.6-.15-.59-.24.14-1.27-.9-1.79-1.56-2.53A2.76,2.76,0,0,1,424.11,626.11Z" transform="translate(-406.38 -390.35)"/><path class="cls-6" d="M542.45,675.72a9.58,9.58,0,0,0-4.86,5l-.31-.14c-.43-.37,0-.94-.34-1.33v-.69c.21-.41.15-.94.39-1.31A3,3,0,0,0,537,673c-.89-1-.55-2.89.07-4.29a2,2,0,0,0-.09-2.24c-.56-.75-.07-1.7-.42-2.5,0-.81,0-1.62,0-2.43.31-.54.43-1.18.79-1.71a1,1,0,0,0,0-1.43c-1.11-.94-.9-2.26-1.13-3.46,0-.35,0-.69,0-1a9.74,9.74,0,0,1,3.12-4.9l2.38.07c.2.13.43.2.64.31,1.1,1.53,2,.32,3-.15a10,10,0,0,1,1.45,0c.76,1-.23,1.45-.59,2.07s-.91,1.21-.18,2,1.2.32,1.74-.2c.2-.19.53-.44.77-.23.45.39.27.93.12,1.42-.13,1.25-.27,2.51-.4,3.77-2,.25-2.54,2.05-3.52,3.35-.29.38-.08.77.27,1s.8.9,1.49.49c.33-.19.6-.56,1.06-.35a12.41,12.41,0,0,1-.36,2.42c-.31.43,0,1-.27,1.44a.63.63,0,0,1,0,.3c-.31.26-.44.67-.73.94-1.31,1.23-1.56,2.51-.27,3.92a3,3,0,0,1-.37,1.75c-.37.21-.63-.05-.92-.21-.53-.3-1-1.23-1.7-.48-.57.59-1.16,1.31-.65,2.27A.85.85,0,0,1,542.45,675.72Z" transform="translate(-406.38 -390.35)"/><path class="cls-7" d="M550.14,514c1.52-1.73,1.29-3.42-.72-5.25a.82.82,0,0,1-.37-1.38h0a3.44,3.44,0,0,1,2.08-.05,12.28,12.28,0,0,1,7.33,4.9c1.15.89.65,2,.51,3.15-.15,1.48.61,2.79.8,4.21a1.07,1.07,0,0,1-.33,1,7.2,7.2,0,0,1-1,0,2.09,2.09,0,0,0-2.64,1.69,4.08,4.08,0,0,1-4.66,2.4,4.35,4.35,0,0,1-3.44-4.16.54.54,0,0,1,0-.18c.65-1.7-.17-2.87-1.4-3.9.41-.34,1-.27,1.4-.69A4.24,4.24,0,0,1,550.14,514Z" transform="translate(-406.38 -390.35)"/><path class="cls-5" d="M504.89,543.59a20.54,20.54,0,0,0-4.22,1.27,15.17,15.17,0,0,1-8.68.27c-1.69-.42-2.92-3.43-1.82-4.69,1.53-1.76,2-4,2.75-6.08.54-1.46,1.23-1.77,2.67-1.25a10.22,10.22,0,0,1,1.57.74,9.1,9.1,0,0,0,5.29,1.28c.4,0,.8,0,1.21.07.41,1.61.1,3.25.14,4.87C503.83,541.36,503.64,542.69,504.89,543.59Z" transform="translate(-406.38 -390.35)"/><path class="cls-7" d="M566.8,544.66c.2-1.6,1.23-2.84,1.87-4.24a16.83,16.83,0,0,0,1.07-2.9,1.29,1.29,0,0,0-.46-1.49c-1.07-1-1-1.82.31-2.56.58-.33,1-.75.91-1.31-.2-1,0-2.07-.64-3,.49-1.64,2.25-1.83,3.27-2.86.13-.09.26-.18.4-.26.7-.38,1.32-.9,2-1.31,1.06-.39,1.94-.43,2,1.06a5.35,5.35,0,0,0,.41,2c1.18,5-.56,8.95-4.24,12.19a13.06,13.06,0,0,1-5.43,3.25C567.51,543.46,567.39,544.29,566.8,544.66Z" transform="translate(-406.38 -390.35)"/><path class="cls-6" d="M575.46,525.14a5.82,5.82,0,0,1-1.78,1.28c-.68-.91-.65-2.06-.95-3.09s-.74-1.06-1.55-.81-1.43.35-1.3,1.43c.24,2,.65,2.46,2.71,2.31a.85.85,0,0,1,.79.23c-1,1.18-2.53,1.55-3.52,2.7-1.76.81-3.13,2.22-4.83,3.12a1.7,1.7,0,0,0-2.37-.64,2.58,2.58,0,0,1-2.15.35c0-.58,0-1.16,0-1.74a2.08,2.08,0,0,1,.91-.74c.78-.33,2.11-.12,1.71-1.73-.52-2.07-.77-2.34-2.58-2.29a.65.65,0,0,1-.32-.11c0-.56-.07-1.13-.11-1.69.21-.57,1.22-.58,1-1.41s-.83-.63-1.38-.69c-.3-.28-.26-.67-.33-1v-1c.68-1.61-.64-2.77-.94-4.16.12-1.06.54-2.13,0-3.18a1,1,0,0,1,.7.29c1.3,1.15,1.81,2.78,2.49,4.28.48,1.06,1,1.54,2.21,1.15,1.08-.35,1.83-.66,1.37-2-.12-.34-.3-1,.49-.93a37.53,37.53,0,0,1,5.19,2.79c.05.92-.75.87-1.28,1.08s-.87.42-.67,1,.71.4,1.16.44c1.21.12,1.33-1.25,2.23-1.53l3.06,2.15C574.79,522.35,575.56,523.74,575.46,525.14Z" transform="translate(-406.38 -390.35)"/><path class="cls-3" d="M504.89,543.59l-1.41-.13c0-2.77-.43-5.52.18-8.26l12.4-1.16c.94.34.93,1,.38,1.6-1.75,1.91-3.18,4.06-4.77,6.1-.7.9-1.74,1-2.73,1.23Z" transform="translate(-406.38 -390.35)"/><path class="cls-8" d="M431.41,621.9c-.33.09-.78.2-.32.61.7.64.58,1.13-.07,1.7-.95.83-1.52,2-2.48,2.83a.82.82,0,0,1-1.32,0,17.86,17.86,0,0,0-2.49-2.35c0-1.25,1.15-2.14,1.06-3.42A26.54,26.54,0,0,1,431.41,621.9Z" transform="translate(-406.38 -390.35)"/><path class="cls-8" d="M518.85,520.22a8,8,0,0,0-2.44-1.84c-.66-.47-.78-.89-.38-1.57.64-1.09,1.24-2.2,1.84-3.3a.61.61,0,0,1,1-.2c.92.68,1.82,1.38,2.74,2.07.38.29.22.62,0,.91-.39.63-.84,1.23-1.21,1.87a4.88,4.88,0,0,0-.89,2Z" transform="translate(-406.38 -390.35)"/><path class="cls-8" d="M525.45,508.12c0,.05-.08.11-.07.15.77,2.41-1.24,3.67-2.21,5.35a.62.62,0,0,1-.93.13c-.38-.26-.75-.52-1.12-.8-.6-.45-1.47-.72-1.65-1.46s.45-1.36.85-2-.08-.67-.48-.79a1.79,1.79,0,0,1,.63-.23C522.15,508.54,523.79,508.2,525.45,508.12Z" transform="translate(-406.38 -390.35)"/><path class="cls-8" d="M565.72,515c-.6.5,0,1,.07,1.41.28,1.23.26,1.43-1,1.67-.89.17-1.77.95-2.63.57s-.74-1.5-1.15-2.25c-.69-1.27-1.27-2.6-1.89-3.9A67.54,67.54,0,0,1,565.72,515Z" transform="translate(-406.38 -390.35)"/><path class="cls-8" d="M458.06,634.12c.49-.13,1,.13,1.48-.17.08-.29-.15-.43-.27-.61-.37-.54-1.19-1.09-.84-1.71a4.23,4.23,0,0,1,2.17-1.9c.56-.21.88.22,1.11.59,1,1.63,2.72,2.64,3.71,4.29a1.25,1.25,0,0,0,1,.54.82.82,0,0,1-.94.26,42.4,42.4,0,0,0-7-1C458.36,634.35,458.21,634.2,458.06,634.12Z" transform="translate(-406.38 -390.35)"/><path class="cls-8" d="M430,630.59a.9.9,0,0,0,0-.34c-.86-1.49-.87-1.54.34-2.83.71-.76,1.47-1.48,2.19-2.23.38-.39.7-.31,1,.07.53.68,1.05,1.37,1.6,2.09-.87,1.19-2.16,2.08-2.61,3.56Z" transform="translate(-406.38 -390.35)"/><path class="cls-8" d="M535.86,507.07c-1.25.9-1.82,2.34-2.79,3.46a5.6,5.6,0,0,0-.59.85c-.28.46-.58.47-1,.14-.89-.72-1.8-1.42-2.7-2.13-.09-.07-.25-.16-.25-.22.1-1.45-1-1-1.76-1.13,1.15-.63,2.45-.33,3.67-.55A53.83,53.83,0,0,1,535.86,507.07Z" transform="translate(-406.38 -390.35)"/><path class="cls-8" d="M439.65,631.7a3.08,3.08,0,0,0,2.84-1.24,22.36,22.36,0,0,1,1.8-1.58c.75-.75,1.17-.39,1.65.19.65.79,1.29,1.59,1.94,2.39l-.93,1.28C444.49,632.54,442.07,632.11,439.65,631.7Z" transform="translate(-406.38 -390.35)"/><path class="cls-9" d="M449.37,633.09l1.83-.11c.06-.51-.33-.67-.51-.94a.78.78,0,0,1,.18-1.21,11.93,11.93,0,0,0,1.82-1.58c.45-.43.83-.28,1.18.13a4.38,4.38,0,0,1,.49.7c.33.6,1.21.88,1.17,1.63s-.83.92-1.12,1.48a1.65,1.65,0,0,0-.11.5C452.68,633.28,451,633.7,449.37,633.09Z" transform="translate(-406.38 -390.35)"/><path class="cls-10" d="M548.74,654.27l-.12-1.18c-.61,0-.78.5-1,.88-.42.69-.86.61-1.35.08a8.38,8.38,0,0,0-.73-.73,1,1,0,0,1-.13-1.57,6.4,6.4,0,0,0,1.59-2.37.62.62,0,0,1,.37-.32c.71,0,1.35-.49,2.09-.33C549.16,650.57,549.27,652.46,548.74,654.27Z" transform="translate(-406.38 -390.35)"/><path class="cls-8" d="M547.64,662.57c-.68.2-.84,1.32-1.52,1.19s-1-.84-1.62-1.2-.46-.84-.15-1.29c.77-1.14,1.57-2.25,2.35-3.38.25-.36.51-.42.84-.13a1.17,1.17,0,0,0,.8.28A30.25,30.25,0,0,1,547.64,662.57Z" transform="translate(-406.38 -390.35)"/><path class="cls-10" d="M529.26,519.16c.81-1.26,1.59-2.54,2.43-3.77.64-.93.89-.93,1.77-.16.35.31.66.65,1,1,1,1,1,1,.06,2.14a2.56,2.56,0,0,1-.66.09,4.17,4.17,0,0,0-3.23,1C530.23,519,529.71,519.28,529.26,519.16Z" transform="translate(-406.38 -390.35)"/><path class="cls-8" d="M464.37,624a19.72,19.72,0,0,0-2.77,2.55c-.44.4-.75.62-1.23,0a14.89,14.89,0,0,0-1.78-1.86.81.81,0,0,1-.14-1.08c2.06-.58,4.16-.31,6.25-.3A.86.86,0,0,1,464.37,624Z" transform="translate(-406.38 -390.35)"/><path class="cls-11" d="M536.6,664a1,1,0,0,1,.29.78,1.89,1.89,0,0,0,.73,1.83c.74.54.65,1.16.18,1.79a4,4,0,0,0-.91,2.37,3.2,3.2,0,0,0,1.21,3c1.13.86,1.07,1.16.36,2.33-.5.83-1,1.66-1.53,2.49C536.78,673.67,536.41,668.81,536.6,664Z" transform="translate(-406.38 -390.35)"/><path class="cls-8" d="M440.43,623a2.43,2.43,0,0,0-1.43.88,12.43,12.43,0,0,1-1.12,1.06c-1.58,1.24-1.58,1.24-3-.28-.91-1-.91-1-.09-2.3C436.67,622.66,438.59,622.47,440.43,623Z" transform="translate(-406.38 -390.35)"/><path class="cls-9" d="M542.45,675.72c-.18-.6-1.16-.85-.88-1.55a10.94,10.94,0,0,1,1.39-2.34c.25-.36.65-.05.91.13.6.43,1.16.92,1.73,1.38l-.09,2.4A4.2,4.2,0,0,0,542.45,675.72Z" transform="translate(-406.38 -390.35)"/><path class="cls-9" d="M575.46,525.14c-.64-.86-.56-1.95-.91-2.9-.29-.79.62-.84.86-1.3.74.55,1.52,1,2.21,1.65,1.39,1.2,1.35,1.86-.07,3.22A1.31,1.31,0,0,0,575.46,525.14Z" transform="translate(-406.38 -390.35)"/><path class="cls-12" d="M543.89,507c-.26.08-.47.11-.53.51-.18,1.18-1.25,1.7-2,2.46-.23.23-.54.08-.77-.12-1-.9-2.28-1.58-3-2.8,1.94-.16,3.91.13,5.84-.26C543.56,506.76,543.74,506.91,543.89,507Z" transform="translate(-406.38 -390.35)"/><path class="cls-13" d="M539.36,649l-3.12,4.9c0-2-.41-4-.29-6A14.19,14.19,0,0,1,539.36,649Z" transform="translate(-406.38 -390.35)"/><path class="cls-14" d="M424.11,626.11c.52.59,1,1.18,1.56,1.76s1.31.94.74,1.91c0,.05.29.3.44.46a19,19,0,0,1-4.49-.68C422.94,628.41,423.52,627.26,424.11,626.11Z" transform="translate(-406.38 -390.35)"/><path class="cls-9" d="M521.31,519.92c.21-.34.42-.67.62-1,1.39-2.36,1.5-2.48,3.37-.64,1.14,1.13,2.4.77,3.64.94a1.93,1.93,0,0,1-.62.25C526,519.35,523.66,519.93,521.31,519.92Z" transform="translate(-406.38 -390.35)"/><path class="cls-11" d="M572.35,518.79a.62.62,0,0,0-.23.75c.2.89-.56.93-1.07,1-.8.09-1.68.91-2.42.07a1.2,1.2,0,0,1,.76-2.09,2.21,2.21,0,0,0,1.52-.7A3.15,3.15,0,0,1,572.35,518.79Z" transform="translate(-406.38 -390.35)"/><path class="cls-15" d="M457.06,623.71c-1.36.21-2.16,1.22-3,2.12-.47.48-.8.49-1.27,0a6.9,6.9,0,0,0-2.67-2.11Z" transform="translate(-406.38 -390.35)"/><path class="cls-16" d="M546,671.59a3.35,3.35,0,0,1-.45-.27c-1.51-1.34-1.56-1.44-.24-3,.48-.58.66-1.56,1.69-1.57A21.87,21.87,0,0,1,546,671.59Z" transform="translate(-406.38 -390.35)"/><path class="cls-8" d="M433.76,631a8.79,8.79,0,0,0,1.77-1.62c.53-.54,1-.53,1.4.08.49.79,1.18,1.4,1.73,2.13A24.4,24.4,0,0,1,433.76,631Z" transform="translate(-406.38 -390.35)"/><path class="cls-17" d="M536.25,654.92a1,1,0,0,1,.29.94,2.13,2.13,0,0,0,.8,1.78c1.2,1.24,1.19,1.27.2,2.72-.28.41-.43.94-.95,1.16A38.28,38.28,0,0,1,536.25,654.92Z" transform="translate(-406.38 -390.35)"/><path class="cls-16" d="M447.33,623.66a3.43,3.43,0,0,1-1,1.16c-1.13,1.12-1.36,1.1-2.34-.21-.3-.41-.56-.85-.85-1.28C444.56,623.42,446,623.08,447.33,623.66Z" transform="translate(-406.38 -390.35)"/><path class="cls-18" d="M549.05,507.37a2.05,2.05,0,0,0,.37,1.38c-1.08,1.18-1.09,1.2-2.25,0-.5-.51-1.2-.89-1.25-1.72A8.28,8.28,0,0,1,549.05,507.37Z" transform="translate(-406.38 -390.35)"/><path class="cls-13" d="M512.25,509.5a2.85,2.85,0,0,0-1.75,1.71c-.17.45-.35,1-1,1a8.23,8.23,0,0,1-1.08-2.4C509.7,509.88,510.94,509.29,512.25,509.5Z" transform="translate(-406.38 -390.35)"/><path class="cls-8" d="M427.85,630.31c.61,0,1.24-.22,1.78.27A2.41,2.41,0,0,1,427.85,630.31Z" transform="translate(-406.38 -390.35)"/><path class="cls-11" d="M536.94,679.22c.42.36.27.87.34,1.33C536.73,680.21,536.89,679.7,536.94,679.22Z" transform="translate(-406.38 -390.35)"/><path class="cls-8" d="M519.89,520.18c.41-.43.92-.29,1.42-.26C520.9,520.35,520.38,520.23,519.89,520.18Z" transform="translate(-406.38 -390.35)"/><path class="cls-16" d="M547,666.43c0-.51-.17-1,.27-1.44A1.72,1.72,0,0,1,547,666.43Z" transform="translate(-406.38 -390.35)"/><path class="cls-8" d="M447,632.73A1.1,1.1,0,0,1,448,633,1,1,0,0,1,447,632.73Z" transform="translate(-406.38 -390.35)"/><path class="cls-19" d="M464.4,630.25c-.66-.12-2.27-1.41-2.27-1.85a.66.66,0,0,1,.2-.43c.49-.45.83-1.12,1.61-1.17A25.07,25.07,0,0,0,464.4,630.25Z" transform="translate(-406.38 -390.35)"/><path class="cls-20" d="M547.36,649.06l-.37.32-1.79,0a2.78,2.78,0,0,1-3.11,0l-.35-.31,2.46,0Z" transform="translate(-406.38 -390.35)"/><path class="cls-10" d="M538.66,517.82c-.76-.44-.95-1-.28-1.66a27.85,27.85,0,0,0,2.14-2.47c.68-.85,1-.85,1.88-.22a3.72,3.72,0,0,1,.51.46c1.09,1,1.09,1.05,0,2.16-.4.42-.77.85-1.16,1.28A11,11,0,0,1,538.66,517.82Z" transform="translate(-406.38 -390.35)"/><path class="cls-21" d="M560.22,525.41c2.46-1,2.15-1,3,1.29,0,0,0,.11,0,.16.82,2.45.82,2.45-1.78,3.09-.33.09-.64.22-1,.33A19.37,19.37,0,0,1,560.22,525.41Z" transform="translate(-406.38 -390.35)"/><path class="cls-13" d="M560.51,532c.86-.31,1.71-.63,2.58-.92,1.57-.52,1.57-.51,1.94,1.21l-2.78,2.18c-1.54.33-1.25-1.09-1.72-1.79C560.53,532.48,560.52,532.25,560.51,532Z" transform="translate(-406.38 -390.35)"/><path class="cls-22" d="M542.44,524.73a1.47,1.47,0,0,1-1.63,1.4,1.45,1.45,0,0,1-1.46-1.4,1.55,1.55,0,1,1,3.09,0Z" transform="translate(-406.38 -390.35)"/><path class="cls-23" d="M559.77,521.62c.36-.37.81-.84,1.29-.44a2.43,2.43,0,0,1,.77,1.66.49.49,0,0,1-.41.48l-1.31.4C559.65,523.07,559.88,522.32,559.77,521.62Z" transform="translate(-406.38 -390.35)"/><path class="cls-24" d="M560.53,532.7c.66.52.73,1.6,1.72,1.79-.29.42-.59,1-1.13.85s-.55-.78-.58-1.28S560.53,533.16,560.53,532.7Z" transform="translate(-406.38 -390.35)"/><path class="cls-8" d="M510.8,514.39a18.29,18.29,0,0,1,2.13-4.15.64.64,0,0,1,1-.24c.78.49,1.55,1,2.34,1.49a.75.75,0,0,1,.25,1.17c-.67,1.15-1.37,2.28-2,3.44-.34.62-.71.56-1.27.31s-1.21-.91-2-1.08C511.13,515,511,514.7,510.8,514.39Z" transform="translate(-406.38 -390.35)"/><path class="cls-8" d="M527.93,518.11c-.4-.24-.58-.37-.78-.47-.95-.46-1.53-1.38-2.39-2-.44-.29-.38-.69-.15-1.06.71-1.18,1.43-2.36,2.18-3.51.38-.61.82-.59,1.43-.17s1.24,1,1.87,1.52c1,.77,1,.82.41,1.77s-1.4,2.11-2.1,3.16C528.24,517.63,528.08,517.87,527.93,518.11Z" transform="translate(-406.38 -390.35)"/><path class="cls-8" d="M539.92,511.7a1.87,1.87,0,0,1-.17.37c-.9,1.1-1.8,2.21-2.72,3.3a.58.58,0,0,1-.91,0,28.59,28.59,0,0,1-2.25-1.87.82.82,0,0,1-.08-1.2c.68-.92,1.28-1.9,1.92-2.86.41-.62.94-.86,1.58-.34.84.69,1.65,1.41,2.46,2.14C539.86,511.39,539.87,511.59,539.92,511.7Z" transform="translate(-406.38 -390.35)"/><path class="cls-12" d="M542.59,511.33c.56-.7,1.12-1.42,1.7-2.12a.68.68,0,0,1,1.17,0l.25.24c1.77,1.61,1.75,1.92,0,3.59-.58.54-1,.67-1.56,0A10.26,10.26,0,0,1,542.59,511.33Z" transform="translate(-406.38 -390.35)"/><path class="cls-25" d="M550.14,514c-.57,1-1.6,1.24-2.48,1.74-1.45-.68-1.51-.74-.63-1.85C548.72,511.77,548.51,512.09,550.14,514Z" transform="translate(-406.38 -390.35)"/><path class="cls-8" d="M440.17,630.5c-.62,0-2.64-2.67-2.46-3.13A1.32,1.32,0,0,1,438,627l2.56-2.55c.34-.34.71-.4,1,0,.72.8,2,1.36,2.07,2.42.09.88-1.1,1.36-1.69,2-.42.48-.89.9-1.35,1.34A3.28,3.28,0,0,1,440.17,630.5Z" transform="translate(-406.38 -390.35)"/><path class="cls-12" d="M449.23,624.51c1.07.64,1.48,1.81,2.34,2.57.41.36.11.72-.17,1-.65.73-1.28,1.47-2.07,2.37-1-1.08-1.79-1.92-2.6-2.73-.49-.5-.37-.92.1-1.31C447.62,625.8,448.42,625.16,449.23,624.51Z" transform="translate(-406.38 -390.35)"/><path class="cls-12" d="M457.13,625.37c.35.45.62.82.9,1.19.45.58,1.48,1,1.28,1.71-.23.92-1.22,1.46-1.93,2.12a.41.41,0,0,1-.61-.06c-.58-.64-1.15-1.29-1.74-1.92s-.43-1.14.15-1.61S456.29,626,457.13,625.37Z" transform="translate(-406.38 -390.35)"/><path class="cls-12" d="M542.57,652.91a2.13,2.13,0,0,1-.27.51,32.74,32.74,0,0,0-2.35,3.37c-.4.6-.8.56-1.25.09-.12-.13-.24-.24-.37-.36-1.17-1.13-1.16-1.13-.26-2.52.62-1,1.21-1.94,1.84-2.9.34-.53.73-.69,1.22-.13s.8.82,1.2,1.23A.69.69,0,0,1,542.57,652.91Z" transform="translate(-406.38 -390.35)"/><path class="cls-12" d="M542.26,660.54c-.33-.37-.86-.89-1.32-1.48s0-.88.27-1.25c.65-1,1.35-2,2-3,.38-.58.78-.61,1.25-.13.32.34.64.67,1,1a.67.67,0,0,1,.16.92q-1.23,1.88-2.49,3.73C543,660.48,542.82,660.65,542.26,660.54Z" transform="translate(-406.38 -390.35)"/><path class="cls-12" d="M539.89,660.3a7.16,7.16,0,0,1,1.63,1.57c.41.5-.13.83-.35,1.19a9.94,9.94,0,0,1-.76,1.15c-.36.49-.56,1.4-1.2,1.29s-1.13-.74-1.66-1.16a.56.56,0,0,1-.09-.79c.65-1,1.31-2,2-3C539.54,660.42,539.74,660.38,539.89,660.3Z" transform="translate(-406.38 -390.35)"/><path class="cls-12" d="M543.2,663.68c.63.23,1,.9,1.57,1.37s.21.83,0,1.22-.44.67-.66,1c-1.22,1.82-1.32,1.82-2.79.23-.46-.5-.6-.87-.12-1.45s.81-1.24,1.24-1.85A1.16,1.16,0,0,1,543.2,663.68Z" transform="translate(-406.38 -390.35)"/><path class="cls-12" d="M539.93,672.88a1.83,1.83,0,0,1-1.41-2.71c.06-.1.15-.18.21-.27,1-1.55,1-1.52,2.42-.36.54.43.74.85.37,1.46s-.66,1.07-1,1.59A.61.61,0,0,1,539.93,672.88Z" transform="translate(-406.38 -390.35)"/><path class="cls-17" d="M542.09,649.36l3.11,0C543.67,651.37,543.67,651.37,542.09,649.36Z" transform="translate(-406.38 -390.35)"/><path class="cls-26" d="M558.5,515.4c1.13.91,1.31,2.32,1.81,3.54.28.67-.49.53-.87.62A10.15,10.15,0,0,1,558.5,515.4Z" transform="translate(-406.38 -390.35)"/><path class="cls-12" d="M573.38,526.49l-1.84.4c-1.15.26-1.32.19-1.61-.81-.23-.83-.4-1.67-.62-2.5a.91.91,0,0,1,.16-1,8.61,8.61,0,0,1,3.11-.76.63.63,0,0,1,.38.52c.19,1.36.88,2.62.72,4A1.09,1.09,0,0,1,573.38,526.49Z" transform="translate(-406.38 -390.35)"/><path class="cls-12" d="M564.1,524.31c3.47-1.59,3.66-1.49,4.33,2.13.19,1,0,1.32-.95,1.7a7.67,7.67,0,0,1-1.15.36c-.43.09-.81,0-1-.48A33.9,33.9,0,0,1,564.1,524.31Z" transform="translate(-406.38 -390.35)"/><path class="cls-12" d="M567.05,521.05c0,.43-.33.6-.65.71-.59.2-1.22.32-1.8.53-.74.27-1.28.36-1.5-.66s-.23-1.15.73-1.52c.48-.19,1-.36,1.46-.51C566.41,519.26,567.14,519.88,567.05,521.05Z" transform="translate(-406.38 -390.35)"/><path class="cls-2" d="M501.35,483a36.21,36.21,0,0,1-4.38-6.44,13.16,13.16,0,0,1-1.42-6.16c0-6.64,1.58-13.05,2.91-19.49a60.5,60.5,0,0,0,1.33-13.08c-.05-3.24.12-6.49-.14-9.71-.47-5.94-.3-11.9-.56-17.84-.23-5.28,3.68-11.91,8-14.64a8.63,8.63,0,0,1,6.84-1.06,28.19,28.19,0,0,0,10.83,0c7.14-1.1,14.28-2.22,21.5-2.61a77.16,77.16,0,0,1,8.33,0,11.09,11.09,0,0,1,3.37,1.68,103.17,103.17,0,0,0,9.72,6,2.43,2.43,0,0,1,1.44,3.07,5.12,5.12,0,0,0,3,6.14c2.16.94,4.7.13,6.31-2.22a2.12,2.12,0,0,1,2.9-.9,103.58,103.58,0,0,0,19.19,4.53c.65.09,1.49,0,1.44,1.06a25.55,25.55,0,0,1-5.81,3.36c-6.57,3.26-13,6.73-19.7,9.79-2.88,1.32-5.74,2.7-8.54,4.22-6.69,3.33-13.13,7.12-19.66,10.74a16.07,16.07,0,0,0-2,1.44c-3.3,2.32-6.58,4.7-9.83,7.09-4.25,3.12-5.07,7.5-4.93,12.43.2,7.05,3.39,13.12,5.89,19.43.4,1,.82,2,1.28,3,.26,1.14,1.63,2.12.48,3.46-1.87.95-4,.78-5.93.87-9.83.44-19.59,0-29.07-3A11.4,11.4,0,0,1,501.35,483Z" transform="translate(-406.38 -390.35)"/><path class="cls-27" d="M634.13,440.29c3.07.64,6,1.86,8.94,2.75a25.51,25.51,0,0,0,2.11,6.56,67.74,67.74,0,0,1,5.46,17.82,14.7,14.7,0,0,1-.16,4.49,23.81,23.81,0,0,1-7,13.65,57.24,57.24,0,0,1-5.83,5.18c-4.88,3.69-9.51,7.73-14.49,11.3-.37.27-.77.51-1.15.76a36.55,36.55,0,0,1-11.72,3.25c-.49-1.14.58-1.34,1.15-1.64,4.13-2.14,7.66-5.17,11.51-7.7a29.8,29.8,0,0,0,7.3-7.56,48.12,48.12,0,0,0,5.34-9.69c3-6.85,1.87-13.29-2.07-19.42a10.52,10.52,0,0,1-1.52-3.1,2.6,2.6,0,0,1,.4-1.73c.72-.68-.24-1.24-.15-1.87a13.14,13.14,0,0,0,.84-3.08c.77-1.28,2.19-1.27,3.41-1.61.92-.26,1.42-.62,1-1.64-.27-2.2-.27-2.2-2.46-2.51a2,2,0,0,1-1-.32A3.4,3.4,0,0,1,634.13,440.29Z" transform="translate(-406.38 -390.35)"/><path class="cls-28" d="M610.12,505.91c3.53-.73,7-1.8,10.44-2.76a3.5,3.5,0,0,1,1.49-.35c-5.85,4.78-11.37,10-18.11,13.58-.66.35-1.28.78-1.93,1.16a41.75,41.75,0,0,1-16.88,5.84,20.07,20.07,0,0,1-9-1,7.21,7.21,0,0,1-4.13-3.7,10.66,10.66,0,0,0,2.7-5.46c.36-2,.6-2.13,2.75-2.32a103.93,103.93,0,0,0,19-1.08,23,23,0,0,0,6-1.67,14.47,14.47,0,0,0,4.51-1.47A4.71,4.71,0,0,1,610.12,505.91Z" transform="translate(-406.38 -390.35)"/><path class="cls-29" d="M561.53,513.81a16.36,16.36,0,0,1-4.82-1.31,44.43,44.43,0,0,0-12.38-3.13c-2.63-.34-5.27-.66-7.92-.83a38.9,38.9,0,0,0-6.57.08c-3.31.34-5.7-1.11-7.81-3.32a28.56,28.56,0,0,1-2.17-2.91c-.35-.69.1-1.11.57-1.45,5.92-4.24,11.8-8.57,18.94-10.65a2.31,2.31,0,0,1,1.35-.15c1.16,1.68,1.78,3.63,2.78,5.4a33.5,33.5,0,0,0,7,8.76,87.55,87.55,0,0,0,10.69,8.8C561.42,513.26,561.63,513.47,561.53,513.81Z" transform="translate(-406.38 -390.35)"/><path class="cls-30" d="M540.7,490.23c-2,.87-4,1.35-6,2.25a66.44,66.44,0,0,0-8.77,5.08c-1.82,1.21-3.56,2.52-5.36,3.76a1.41,1.41,0,0,0-.75,1.07,103.43,103.43,0,0,0-10.41-11.72c-1.8-1.72-3.83-3.14-5.64-4.83a9.88,9.88,0,0,1-2.46-2.85,11.27,11.27,0,0,1,3.66.88,83.77,83.77,0,0,0,13.33,2.61,117.68,117.68,0,0,0,15,.21,28.26,28.26,0,0,0,6-.61C540.73,487.16,540.72,488.69,540.7,490.23Z" transform="translate(-406.38 -390.35)"/><path class="cls-31" d="M561.53,513.81a97.16,97.16,0,0,1-10.18-8.15,55.46,55.46,0,0,1-6.89-7.65,13,13,0,0,1-1.3-2.22c.63-.46,1.07.09,1.56.31,5.9,2.75,11.45,6.24,17.63,8.42,4.13,1.46,8.2,3.1,12.17,5,1,.45,2.29.55,2.63,1.91-1.74.09-1.77.09-2,1.82a11,11,0,0,1-1.38,4c-.41.7-.85,1.39-1.78,1.45a4.37,4.37,0,0,0-1.31-.81c-2.17-.77-4.33-1.59-6.49-2.4C563.16,515.11,562.48,514.25,561.53,513.81Z" transform="translate(-406.38 -390.35)"/><path class="cls-32" d="M639,408.29h0a27.77,27.77,0,0,0-2.31-5c-1.06-1.81-2.62-3.22-3.77-4.95a12.59,12.59,0,0,0-7.44-5,56.18,56.18,0,0,0-14.37-1.92c-6.69-.14-13.38-.59-20.09-.49a26.4,26.4,0,0,1-5.19-.13,41.84,41.84,0,0,0-11.72-.08c-3.55.34-7.13.45-10.67.94a86.77,86.77,0,0,1-8.82.32c2.65,1.74,5.28,3.51,8,5.2,1.8,1.14,3.66,2.21,5.53,3.24.71.4,1.13.76.68,1.6a2.93,2.93,0,0,0-.22.65,5.62,5.62,0,0,0,5.94,7,5.43,5.43,0,0,0,4.6-3.23c.33-.65.64-.79,1.34-.54a92.9,92.9,0,0,0,20.67,4.85c.4.05.64.22.67.64.64.3,1.08-.2,1.57-.43,1.87-.86,3.75-1.69,5.58-2.63.73-.28,1.53-.23,2.25-.5a6.66,6.66,0,0,0,1.33-1.1,33.68,33.68,0,0,1,8.56-5.44c4.78-2,6-1.49,8.65,2.93,1,1.67,1.47,3.62,2.86,5.05,1.26.18,2.51.62,3.81.24a.54.54,0,0,0,0-.29l.11.06a10.76,10.76,0,0,0,2.66,0C639.25,408.94,639.31,408.58,639,408.29Z" transform="translate(-406.38 -390.35)"/><path class="cls-33" d="M577.15,511.39a31,31,0,0,0-6.36-3.06c-4.78-2-9.66-3.75-14.42-5.81-2.9-1.25-5.64-2.89-8.47-4.34-1.57-.81-3.16-1.59-4.74-2.39a27.36,27.36,0,0,1-2.46-5.56c-.66-1.31-.64-2.86-1.35-4.15a2.52,2.52,0,0,0-.48-1.75,2.29,2.29,0,0,1-.58-1.38,51.67,51.67,0,0,0-.71-6.46,4.74,4.74,0,0,1,1.75-5c1.07,1,2.23.46,3.38.21a502,502,0,0,1,54.34-10.79c6.12-.88,12.25-1.59,18.38-2.35a8,8,0,0,1,1.38,0c5.87,1.63,8.43,6.11,7.46,11.29s-3.24,10.11-5.38,15a70.81,70.81,0,0,1-6.67,12.73c-2.43,3.45-5.26,6.58-8,9.82a2.52,2.52,0,0,1-1.41.95c-1.83,1.51-4.13,1.67-6.3,2.06A98.39,98.39,0,0,1,577.15,511.39Z" transform="translate(-406.38 -390.35)"/><path class="cls-27" d="M539.59,471.52c-.39.49-.15,1.37-1.12,1.54-.59.1-.57.8-.52,1.32.16,1.7.35,3.4.51,5.1.11,1.16.54,2.35-.17,3.47-1.54-3.23-2.67-6.63-4.14-9.88a29.39,29.39,0,0,1-2.61-8.55c-.46-3.71-1-7.43.31-11.11A11.58,11.58,0,0,1,535.7,448a12.61,12.61,0,0,1,1.08-.85c3.23-2.1,6.1-4.71,9.49-6.58.7.8.28,1.65.08,2.46-1.21,4.93-2.88,9.74-3.71,14.76-.67,4-1.72,7.89-2.28,11.89C540.27,470.33,540.25,471.07,539.59,471.52Z" transform="translate(-406.38 -390.35)"/><path class="cls-34" d="M539.59,471.52c.36-3.61,1.37-7.1,1.95-10.67a179.21,179.21,0,0,1,4.3-17.75,6.69,6.69,0,0,0,.43-2.54c.85-1.28,2.25-1.81,3.49-2.5,5.5-3.07,11-6.06,16.59-9.07.45-.24.95-.4,1.43-.6a6.12,6.12,0,0,1,3.44-.28c.87.44.4.91,0,1.28a16.77,16.77,0,0,1-2.36,1.63c-.14.1-.29.18-.44.27a43.41,43.41,0,0,0-11.48,10.88,90.39,90.39,0,0,0-8,12.5,60.17,60.17,0,0,0-5.65,15,5.4,5.4,0,0,1-.75,2.45c-.56.14-1.11.3-1.67.42C539.78,472.77,539.77,472.77,539.59,471.52Z" transform="translate(-406.38 -390.35)"/><path class="cls-35" d="M553.87,403.86a2.65,2.65,0,0,1,2.74-2.87,3,3,0,0,1,3.16,2.78,3.11,3.11,0,0,1-2.88,3.12A2.77,2.77,0,0,1,553.87,403.86Z" transform="translate(-406.38 -390.35)"/><path class="cls-36" d="M553.05,416a1.61,1.61,0,0,1,1.43,1.27,1.38,1.38,0,0,1-1.3,1.33,1.32,1.32,0,0,1-1.32-1.15A1.41,1.41,0,0,1,553.05,416Z" transform="translate(-406.38 -390.35)"/><path class="cls-27" d="M632.36,409a44.75,44.75,0,0,1-6.55-.12,77.18,77.18,0,0,1-10.3-.84,13.78,13.78,0,0,0-2.23-.08l-2-.36A8.86,8.86,0,0,1,614,405c3.25-2.35,6.61-4.46,10.66-5.21a3,3,0,0,1,3.24,1.08C629.79,403.35,631.61,405.88,632.36,409Z" transform="translate(-406.38 -390.35)"/><path class="cls-5" d="M571.59,428.54a20.89,20.89,0,0,0,4.18.28c1,.61,2.24.34,3.36.57a28.41,28.41,0,0,0,5.15.42,66.58,66.58,0,0,1,7.2.78c3.36.43,6.69,1.08,10,1.61,4.66.74,9.23,1.91,13.81,3a10.55,10.55,0,0,1,2.8.8c4.65,3.17,9.43,6.14,14.28,9-.06,1.44-1.5,1.62-2.24,2.44a21.52,21.52,0,0,0-1.63,1.54c-.52.53-.92,1.07-.35,1.8a1.42,1.42,0,0,0,1.87.33c.75-.3,1.43-.74,2.2-1a1,1,0,0,1,1.13.13,10.67,10.67,0,0,1-.33,2.64.77.77,0,0,1-.63.67c-1.21.78-2.57-.21-4.07.29,1.45.91,3.2.12,4.28,1.35-.1.56-.2,1.13-.29,1.69-.3.72-.94.8-1.58.84a76.16,76.16,0,0,0-11.16,1.3c-.87.19-1.69-.38-2.55-.12-2.81.3-5.62.61-8.43.9-7.7.79-15.3,2.23-23,3.35-7.14,1-14.22,2.44-21.28,3.95s-14,3.14-20.9,4.88a8.61,8.61,0,0,1-1,.12,28.52,28.52,0,0,1,2.27-9c1-2.53,1.91-5.08,3.1-7.51a64.37,64.37,0,0,1,3.7-6.24c1.51-2.39,3-4.8,4.7-7.06a45,45,0,0,1,7.66-8.18c1.2-1,2.37-2,3.66-2.88a1.57,1.57,0,0,1,.94-.38c-.35,2.28-1.39,4.35-2,6.55-.36,2-.18,2.08,1.79,2.36,3.34.47,6.66-.11,10,.18a124.45,124.45,0,0,1,16.89,2.91,168.6,168.6,0,0,1,21,5.95,8.53,8.53,0,0,0,1.5.41c.48.09,1.12.48,1.42-.09s-.3-.93-.6-1.34a11.5,11.5,0,0,0-1.32-1.38c-2.34-2.41-5.39-3.77-8.25-5.34-7.36-4-15.33-6.39-23.53-8-5.1-1-10.21-2-15.46-1.75a1.71,1.71,0,0,1-1.44-.44C569.37,429.89,570.73,429.55,571.59,428.54Z" transform="translate(-406.38 -390.35)"/><path class="cls-34" d="M632.37,445.13a51.06,51.06,0,0,1-6.8-3.65c-2.29-1.42-4.46-3-6.68-4.54a1.79,1.79,0,0,1-.76-.91c3.29.57,6.52,1.44,9.74,2.31,2.12.57,4.19,1.27,6.26,2,0,1.33-.28,2.68.2,4A1.74,1.74,0,0,1,632.37,445.13Z" transform="translate(-406.38 -390.35)"/><path class="cls-37" d="M617.06,458.93c2.93-.48,5.85-1.05,8.81-1.35a47,47,0,0,0,6.48-.67,79.17,79.17,0,0,1,4.51,9,15.74,15.74,0,0,1,.84,6.76c-.32,4.67-2.44,8.56-4.47,12.6-1.83,3.63-4.51,6.54-7.08,9.56a16,16,0,0,1-3.12,2.46c-3,2.09-6,4.15-9,6.21-1.27.89-2.86,1.27-4,2.44-2.21.61-4.16,1.86-6.36,2.48-.34.1-.65.27-.91-.11,2.5-3,5.11-5.94,7.52-9a40.92,40.92,0,0,0,4.24-6.52,158.49,158.49,0,0,0,7.94-18.06,20.2,20.2,0,0,0,1.47-6.9c0-3-1-5.53-3.76-7.15A12.12,12.12,0,0,0,617.06,458.93Z" transform="translate(-406.38 -390.35)"/><path class="cls-38" d="M633.39,450.27c-1.37.11-2.4,1-3.64,1.47a1.42,1.42,0,0,1-1.8-.44c-.91-1.09-.93-1.39.12-2.43a8.16,8.16,0,0,1,1.92-1.69,7.76,7.76,0,0,1,4.57-.31,11,11,0,0,0,3.43.24c.32,1.4.27,1.47-.92,1.84S634.47,449.43,633.39,450.27Z" transform="translate(-406.38 -390.35)"/><path class="cls-39" d="M638,447.11c-.15.75-.63.86-1.27.68a22.4,22.4,0,0,0-6.73-.61c.66-.84,1.74-1.18,2.38-2.05l2-.86C637.62,443.51,637.88,443.71,638,447.11Z" transform="translate(-406.38 -390.35)"/><path class="cls-40" d="M617.49,446.15a7,7,0,0,1,2.08,2.28c.27.44.68.84.27,1.4s-.83.25-1.26.15a21,21,0,0,1-3.32-1,59.14,59.14,0,0,0-6.08-2c-4.78-1.3-9.55-2.65-14.39-3.74a105.24,105.24,0,0,0-14.07-2.61c-3.13-.27-6.28-.77-9.48-.2-1.48.26-3.07-.3-4.63-.27-.55,0-.81-.42-.85-.92a3.12,3.12,0,0,1,.33-2.18c2.56-1.6,5.5-1.75,8.35-1.83,11.95-.34,23.6,1.18,34.64,6.13A45.13,45.13,0,0,1,617.49,446.15Z" transform="translate(-406.38 -390.35)"/><path class="cls-41" d="M617.49,446.15c-1-.14-1.67-1-2.54-1.41a79,79,0,0,0-21.27-7.61c-3.28-.62-6.61-.83-9.93-1.12-2.37-.21-4.72-.21-7.08-.29a34.72,34.72,0,0,0-9.57,1.22c-.33.09-.68.12-1,.18.5-1.47,1-2.93,1.5-4.41a5.22,5.22,0,0,1,.92-1.82h.17c5.22-.34,10.33.5,15.45,1.41a107.63,107.63,0,0,1,15.52,4.16,53.73,53.73,0,0,1,11.88,5.6,51.23,51.23,0,0,1,5,3.1A3.93,3.93,0,0,1,617.49,446.15Z" transform="translate(-406.38 -390.35)"/><path class="cls-42" d="M633,453.32a1,1,0,0,1-.24-.1l-.12-.11-.89-.11-1.67-.19-.37-.05a7.39,7.39,0,0,0-1.24-.09,1.23,1.23,0,0,0-1.24,1.26,1.26,1.26,0,0,0,1,1.22,5,5,0,0,0,.77.13l3.66.43h.07a1.22,1.22,0,0,0,1.18-1.15A1.14,1.14,0,0,0,633,453.32Z" transform="translate(-406.38 -390.35)"/><path class="cls-42" d="M609.7,452.84a6,6,0,0,0-1.1-.2c-3.21-.35-6.43-.69-9.64-1l-.25,0c-1.07-.11-2.15-.23-3.22-.29a1.27,1.27,0,0,0-1.39,1.09,1.23,1.23,0,0,0,1,1.41,2.51,2.51,0,0,0,.62.1l13.15,1.36.23,0,.31,0a1.23,1.23,0,0,0,1.26-1.19A1.2,1.2,0,0,0,609.7,452.84Z" transform="translate(-406.38 -390.35)"/><path class="cls-41" d="M608.75,408c.78-.5,1.66-.25,2.49-.36.68-.48,1.33-.17,2,.09,1.6,1,2.6,2.61,3.77,4a138.79,138.79,0,0,0,18.21,17.66c1.55,1.27,3.51,2,4.81,3.6,2.15,1.52,4.44,2.85,6.53,4.47,2.32,1.8,4.47,3.78,6.62,5.76.53.49,1.29,1.1.8,1.87s-1.36.44-2.07.24c-2.27-.62-4.54-1.27-6.8-1.92a4.51,4.51,0,0,0-2-.34,6.44,6.44,0,0,1-3.35-.63c-1.93-.59-3.83-1.26-5.79-1.76-5.26-1.64-10.55-3.12-15.94-4.24a210.23,210.23,0,0,0-31.85-6c-2.87-.31-5.76-.39-8.63-.77a3.1,3.1,0,0,1-1.65-.44c-.32-1.26.81-1.21,1.44-1.45a112.28,112.28,0,0,0,12.53-5.47c6.35-3.39,12.27-7.35,17.07-12.8A13.06,13.06,0,0,1,608.75,408Z" transform="translate(-406.38 -390.35)"/><path class="cls-43" d="M640,433a40.33,40.33,0,0,1-6.37-4.4,145.29,145.29,0,0,1-11.23-10.25c-2.71-2.75-5.23-5.66-7.65-8.66a10.8,10.8,0,0,1-1.48-1.69,2.71,2.71,0,0,1,2.46-.42,126.86,126.86,0,0,0,14.32.92,3.24,3.24,0,0,1,2.3.54c1.41-.13,2.77.32,4.18.3a2.18,2.18,0,0,1,2.66,0c3.2.55,6.45.19,9.66.46a25.93,25.93,0,0,1,5.47.57,3.87,3.87,0,0,0,.69.05c5.46.46,11,.34,16.42.35.47,0,.93,0,1.39,0a.83.83,0,0,1,.76.61c.13.41-.13.63-.44.83a20.69,20.69,0,0,1-2,1.33c-5.24,2.64-10.59,5.08-15.94,7.51-2.08.95-4.14,1.95-6.6,2.94a30.38,30.38,0,0,0,5.61,1.27c2.83.44,5.6,1.25,8.48,1.46a1,1,0,0,1,1,.77c.09.53-.43.79-.85,1a22,22,0,0,1-2.44.87,106.91,106.91,0,0,1-11.64,2.3c-2.73.41-5.5.41-8.2,1A.91.91,0,0,0,640,433Z" transform="translate(-406.38 -390.35)"/><path class="cls-40" d="M571.59,428.54l-3.81-.15a3.16,3.16,0,0,1,1.18-.71c3.52-1.69,7-3.44,10.61-5,3.42-1.52,6.69-3.37,10-5.09l10.62-5.46c.51-.26,1.06-.46,1.58-.68,2.18-1.44,4.69-2.2,7-3.45a44.4,44.4,0,0,1-9.6,9.11A75.5,75.5,0,0,1,586,424.7c-3.34,1.55-6.81,2.82-10.25,4.12A3.6,3.6,0,0,1,571.59,428.54Z" transform="translate(-406.38 -390.35)"/></svg>