<svg id="Layer_1" data-name="Layer 1" xmlns="http://www.w3.org/2000/svg" viewBox="0 0 173.01 304.85"><defs><style>.cls-1{fill:#593cdb;}.cls-2{fill:#6948ff;}.cls-3{fill:#402f8b;}.cls-4{fill:#4b34b2;}.cls-5{fill:#ffb7a9;}.cls-6{fill:#908aa7;}.cls-7{fill:#9c45c8;}.cls-8{fill:#afa9c7;}.cls-9{fill:#b0aac7;}.cls-10{fill:#afa8c7;}.cls-11{fill:#aea8c6;}.cls-12{fill:#ada7c4;}.cls-13{fill:#afa9c6;}.cls-14{fill:#b0aac6;}.cls-15{fill:#928ba9;}.cls-16{fill:#b3adc9;}.cls-17{fill:#aea9c5;}.cls-18{fill:#b0a5c8;}.cls-19{fill:#beb2c8;}.cls-20{fill:#aca6c7;}.cls-21{fill:#afa8c6;}.cls-22{fill:#aca6c5;}.cls-23{fill:#ada6c7;}.cls-24{fill:#ada6c6;}.cls-25{fill:#a99ec2;}.cls-26{fill:#afaac7;}.cls-27{fill:#afa8ca;}.cls-28{fill:#a0527d;}.cls-29{fill:#ada7c8;}.cls-30{fill:#aea7c7;}.cls-31{fill:#a9a3c5;}.cls-32{fill:#9a45ca;}.cls-33{fill:#5b44c3;}.cls-34{fill:#e3ddff;}.cls-35{fill:#f5eeff;}.cls-36{fill:#893e9c;}.cls-37{fill:#bbaff3;}.cls-38{fill:#e77db8;}.cls-39{fill:#a1517f;}.cls-40{fill:#2f2559;}.cls-41{fill:#a2517f;}.cls-42{fill:#302559;}</style></defs><path class="cls-1" d="M567.07,647.41a3.58,3.58,0,0,0-1.74-.26,2.61,2.61,0,0,1-2.43-1.58,9.11,9.11,0,0,1-.78-2.29,98.4,98.4,0,0,1-1.86-17.95c-.07-3.13-.62-6.21-.73-9.33,0-.71-.37-.85-1-.91-5.84-.56-11.66-1.32-17.47-2.1-1.33-.18-2.67-.3-4-.46-.7-.09-1.1.05-1.12.9,0,1.93-.17,3.87-.22,5.81-.14,5-.24,10-.4,15,0,1.29-.27,2.57-.38,3.86-.23,2.58-1.77,4-4.1,4.85-.41.14-.83.24-1.24.36-1.8.89-3.5,0-5.23-.3a4.07,4.07,0,0,1-.5-.13c-1.44-.32-2.92-.47-4.34-.87a3,3,0,0,1-1.91-1,11.73,11.73,0,0,1-2.91-1.37,3.41,3.41,0,0,1-1.48-3.93,11.22,11.22,0,0,0,.17-4.28,72.43,72.43,0,0,1,.13-10.62c.2-3,.5-6.1.74-9.15,0-.57.25-1.18-.2-1.7s-.11-1.14.07-1.68c1.23-3.74,1.63-7.64,2.25-11.5a4,4,0,0,0-.21-2.52c.55-1.64,1.08-3.29,3-3.88,4.63,1.77,9.3,3.41,14.3,3.72a112.34,112.34,0,0,0,15.46,0,126.4,126.4,0,0,0,14.89-1.72c1.37-.27,2.75-.48,4.11-.83a2.08,2.08,0,0,1,1.71,0,8.19,8.19,0,0,1,.47,3.33c.3,4.94,0,9.88,0,14.82a159.35,159.35,0,0,0,4.31,35.67c.19.82.6,1.64.16,2.51-.88.69-1.83.16-2.75.17-.62,0-1.25-.07-1.88,0C568.94,647.93,567.92,648.14,567.07,647.41Z" transform="translate(-453.49 -387.57)"/><path class="cls-2" d="M574.45,647.72c-.69-3.19-1.55-6.34-2.08-9.56s-1.17-6.52-1.5-9.82c-.24-2.49-.6-5-.9-7.47,0-.16,0-.32,0-.48-.41-5.57-.33-11.16-.34-16.74,0-.87.5-1.68.32-2.55-.62-2.91,0-5.89-.53-8.81a1.26,1.26,0,0,1,.23-.75,7.86,7.86,0,0,1,5.2-1.73,2.2,2.2,0,0,1,.39,1.51,8,8,0,0,0,3,6.42c.29.22.59.46.52.91q.45,5.39,1.31,10.73c.74,4.57,1.15,9.18,1.81,13.76.4,2.71,1,5.39,1.49,8.09a46.92,46.92,0,0,1,.83,8c0,.53.12,1.17-.32,1.53-.94.77-.69,1.62-.53,2.61a3.1,3.1,0,0,1-1.31,3.25c-.44.31-.9.6-1.35.89a3.05,3.05,0,0,1-.87.55,5.65,5.65,0,0,1-1.59.15,25.41,25.41,0,0,1-2.76,0A1.22,1.22,0,0,1,574.45,647.72Z" transform="translate(-453.49 -387.57)"/><path class="cls-3" d="M516.18,594a.77.77,0,0,1,.72.89,14.38,14.38,0,0,1,0,2.08c-.81,4.34-1.2,8.77-2.8,12.94a8.06,8.06,0,0,1-2.46,4.08c-1.8,1.63-3.43,3.43-5.13,5.15a22.26,22.26,0,0,0-5.65,10.89,9.5,9.5,0,0,0-.12,1.6c-.08,1.42-.42,1.71-1.83,1.31s-2.66-.86-4-1.33a95,95,0,0,0-10.08-2.88c-.26-.06-.53-.09-.78-.17-1-.37-1.27-.83-.81-1.84.31-.68.73-1.31,1.1-2a22,22,0,0,1,6-6.89c4-3.3,8.71-5.56,13.17-8.16a29.48,29.48,0,0,0,10.42-10.13,9.82,9.82,0,0,0,1.91-5.4A.34.34,0,0,1,516.18,594Z" transform="translate(-453.49 -387.57)"/><path class="cls-4" d="M515.92,594.11a2.18,2.18,0,0,1,.18,1.86,27.86,27.86,0,0,1-4.65,7.66c-3.4,4.23-8.07,6.64-12.64,9.21-4.27,2.4-8.41,5-11.74,8.64a4.72,4.72,0,0,0-1,1.26,5.29,5.29,0,0,1-1.75,2.06c-2.24-2.48-3.82-5.42-5.63-8.2-1.7-2.62-1.34-3.37,1.66-4,3.82-.77,7.31-2.49,10.94-3.84a70.8,70.8,0,0,0,14.46-7.42,37,37,0,0,0,8.57-7.27C514.86,593.22,515.39,593.53,515.92,594.11Z" transform="translate(-453.49 -387.57)"/><path class="cls-5" d="M521.62,671.74a8.7,8.7,0,0,1,.79,3.1c.14,1.71.83,3.35.6,5.1,0,.27,0,.54,0,.81-.25,2.56-1.08,3.45-3.65,3.94a39.24,39.24,0,0,1-5.6.58,27.58,27.58,0,0,0-4.8.56,6.27,6.27,0,0,1-1.44.1,44.34,44.34,0,0,0-6.09.57c-1.54.22-3.1.15-4.66.35-1.3.16-2-.69-2.18-2.06-.16-1.62.38-2.5,1.78-2.74a38,38,0,0,0,6.71-2.23c3.18-1.18,5.6-3.37,8.07-5.52a14.8,14.8,0,0,0,2.25-2.93c.39-.57.58-1.3,1.26-1.64a1.19,1.19,0,0,1,.89-.26,2.46,2.46,0,0,1,.45.11,8.68,8.68,0,0,0,2.61,1.23c.5.18,1,.18,1.55.32S521.24,671.26,521.62,671.74Z" transform="translate(-453.49 -387.57)"/><path class="cls-3" d="M609.36,569.85c-.06,1-.82,1.44-1.53,1.92-3,2-6.05,4.09-9.09,6.12s-5.94,4.43-8.86,6.72c-1.73,1.35-3.45,2.72-5.18,4.09-.88.21-1.42-.36-1.91-.9a15.59,15.59,0,0,1-2.65-4.3,3.81,3.81,0,0,1,1.29-1.62c5.42-5,10.88-10.06,16.49-14.9a3.3,3.3,0,0,1,2.39-1.05,10,10,0,0,1,1.43.28c1.45.41,2.87.91,4.29,1.39.63.28,1.24.61,1.86.91S609.18,569.06,609.36,569.85Z" transform="translate(-453.49 -387.57)"/><path class="cls-6" d="M601.64,566.53a3.76,3.76,0,0,1-1.33-.27,2.1,2.1,0,0,0-1.7-1,6.14,6.14,0,0,1-2.61-.68,3,3,0,0,1-1.17-1.82c0-.1,0-.21,0-.32-.09-1,1.3-2.11.48-2.94-.6-.61-2-.13-2.95-.46-.25-.08-.53-.08-.78-.17a1.6,1.6,0,0,1-1.09-1.52c.69-1.43,1.22-2.95,2-4.33.5-.88.2-1.13-.67-1.15a9.36,9.36,0,0,1-1.59,0,1.59,1.59,0,0,0-2,1.14c-.15.39-.34.8-.82.91a1.27,1.27,0,0,1-1.2-1c.78-2-1-1.45-1.85-1.78a1.42,1.42,0,0,1-1-1.24c.54-1.1,1.56-.69,2.4-.7a3.32,3.32,0,0,0,3.06-2.72c0-.49-.33-.48-.62-.54a19.58,19.58,0,0,0-2.86-.23c-.72,0-1,.57-1.25,1.08-.43.71-.56,1.65-1.49,2a1.27,1.27,0,0,1-1.22-1c-.18-.87,1-1.62.49-2.32s-1.6-.15-2.41-.41c-.3-.09-.6-.17-.9-.29a3.34,3.34,0,0,1-1.76-1.89c0-1.25.84-2.16,1.23-3.25.19-.52,1-1.16.08-1.61s-1.79-.51-2.3.64c-.33.73-.65,1.49-1.62,1.57a1.27,1.27,0,0,1-.47-.09.89.89,0,0,1-.47-1c0-.77,1.31-1.69-.28-2.27a1.32,1.32,0,0,1-.37-1.53.82.82,0,0,1,.29-.35c2,0,3.09-.88,3.6-2.92.18-.72-.24-.79-.72-.95-.9-.31-1.94-.05-2.75-.7a1.74,1.74,0,0,1,.45-1.61,3,3,0,0,1,2.32.05c1.25.3,2.32.33,2.84-1.15a.6.6,0,0,1,.73-.45,2.68,2.68,0,0,1,.91,1c-.16,1.22.82,1.5,1.6,2l1.63,1.95c.72,1.2-.22,2.05-.7,2.93s-.28,1.28.74,1.44a12.91,12.91,0,0,0,3.82.16,13.82,13.82,0,0,1,2,2.55c-2.16,0-2.59,1.81-3.31,3.29-.27.55-.08,1,.53,1.05.95.15,1.91.18,2.86.25.63,0,.87-.51,1.18-.94s.5-1.16,1.31-.75l.61.69a1.78,1.78,0,0,0,1.67,1.88,4.4,4.4,0,0,1,1.26,1.32c-.4,1.14-1.28.6-2,.52-1.94-.21-2.63.22-3.21,2.06-.11.37-.25.7.17,1a3.59,3.59,0,0,0,4.28-1.09,5.6,5.6,0,0,1,.82-1.37c.23-.23.5-.43.81-.1l.42.57a4.07,4.07,0,0,1,.18.44c.28.73-.78,1.43-.13,2.09s1.44.19,2.11.52c.15.07.3.12.44.2a7.48,7.48,0,0,1,1.94,2.28c-.19,1.59-1.38,2.77-1.8,4.38,1.84.5,3.62.82,5.36-.22l2.2,2.66c0,.88-.71.61-1.15.69s-1.11.21-1.32.76c-.3.79-1.36,1.46-.67,2.41.5.7,3.47.62,4,0,.38-.4.54-1.1,1.31-1l.75,1.24c-.13.72.41,1,.89,1.32a2.07,2.07,0,0,1,.71,1.59.59.59,0,0,1-.56.26c-1.63-.48-2.62.29-3.32,1.65l-1.68-.88c.31-1.06.09-1.69-1.18-1.76S602.64,565.43,601.64,566.53Z" transform="translate(-453.49 -387.57)"/><path class="cls-5" d="M584.18,677.87c2.83,2,5.39,4.26,8.1,6.37a8.92,8.92,0,0,0,5.32,2,1.3,1.3,0,0,1,1.42,1.25c.08.89.46,1.73.07,2.69-.76,1.84-1.85,2.5-3.79,2.07-2.2-.49-4.41-.94-6.59-1.51-3.23-.85-6.56-1.15-9.79-1.94a10,10,0,0,1-4.73-2.3c-1.58-1.52-1.76-2.9-.55-4.74.29-.44.78-.76.88-1.33.55-.72,1.44-.67,2.18-1,1.49-.6,3-1.14,4.52-1.65C582.2,677.66,583.2,676.59,584.18,677.87Z" transform="translate(-453.49 -387.57)"/><path class="cls-7" d="M573.54,528.75l-.33,1.62c.76,1.58.22,3.08-.3,4.57l-.08,0c-1.25.46-2.44-.17-3.66-.2a2.33,2.33,0,0,0-2.65,1.49,4.13,4.13,0,0,1-7.33.77,2.34,2.34,0,0,0-2.73-1c-1.26.27-2.54.47-3.79.77a2.63,2.63,0,0,1-2.33-.2c-.54-.57-.06-1,.26-1.37s.81-.84,1.2-1.28.69-1,1.1-1.37a11.79,11.79,0,0,0,2-2.2,6.86,6.86,0,0,1,2.1-1.84,39.37,39.37,0,0,1,14.89-6.29c.58-.11,1.17-.11,1.76-.19a1.61,1.61,0,0,1,1.84.95c.2.39,0,.74-.13,1.09a6.06,6.06,0,0,0-.58,1.71C574.33,526.71,574.37,527.91,573.54,528.75Z" transform="translate(-453.49 -387.57)"/><path class="cls-3" d="M514.07,579.24a3.19,3.19,0,0,0-.39-.5c-4.14-3.8-7.4-8.34-10.81-12.76a36.51,36.51,0,0,1-4.49-7.41c-.09-1.54.11-1.76,1.59-1.8a22,22,0,0,1,2.69.36,8.69,8.69,0,0,1,1.51.43,10.07,10.07,0,0,1,2.82,1.26,8.82,8.82,0,0,1,1.09,1.2c3.33,5,7,9.81,10.4,14.76.2.47.73.91.12,1.45a19.34,19.34,0,0,0-2.74,2.45C515.36,579.12,514.89,579.79,514.07,579.24Z" transform="translate(-453.49 -387.57)"/><path class="cls-6" d="M581.25,678.19a36.26,36.26,0,0,1-4.55,1.64c-.56,0-.45-.4-.34-.63.58-1.13-.12-1.54-1-1.9s-1.54-.54-1.89-1.38a.86.86,0,0,1-.05-.27c-.32-1.11.12-1.41,1.14-1,.55.2,1.08.47,1.63.68,1.43.57,2.75-.12,2.52-1.58s-2-1.33-3-2c-.58-.39-1-.08-1.26.51a4.55,4.55,0,0,1-.73,1.24c-.34.35-.64.34-.88-.12-.34-1.72-.68-3.43-1-5.15,0-.91.66-.54,1-.39,1.57.7,1.44-.79,1.91-1.46s.3-1.25-.45-1.73-1.62-.85-2.25.3a.61.61,0,0,1-.81.33c-.33-1.5-.67-3-1-4.49-.12-.26,0-.4.23-.48.48-.17,1.13.32,1.48-.3a10.66,10.66,0,0,0,1.22-2.63.76.76,0,0,0-.44-.94c-.47-.21-.7.12-.89.46-.29.51-.5,1.07-.81,1.57s-.34,1.08-1.08,1a2.72,2.72,0,0,1-.35-1.27,2.46,2.46,0,0,1,.26-2.27c.51-.83.4-1.32-.46-1.75a2.26,2.26,0,0,1-1-1.18l-.09-.61c-.29-.84-.16-1.3.86-.94.25.09.45.29.7.38.55.2,1,1.22,1.73.23.86-1.15.83-2-.09-2.81-.56-.51-1.47-.73-1.55-1.69a25.27,25.27,0,0,1,4.52.21l.95.13c.2.36,0,.74.05,1.1a1.33,1.33,0,0,0,1,1.17c.65.24.78-.37,1-.76a5.08,5.08,0,0,1,.9-1.5l1.62-.1c.48,1.14-.41,1.91-.81,2.78s-.38,1.45.5,2a3.44,3.44,0,0,1,1.9,2.05l.06.92a2.72,2.72,0,0,1-.11,2,1.76,1.76,0,0,0,.43,2.19h0c.21,1.64.21,1.63-1.33,1.46s-1.35,1.26-1.89,2-.22,1.15.43,1.6c1.1.76,2.48,1.06,3.41,2.08h0c.37.49,0,1.11.28,1.62,0,.42.05.85.07,1.28,0,.16,0,.34-.07.46a2,2,0,0,0,.69,3.1.52.52,0,0,1,0,.27c.19.32,0,.72.24,1a.81.81,0,0,1,0,.31c-.47.43-.92.12-1.33-.08-.81-.38-1.46-.51-2,.48s-.68,1.66.47,2.2A.49.49,0,0,1,581.25,678.19Z" transform="translate(-453.49 -387.57)"/><path class="cls-6" d="M503,557.55c-1.07-.11-2.13-.26-3.2-.32s-1.22,0-1.4,1.34c-.15-1.8-.79-3.66.7-5.23.21-.16.47-.23.69-.37.73-.43,1.61-.56,2.3-1,1-.72-.83-1.41-.1-2.18l.4-.59c.53-.45.89,0,1.28.25s.85.66,1.32.92a2.25,2.25,0,0,0,2.67-.56c.71-.7-.51-1-.84-1.57-.49-.78-1.64-1.11-1.55-2.29.44-.53.88-1.07,1.33-1.6a1.69,1.69,0,0,1,.67-.42c1.12-.47,2.3-.88,1.88-2.5l.31-.34c.44-.35.8-.09,1.15.16.5.38.94,1,1.67.75a26.29,26.29,0,0,0,3.5-1.09c.39-.17.26-.54,0-.8-.72-.79-1.39-1.66-2.7-1.19-.45.16-1.13.53-1.34-.38a13.07,13.07,0,0,1,2.2-2.32,46.72,46.72,0,0,0,4.85-1.12c.76-.2.82-.53.3-1.12s-1.22-.74-1.2-1.58a11.93,11.93,0,0,1,1.86-1.69c.4-.15.7-.58,1.12-.6,1.32-.07,1.57-.88,1.49-2a1.54,1.54,0,0,1,.67-.62.87.87,0,0,1,1.08.45,3.66,3.66,0,0,0,2,1.23,3.47,3.47,0,0,1-.51,2.71.71.71,0,0,1-.4.23,3,3,0,0,0-2.76-.17c-.47.21-1.43,0-1.26.82a1.63,1.63,0,0,0,1.58,1.17c.59,0,1.15-.27,1.74-.23a.66.66,0,0,1,.64.4c-.2,1.63-.24,3.31-1.19,4.75-.3,0-.48-.15-.68-.33a4.36,4.36,0,0,0-5.66-.84c-.47.25-.51.49-.19.86.81.91,1.62,1.62,3,1.25,1.08-.28,2.18-1,3.38-.34a1.44,1.44,0,0,1-.23,1.57c-.69.65-1.69.49-2.56.94.14.66.94,1,.91,1.72a1.15,1.15,0,0,1-1.1,1.06.9.9,0,0,1-.56-.29c-1.62-2.37-3.7-1.49-5.75-.82-.73.24-.82.65-.27,1.16,1,1,1.81,2.53,3.71,1.92a.57.57,0,0,1,.71.49,3.37,3.37,0,0,1-2,2.23c-.47.14-1,.16-1.42.32-.71.25-1.6.27-2.09.79s.71,1.11.43,1.85a1.09,1.09,0,0,1-.5.75c-.6.25-1-.13-1.46-.42-1.92-1.28-1.92-1.28-4.12-.28.67,1.5,2.58,1.89,3.12,3.48a3.5,3.5,0,0,1-1.55,2.22,13.43,13.43,0,0,1-2.19,1,18.08,18.08,0,0,0-2.66-1.18c1-.88,2.56-.74,3.66-1.79a11.59,11.59,0,0,0-2.75-2.38c-.46-.33-3.26.42-3.61.88s0,.67.25,1C502.21,556.23,503.13,556.56,503,557.55Z" transform="translate(-453.49 -387.57)"/><path class="cls-6" d="M520.12,671.44c-.55-.1-1.16.1-1.63-.36-.16-.49.26-.65.51-.89s.81-.48.4-1a1,1,0,0,0-1.38-.35c-.68.37-1.19,1.15-2.12,1l-.33-.07c-.69-.17-1-.52-.63-1.24h0c.47-.67,1.48-.87,1.7-1.62s-.87-1.11-1.08-1.84a2.85,2.85,0,0,0-.24-.75v-.64c.29-.51-.06-1.13.26-1.64a.87.87,0,0,1,0-.28c.92-.66.83-1.45.28-2.28l.05-1.29c.18-.44.28-1,.93-.43.35.33.65.72,1,1,.67.59,3,.08,3.14-.77s-.67-1.13-1-1.68a1,1,0,0,0-1.42-.29,11.39,11.39,0,0,1-1.38.82c-.37.13-.95.59-1-.35,0-.31,0-.62.07-.93s.09-.55.3-.71c.88-.68,1.14-1.39.35-2.35a1.52,1.52,0,0,1-.07-1.51,5,5,0,0,1,.36-2.23,6.49,6.49,0,0,1,1.76-1.36.61.61,0,0,0,.35-.66.47.47,0,0,0-.63-.34c-1.83.57-1.32-.62-1.17-1.54l.09-3.85a29.88,29.88,0,0,0,5.85,1.33c.19,0,.36.19.54.29a17.38,17.38,0,0,1-2.31,1.7c-.31.24-.6.52-.35.93s.62.25,1,.13a2.33,2.33,0,0,0,1.67-2.76,4.39,4.39,0,0,1,1.09.11,15.54,15.54,0,0,0,4.5.59.56.56,0,0,1-.07.26,1.58,1.58,0,0,1-.23.22c-1.38.72-1.49,1.76-.77,3l-1,2.9c-.44.82-1.69,1.34-1,2.59a2.65,2.65,0,0,0-.35,1.29c-.55.83-.87.11-1.23-.19a2.41,2.41,0,0,0-3.35.67c-.34.79,1.18,2.46,2.21,2.41.45,0,1-.51,1.17.4a21.72,21.72,0,0,1-1.06,3.16c-.28.13-.49-.09-.74-.15A2.25,2.25,0,0,0,520.8,661c-.47.72.6,1.06,1,1.6s1.35.47,1.31,1.38a6.07,6.07,0,0,1-.39,1.89c-.18.12.08,0-.11.12-1.87,1.07-1.87,1.07-.52,2.81a.87.87,0,0,1,0,.32c-.24.29,0,.7-.26,1a1.36,1.36,0,0,1,0,.29C521.35,671,521.08,671.76,520.12,671.44Z" transform="translate(-453.49 -387.57)"/><path class="cls-5" d="M580.19,583.5a7.58,7.58,0,0,1,1.65,2.34,5.69,5.69,0,0,0,2.86,2.86c-.29.5,0,.92.18,1.36.49,1.19,1,2.39,1.46,3.58,1.1,2.68-.7,4.44-2.55,5a8.84,8.84,0,0,1-5.07,0c-3.3-2-4.12-5.19-4-8.77a12.15,12.15,0,0,0,1.18-3.16C577.05,585.31,578.28,584,580.19,583.5Z" transform="translate(-453.49 -387.57)"/><path class="cls-5" d="M514.07,579.24c1.31-.15,1.85-1.36,2.77-2,.54-.41.86-1.15,1.69-1.12.48,0,.81.21.73.78-.54,2.14-1.31,4.26-.75,6.53a5.68,5.68,0,0,1-.76,2.85c-.83.69-1.21-.12-1.71-.51s-.82-.71-1.25-.29,0,.87.29,1.24a4.17,4.17,0,0,0,3.16,1.85c.38.6.8,1.18.49,2a37,37,0,0,1-2.55,3.55.48.48,0,0,0-.26.07,1.74,1.74,0,0,0-1.6,0,13.28,13.28,0,0,1-3.39-3.58c-1.7-2.62-1.78-5.86.79-8.3A9.68,9.68,0,0,0,514.07,579.24Z" transform="translate(-453.49 -387.57)"/><path class="cls-6" d="M553.13,532.68c-.33.42-.67.83-1,1.25-1.53-.23-2.21,1.06-3.15,1.83-.6.48.25.76.39,1.14.15.8-.29,1.18-1,1.4a2.92,2.92,0,0,0-3.5,1c-.67.78-.72,1.19.19,1.66a.9.9,0,0,1,.37.5,1.25,1.25,0,0,1-1,1.18,1.36,1.36,0,0,1-.93-.13,1.82,1.82,0,0,0-2.55.37,1,1,0,0,1-1.17.29,1.41,1.41,0,0,1-.71-1.38c1.38-1.57-.66-1.26-1-1.87a3,3,0,0,1-.91-2.33c.41-.66,1.19-.88,1.69-1.42.35-.38,1.19-.7.59-1.36a1.59,1.59,0,0,0-2-.45c-.48.25-.68.82-1.21,1a10.71,10.71,0,0,1-2.9-5.26c.82-.52,1.43.11,2.07.41,1,.46,1.88.82,2.84,0a1.35,1.35,0,0,1,1.08-.24c.51.06,1.2-.28,1.49.24s-.3.85-.65,1.17-.24.7.2,1c1.6,1,3.78-.24,4.38-2.55a11.39,11.39,0,0,1,3.18-.37c.58-.26.93-.08,1.31.44a1.66,1.66,0,0,0,2.72.23,7.62,7.62,0,0,1,2.47-1.64,4.39,4.39,0,0,1,2.58-.3,8.86,8.86,0,0,1-1.85,2C554.45,531.15,553.37,531.55,553.13,532.68Z" transform="translate(-453.49 -387.57)"/><path class="cls-7" d="M533.4,530.06l2.85,5.19a1.2,1.2,0,0,1,.57,1.37,3.12,3.12,0,0,1-3.49,1.41,3.76,3.76,0,0,1-3.37-2.87c-.32-1.79-1.36-2.24-2.85-2.45a2.63,2.63,0,0,1-1.76-.69c.2-1,.41-1.94.61-2.91.17-1.42.08-3,1.91-3.5a3.1,3.1,0,0,1,2.51.84,12.59,12.59,0,0,1,2.66,3C533.24,529.6,533.56,529.69,533.4,530.06Z" transform="translate(-453.49 -387.57)"/><path class="cls-8" d="M591.93,542c-.84.08-.91.85-1.18,1.39a1.2,1.2,0,0,1-1.68.75c-1-.39-2,0-3-.36s-1-.32-.56-1.2.9-1.84,1.37-2.74c.6-1.15.65-1.16,2-.82a3.55,3.55,0,0,0,.47.08A19.68,19.68,0,0,1,591.93,542Z" transform="translate(-453.49 -387.57)"/><path class="cls-8" d="M596.37,546.92c-.38,0-.56.24-.71.55-.28.58-.61,1.14-.86,1.73-.35.84-.75,1.31-1.81,1-.85-.26-1.81.07-2.71-.22s-1-.33-.6-1.19c.11-.25.24-.48.36-.73,1.21-2.46,1.21-2.46,3.93-1.91.53.11,1.06.29,1.5-.21A1.82,1.82,0,0,1,596.37,546.92Z" transform="translate(-453.49 -387.57)"/><path class="cls-8" d="M572.86,673.33c.25.1.5.24.67-.11.37-.77.74-1.53,1.17-2.4a45.93,45.93,0,0,1,4.42,2.12c.31.15.33.38.2.66-.4.87-.6,2-1.26,2.54s-1.56-.54-2.44-.65a3.18,3.18,0,0,1-1.15-.54c-.86-.51-1,0-1,.7A8.13,8.13,0,0,1,572.86,673.33Z" transform="translate(-453.49 -387.57)"/><path class="cls-9" d="M533.4,530.06l-.36-.63a6.42,6.42,0,0,1,2.39.25c2.05.55,4.17.29,6.24.6,1,.15,2-.32,3-.2.38.38.79.68.18,1.29s-1.58,1.29-2.35,2a1.25,1.25,0,0,1-1.5.08c-.67-.33-1.35-.64-2-1,.07-1,1.24-1,1.61-1.89-.9-.25-1.77-.41-2.42.4s-1.26.64-2,.34A16.9,16.9,0,0,0,533.4,530.06Z" transform="translate(-453.49 -387.57)"/><path class="cls-8" d="M609.3,562.78a1.39,1.39,0,0,0-.56.54c-1.12,1.66-1.14,1.71-3,1.23a19.7,19.7,0,0,1-2-.33c-.52-.19-.84-.46-.48-1.07a6,6,0,0,0,.56-1.14c.46-1.35,1.22-2.22,2.81-1.89a.57.57,0,0,0,.54-.28Z" transform="translate(-453.49 -387.57)"/><path class="cls-8" d="M569.93,647.51l2.28,1.76a1.16,1.16,0,0,1,.34,1.68c-.4.69-.73,1.42-1.11,2.17a9.14,9.14,0,0,1-2.38-1.39c-.79-.47-.74.13-.78.61-.64-1.59-.66-3.32-1.21-4.93Z" transform="translate(-453.49 -387.57)"/><path class="cls-8" d="M582.53,666.87a19.24,19.24,0,0,1-4.41-2.23c-.36-.2-.38-.46-.21-.8.44-.86.89-1.71,1.28-2.59s.78-1,1.5-.5a1.57,1.57,0,0,0,1,.37c.3-.43.06-.93.17-1.39.09.19.27.38.26.56C582.09,662.5,582.67,664.66,582.53,666.87Z" transform="translate(-453.49 -387.57)"/><path class="cls-8" d="M511.74,538.51c.65.63,1.22,0,1.77-.17a1.24,1.24,0,0,1,1.44.31c.44.47.93.9,1.36,1.38.65.7.63,1-.22,1.24-1.32.45-2.67.79-4,1.23-.53.18-.79-.1-1.12-.39s-.79-1.05-1.54-1.05Z" transform="translate(-453.49 -387.57)"/><path class="cls-8" d="M604.89,557.18c-.23.29-.46.59-.71.87a1,1,0,0,1-1,.4c-1.38-.41-2.88-.16-4.37-.78a29.74,29.74,0,0,1,2.51-4.65A30.07,30.07,0,0,1,604.89,557.18Z" transform="translate(-453.49 -387.57)"/><path class="cls-8" d="M505.25,545.92c1,1.41,2.43,2.38,3.52,3.84a13.31,13.31,0,0,1-3,1.28c-.43.18-.79-.15-1.15-.4-.72-.52-1.28-1.28-2.22-1.47A35.57,35.57,0,0,1,505.25,545.92Z" transform="translate(-453.49 -387.57)"/><path class="cls-8" d="M525,656.89a.49.49,0,0,0-.81-.1c-.65.59-1.15.29-1.64-.23a11,11,0,0,1-1-1.25c-.88-1.25-.91-1.25.4-2.08a5.09,5.09,0,0,1,2.09-1.07c.68,0,1.12.88,1.58,1.46.17.21.39,0,.58,0Z" transform="translate(-453.49 -387.57)"/><path class="cls-10" d="M573.54,528.75a13,13,0,0,1,.91-3.22c1.37-.75,2.61.19,3.91.3.51.29.68.83,1,1.27-.4.26-.39.74-.57,1.12-.63,1.28-.82,1.38-2.25,1.08A18.83,18.83,0,0,0,573.54,528.75Z" transform="translate(-453.49 -387.57)"/><path class="cls-11" d="M516.19,656.48c.24.34.49.28.82.08.77-.46,1.4-1.34,2.36-1.26s1.15,1.34,1.88,1.88a1.24,1.24,0,0,1,.59.76c-.76.88-1.92,1.13-2.82,1.79-.35.25-.59.12-.83-.13-.52-.55-1.06-1.07-1.54-1.65s-.46.16-.7.19A2.45,2.45,0,0,1,516.19,656.48Z" transform="translate(-453.49 -387.57)"/><path class="cls-8" d="M571.23,665.23c.62-.26.71-.89,1-1.39a.68.68,0,0,1,1.06-.29l.14.07c2.67,1.84,2.69.72,1.26,3.72-.21.42-.44.84-.63,1.21-.86.18-1.39-1-2.24-.37A13.44,13.44,0,0,1,571.23,665.23Z" transform="translate(-453.49 -387.57)"/><path class="cls-12" d="M581.25,678.19A1.55,1.55,0,0,0,581,678c-.51-.43-1.64-.45-1.55-1.16a7.25,7.25,0,0,1,1.22-2.58c.26-.41.77-.23,1.18-.07a6.71,6.71,0,0,0,1.92.79c.38.95,1,1.86.37,2.93C583.12,677.18,582.23,678.11,581.25,678.19Z" transform="translate(-453.49 -387.57)"/><path class="cls-8" d="M587.34,536.57a2.24,2.24,0,0,1-2.07.57,26,26,0,0,1-3.5-.77,9.56,9.56,0,0,1,1.27-2.68,2.36,2.36,0,0,0,.44-1.65Z" transform="translate(-453.49 -387.57)"/><path class="cls-8" d="M517.89,532.37c.7.65,1.41,1.3,2.11,2,.37.35.32.69-.17.84-1.54.45-3.09.91-4.65,1.28a3.27,3.27,0,0,1-1.24-.27A32.41,32.41,0,0,1,517.89,532.37Z" transform="translate(-453.49 -387.57)"/><path class="cls-8" d="M581.54,654.58a11.55,11.55,0,0,0-2.76-2.17c-.62-.38-.63-.72-.35-1.3a16,16,0,0,0,1.52-3.35.72.72,0,0,1,.7-.23Q581.09,651.06,581.54,654.58Z" transform="translate(-453.49 -387.57)"/><path class="cls-11" d="M569.93,659.42a17.54,17.54,0,0,0,1.68-3.06c.23-.41.36-.92,1-.58s1.23.93,1,1.55a8.2,8.2,0,0,1-.55,1.16c-.39.81-.78,1.61-1.15,2.39-.65.26-1.13-.85-1.77-.14C569.85,660.36,569.94,659.88,569.93,659.42Z" transform="translate(-453.49 -387.57)"/><path class="cls-8" d="M523.07,664a9.55,9.55,0,0,1-2.8-2.3c-.43-.42-.54-.77.1-1.1s1-.62,1.52-.9c1.16-.65,1.17-.65,2.08.36A23.18,23.18,0,0,1,523.07,664Z" transform="translate(-453.49 -387.57)"/><path class="cls-9" d="M573.48,675.92a19.89,19.89,0,0,0,2.81,1.4c1,.55,1,.52.58,1.52-.12.31-.51.6-.17,1a6.12,6.12,0,0,1-2.18.65C574.17,679,573.83,677.44,573.48,675.92Z" transform="translate(-453.49 -387.57)"/><path class="cls-10" d="M527.87,525.61a2.46,2.46,0,0,0-1.11,1.46,5.07,5.07,0,0,1-.8,2c-.7.37-1.27.4-1.7-.43a2.78,2.78,0,0,0-1.23-1.19A6.31,6.31,0,0,1,527.87,525.61Z" transform="translate(-453.49 -387.57)"/><path class="cls-11" d="M607.77,568.84a2.6,2.6,0,0,1,0-.63c.5-1.52,1.05-1.85,2.6-1.51a4.76,4.76,0,0,0,1.24.23c.46.59,0,1-.3,1.39a4.85,4.85,0,0,1-2,1.53Z" transform="translate(-453.49 -387.57)"/><path class="cls-9" d="M554.39,528.74a22.92,22.92,0,0,1-2.66,2.25c-.38.23-.65.84-1.2.5s-1.67-.36-1.82-1.29c-.11-.64-.54-.34-.82-.49,1.15-.55,2.43-.26,3.64-.55A8.85,8.85,0,0,1,554.39,528.74Z" transform="translate(-453.49 -387.57)"/><path class="cls-9" d="M502,549.76c0,.73.67,1.06,1.06,1.56.25.32.22.63-.17.76-1.26.44-2.39,1.23-3.78,1.26A36.77,36.77,0,0,1,502,549.76Z" transform="translate(-453.49 -387.57)"/><path class="cls-13" d="M517.51,644.85c.11.46-.13,1,.17,1.38a.79.79,0,0,0,.75-.23c.72-.66,1,0,1.4.42s0,.94-.39,1.15a7.76,7.76,0,0,1-2.24,1.18C517.3,647.45,516.91,646.11,517.51,644.85Z" transform="translate(-453.49 -387.57)"/><path class="cls-13" d="M599.39,550.74a9.23,9.23,0,0,1-2.67-.15c-.69-.19-1-.44-.58-1.18a3.46,3.46,0,0,0,.65-1.92A26.26,26.26,0,0,1,599.39,550.74Z" transform="translate(-453.49 -387.57)"/><path class="cls-14" d="M515.31,664.27a14,14,0,0,0,1.81,2c.4.4.38.7-.12,1a6.06,6.06,0,0,1-2.07,1.17A25.84,25.84,0,0,1,515.31,664.27Z" transform="translate(-453.49 -387.57)"/><path class="cls-9" d="M568.37,653a18.27,18.27,0,0,0,1.72,1.2c.63.33.7.69.38,1.28a4.83,4.83,0,0,0-.89,2.72A44.06,44.06,0,0,1,568.37,653Z" transform="translate(-453.49 -387.57)"/><path class="cls-15" d="M578.36,525.83c-.26.39-.59.3-1,.22a15.25,15.25,0,0,0-2.93-.52,2.2,2.2,0,0,1,.59-1.64,2.93,2.93,0,0,1,2.3.69Z" transform="translate(-453.49 -387.57)"/><path class="cls-9" d="M522.05,668.81l-.28-.14c-.67-.4-1.69-.79-1.45-1.61a2,2,0,0,1,2-1.17h.31Z" transform="translate(-453.49 -387.57)"/><path class="cls-11" d="M583.5,673.33c-2.15-.86-2.19-1-1-3.09a3.44,3.44,0,0,1,.4-.47A11.11,11.11,0,0,1,583.5,673.33Z" transform="translate(-453.49 -387.57)"/><path class="cls-9" d="M528.51,646.82c-1.77-2.18-1.82-1.69.68-3.18a1.07,1.07,0,0,1,.32-.06A11.18,11.18,0,0,1,528.51,646.82Z" transform="translate(-453.49 -387.57)"/><path class="cls-16" d="M516.84,651a2.6,2.6,0,0,0,.8,2c.76.77.69.86-.2,1.57-.4.33-.78.69-1.18,1C516.54,654,516.42,652.47,516.84,651Z" transform="translate(-453.49 -387.57)"/><path class="cls-9" d="M522.36,528.11c0,.66.63,1,.86,1.58a13.68,13.68,0,0,1-3.47,1A17.14,17.14,0,0,1,522.36,528.11Z" transform="translate(-453.49 -387.57)"/><path class="cls-9" d="M509.13,541.4c-.17.73.41,1.14.82,1.76a19.22,19.22,0,0,1-3.37,1.16A28.21,28.21,0,0,1,509.13,541.4Z" transform="translate(-453.49 -387.57)"/><path class="cls-14" d="M581.92,659.73c-1.55-.79-1.63-.89-.78-2.23a4.53,4.53,0,0,0,.46-2C582.14,656.88,581.79,658.32,581.92,659.73Z" transform="translate(-453.49 -387.57)"/><path class="cls-17" d="M526.58,652.31c-1.15-1-1.16-1.12-.06-1.9l1-.69A8.53,8.53,0,0,1,526.58,652.31Z" transform="translate(-453.49 -387.57)"/><path class="cls-9" d="M515.9,659.43c1.64,1.29,1.63,1.4-.28,2.28C515.64,660.94,515.41,660.14,515.9,659.43Z" transform="translate(-453.49 -387.57)"/><path class="cls-9" d="M594.21,544.59h-.16c-2.13,0-2.13,0-1.51-1.9A9.39,9.39,0,0,1,594.21,544.59Z" transform="translate(-453.49 -387.57)"/><path class="cls-9" d="M581.85,530.09a4.93,4.93,0,0,1-2-.46c-.21-.61.3-1,.43-1.49A11.54,11.54,0,0,1,581.85,530.09Z" transform="translate(-453.49 -387.57)"/><path class="cls-18" d="M577.34,524.58a5.14,5.14,0,0,1-2.3-.69l.42-1A3.61,3.61,0,0,1,577.34,524.58Z" transform="translate(-453.49 -387.57)"/><path class="cls-14" d="M610.94,565.34h-.33c-.35-.06-.85.14-1-.24s.13-.8.48-1.07A2.28,2.28,0,0,1,610.94,565.34Z" transform="translate(-453.49 -387.57)"/><path class="cls-19" d="M520.12,671.44c.71-.07,1-.73,1.61-1,0,.44-.08.88-.11,1.32C521.11,671.66,520.55,671.87,520.12,671.44Z" transform="translate(-453.49 -387.57)"/><path class="cls-14" d="M514.94,668.48a1.28,1.28,0,0,0,.63,1.24h-.94C514.65,669.29,514.5,668.81,514.94,668.48Z" transform="translate(-453.49 -387.57)"/><path class="cls-14" d="M515.57,662c0,.56.18,1.15-.26,1.64A2.07,2.07,0,0,1,515.57,662Z" transform="translate(-453.49 -387.57)"/><path class="cls-9" d="M521.76,670.13a1,1,0,0,1,.26-1A1.05,1.05,0,0,1,521.76,670.13Z" transform="translate(-453.49 -387.57)"/><path class="cls-3" d="M517.48,586.31c.13-1,.73-1.86.75-2.88a1.14,1.14,0,0,1,1.23,0c3.06,1.46,6.39,1.41,9.64,1.76,4.76.52,9.55.5,14.34.67,3.87.14,7.69.94,11.59.66,6.43-.45,12.89-.46,19.3-1.3a3.07,3.07,0,0,1,1.28,0,1,1,0,0,1,.56,1.53,3.07,3.07,0,0,1-1.49,3.18l-5.07,1.66c-3.54,1.13-7.24,1.45-10.86,2.17-1.2.24-2.45.17-3.69.33a128.89,128.89,0,0,1-20.6.66c-5.14-.18-10-1.76-14.78-3.61a6.32,6.32,0,0,1-.95-.6,8.4,8.4,0,0,1-.57-1.89C517.52,588,517,587.29,517.48,586.31Z" transform="translate(-453.49 -387.57)"/><path class="cls-20" d="M578.33,647.86a2.41,2.41,0,0,1-.56,1.62c-.35.48-.2,1.59-1.28,1.24a1.88,1.88,0,0,1-1.3-2.44,4.25,4.25,0,0,1,.21-.43Z" transform="translate(-453.49 -387.57)"/><path class="cls-21" d="M515.9,669.79a22,22,0,0,0,2-1.34c.63-.51,1.1-.48,1.57.16.26.33.66.54.84,1-.43.65-1.3.82-1.79,1.44A3.44,3.44,0,0,1,515.9,669.79Z" transform="translate(-453.49 -387.57)"/><path class="cls-22" d="M601.64,566.53c.51-1.26.5-1.25,1.66-1,.9.17,1.79.32,2.69.45s1.11.3.67,1.23a1.61,1.61,0,0,1-.57.77A40.45,40.45,0,0,1,601.64,566.53Z" transform="translate(-453.49 -387.57)"/><path class="cls-8" d="M598.1,567.3c-.32-1.2-1.52-1.84-1.93-3a21.58,21.58,0,0,0,3.39.65c1,.2,1,.15.75,1.29C599.38,566.2,598.78,566.83,598.1,567.3Z" transform="translate(-453.49 -387.57)"/><path class="cls-2" d="M573.71,539.68c.21,5.39.9,10.74,1,16.12.1,3.67.31,7.32.58,11a76.47,76.47,0,0,1,.08,10.81c-1.88,1.16-4,1.38-6.13,1.73-6.18-.7-12.1-2.52-18.1-4-1.94-.48-3.9-.79-5.87-1.1a96.87,96.87,0,0,1-24.09-7.11,3,3,0,0,1-1.68-1.19,2.81,2.81,0,0,1-.17-1.57c.94-6.31,1.65-12.64,2.72-18.92,0-.27.12-.53.19-.78a4.88,4.88,0,0,0,.3-1.24c0-.17,0-.34,0-.5a3.2,3.2,0,0,1,.69-1.83,3.94,3.94,0,0,0,.32-1.62.45.45,0,0,1,.09-.64,44.46,44.46,0,0,0,1.12-4.86,1.62,1.62,0,0,1,.45-1.93h.06a21.13,21.13,0,0,1,3.78.69,1.16,1.16,0,0,1,1,1.22,3.66,3.66,0,0,0,3,3.65,3.53,3.53,0,0,0,3.49-1c.69,0,.77.42.66,1a10.73,10.73,0,0,0,1,2.25c.57.54,1.2,1,1,2l.65,1.31c1.46,1.8,1.47,1.81,3.3.14a12.87,12.87,0,0,1,1.17-.81,2.09,2.09,0,0,0,1-1c.78-1.25,1.49-2.58,2.92-3.24a2,2,0,0,0,1-1.24c.09-.52.3-.87.92-.69a4,4,0,0,0,2.5,0c1.55-.4,3.14-.65,4.71-1a1.39,1.39,0,0,1,1.75.92,3.62,3.62,0,0,0,3.78,2.19,3.69,3.69,0,0,0,3.46-3.08,1.18,1.18,0,0,1,1.36-1,16.63,16.63,0,0,1,5.06.65c.11.54-.14,1.16.31,1.63.64.66.38,1.47.37,2.24C573.51,539.1,573.43,539.43,573.71,539.68Z" transform="translate(-453.49 -387.57)"/><path class="cls-8" d="M585.74,538.73c-.64,1.43-1.24,2.74-1.82,4.06-.22.51-.51.64-1.11.61-1.45-.06-2.86-.32-4.52-.53a43,43,0,0,1,2.28-4.5,1.08,1.08,0,0,1,1.27-.48A35.7,35.7,0,0,1,585.74,538.73Z" transform="translate(-453.49 -387.57)"/><path class="cls-8" d="M592.72,557.09a26.57,26.57,0,0,1,2.14-4.77.75.75,0,0,1,.9-.51,11.65,11.65,0,0,0,2.69.28c1.11.13,1.27.45.8,1.46-.29.63-.62,1.24-.93,1.86-1.14,2.27-1.75,2.57-4.24,2.05C593.67,557.38,593.26,557.24,592.72,557.09Z" transform="translate(-453.49 -387.57)"/><path class="cls-8" d="M583.51,549.78l-1-1.23a12.57,12.57,0,0,0,1.56-2.77c.25-.43.5-.94,1.06-.75,1.38.46,2.91,0,4.31.75-.31,1.24-1.13,2.32-1.56,3.56-.17.48-.65.4-1.11.32C585.67,549.47,584.57,549.16,583.51,549.78Z" transform="translate(-453.49 -387.57)"/><path class="cls-8" d="M590.52,557.25l-3.14-3.57c.59-.7.52-2,1.34-2.29a7.18,7.18,0,0,1,2.65,0c.32,0,.65,0,1,0,.95.14,1.09.39.71,1.25-.48,1.08-1,2.16-1.46,3.22C591.34,556.44,591.18,557.05,590.52,557.25Z" transform="translate(-453.49 -387.57)"/><path class="cls-13" d="M596.53,562.88a10.37,10.37,0,0,1,1.17-3,1,1,0,0,1,1-.68,1.45,1.45,0,0,1,.47.07c1.21.52,2.62-.14,3.85.76a20.69,20.69,0,0,1-1.46,3.1,1,1,0,0,1-1.22.55A15.7,15.7,0,0,1,596.53,562.88Z" transform="translate(-453.49 -387.57)"/><path class="cls-8" d="M576.77,535.46c.61-1.22,1.27-2.56,1.94-3.89a.92.92,0,0,1,1.1-.43c2.79.41,2.8.4,1.38,2.91-.39.69-.52,1.61-1.23,2s-1.54-.27-2.35-.2A.79.79,0,0,1,576.77,535.46Z" transform="translate(-453.49 -387.57)"/><path class="cls-23" d="M572.91,534.94c-.25-1.54.35-3,.3-4.57.45-.35.9-.11,1.37,0,.87.18,1.75.32,2.84.52-.72,1.46-1.38,2.78-2,4.1a.59.59,0,0,1-.78.35C574,535.17,573.41,535.32,572.91,534.94Z" transform="translate(-453.49 -387.57)"/><path class="cls-8" d="M577,542.73a25.09,25.09,0,0,1-2.87-3c.84,0,1-.71,1.25-1.29.57-1.33.79-1.47,2.13-1.26a4.22,4.22,0,0,1,.77.22c.29.1.66,0,.92.41C578.66,539.52,577.47,541,577,542.73Z" transform="translate(-453.49 -387.57)"/><path class="cls-13" d="M595.09,562.8l-3.54-4.25a32.38,32.38,0,0,0,4.77.33C596.12,560.39,595.19,561.47,595.09,562.8Z" transform="translate(-453.49 -387.57)"/><path class="cls-13" d="M581.54,547.55a14.77,14.77,0,0,1-3-3.2,15.89,15.89,0,0,0,3,.29c1.18,0,1.27.23.75,1.34C582.08,546.51,581.81,547,581.54,547.55Z" transform="translate(-453.49 -387.57)"/><path class="cls-14" d="M586.41,552.71a10.18,10.18,0,0,1-1.94-1.94,4.21,4.21,0,0,1,2.33.45A2.61,2.61,0,0,1,586.41,552.71Z" transform="translate(-453.49 -387.57)"/><path class="cls-23" d="M573.51,538.78a3.85,3.85,0,0,1-.37-2.24c1.4.27,1.44.33.89,1.45A5.66,5.66,0,0,1,573.51,538.78Z" transform="translate(-453.49 -387.57)"/><path class="cls-24" d="M550.21,536.21l-.92.69a2.89,2.89,0,0,1-.61-.18c-.81-.42-.87-.7-.12-1.23a10.18,10.18,0,0,0,1.82-1.58c.62-.7,1.17-.61,1.74,0C551.66,534.84,550.68,535.31,550.21,536.21Z" transform="translate(-453.49 -387.57)"/><path class="cls-25" d="M553.13,532.68c-.29-.08-.8-.28-.48-.53.79-.61,1.34-1.62,2.47-1.74A5.74,5.74,0,0,1,553.13,532.68Z" transform="translate(-453.49 -387.57)"/><path class="cls-1" d="M519.76,566a96.12,96.12,0,0,0,22.11,7.13c2.57.47,5.18.78,7.73,1.32s5.29,1.33,7.93,2c2.89.77,5.8,1.47,8.74,2,1,.2,2,.29,3,.43-.2.89-.95.76-1.55.79a221.47,221.47,0,0,1-29.14-.44c-6.34-.51-12.56-1.71-18.85-2.43a1.4,1.4,0,0,1-.6-.22c-.08-.31-.45-.31-.61-.53.42-.51-.33-.67-.32-1.06-.28-2.88.54-5.65.92-8.45C519.18,566.25,519.35,566,519.76,566Z" transform="translate(-453.49 -387.57)"/><path class="cls-8" d="M503,557.55c-.65-1-1.79-1.69-2.51-2.83,1.23-.89,2.7-1.09,4-1.66a.85.85,0,0,1,.89.27c1,1,2.35,1.71,3.27,3-1.44.67-2.78,1.52-4.42,1.57A2.7,2.7,0,0,1,503,557.55Z" transform="translate(-453.49 -387.57)"/><path class="cls-26" d="M508.88,557.93c-.29.8-1,1.37-1.12,2.27l-.89-1.08C507.21,558.18,508.21,558.33,508.88,557.93Z" transform="translate(-453.49 -387.57)"/><path class="cls-8" d="M581.51,668.79a8.48,8.48,0,0,1-1.15,2.6c-.23.32-.54.26-.86.1L576,669.76c-.55-.27-.64-.64-.35-1.18s.68-1.34,1-2c.25-.52.59-.73,1.15-.41,1.08.61,2.17,1.19,3.24,1.8A.79.79,0,0,1,581.51,668.79Z" transform="translate(-453.49 -387.57)"/><path class="cls-8" d="M575.46,657.57c.78.48,1.59,1,2.41,1.48a.8.8,0,0,1,.29,1.24,25.91,25.91,0,0,0-1.44,2.7c-.26.51-.58.49-1.05.29-2.52-1-2.64-1.34-1.43-3.77q.43-.85.9-1.71C575.18,657.72,575.3,657.68,575.46,657.57Z" transform="translate(-453.49 -387.57)"/><path class="cls-11" d="M577.55,653.43a4.71,4.71,0,0,1,.6.26c.36.22.71.46,1.06.7,1.49,1,1.49,1,.66,2.6-.61,1.17-.62,1.17-1.78.53a1.64,1.64,0,0,1-.41-.24c-.45-.51-1.51-.49-1.53-1.26s.64-1.55,1-2.31C577.24,653.59,577.41,653.53,577.55,653.43Z" transform="translate(-453.49 -387.57)"/><path class="cls-11" d="M574.12,650.89a1.33,1.33,0,0,1,.26,0c2,1.41,2,1.4.8,3.49-.29.5-.52.93-1.22.57s-1.25-.93-1-1.56C573.3,652.54,573.74,651.7,574.12,650.89Z" transform="translate(-453.49 -387.57)"/><path class="cls-8" d="M520.78,544.7l-2.3,2.49c-.13-.07-.31-.24-.39-.2-1.43.72-2.4.07-3.27-1-.4-.5-.92-.9-1.35-1.38s-.49-.86.29-1.13c1.21-.41,2.45-.77,3.69-1.07a1.63,1.63,0,0,1,1.75.52C519.71,543.52,520.43,543.94,520.78,544.7Z" transform="translate(-453.49 -387.57)"/><path class="cls-8" d="M514.71,548c-1.22.42-2.22.79-3.23,1.11a1.51,1.51,0,0,1-1.64-.33c-.75-.77-1.52-1.52-2.28-2.28-.42-.42-.34-.77.21-1,1-.35,1.93-.64,2.88-1a.84.84,0,0,1,1,.26A40.09,40.09,0,0,1,514.71,548Z" transform="translate(-453.49 -387.57)"/><path class="cls-8" d="M523.71,538.8l-.09.64c-1.19.28-2.39.51-3.56.85a1.86,1.86,0,0,1-2.15-.61,13.24,13.24,0,0,1-1.59-1.76c.25-.57.81-.53,1.23-.67a16.94,16.94,0,0,1,2-.47c.7-.14,1.42-.87,2.1-.35A4.7,4.7,0,0,1,523.71,538.8Z" transform="translate(-453.49 -387.57)"/><path class="cls-8" d="M513,553a26.13,26.13,0,0,1-2.5,3,31.35,31.35,0,0,0-3.33-3c-.2-.18-.45-.3-.45-.73a18.73,18.73,0,0,1,2.89-1.08c.47-.21.79.08,1.16.34C511.45,552.05,512,552.81,513,553Z" transform="translate(-453.49 -387.57)"/><path class="cls-11" d="M525.28,532a7.53,7.53,0,0,1-.45,1.93,1.82,1.82,0,0,0-.32,0c-2.63.66-2.63.66-4.34-1.66,1.18-.8,2.6-.81,3.89-1.2C524.67,530.93,524.75,531.86,525.28,532Z" transform="translate(-453.49 -387.57)"/><path class="cls-9" d="M516.56,549.15l-3.17,3.31a2.18,2.18,0,0,0-.71-1.21c-.69-.79-.69-.84.38-1.19A9.7,9.7,0,0,1,516.56,549.15Z" transform="translate(-453.49 -387.57)"/><path class="cls-27" d="M523,543c-.54,0-.79.47-1.19.69-.37-.72-1.17-1.09-1.56-1.94a8.65,8.65,0,0,1,3.08-.69A9.16,9.16,0,0,1,523,543Z" transform="translate(-453.49 -387.57)"/><path class="cls-11" d="M519.89,652.88a4.94,4.94,0,0,1-2.16-2.2c-.05-.34.19-.47.41-.62.62-.41,1.23-.86,1.88-1.24.92-.55,1.2-.49,1.93.33a4.91,4.91,0,0,1,.39.51c.8,1.14.8,1.14-.36,1.94-.49.33-1,.67-1.47,1A4,4,0,0,1,519.89,652.88Z" transform="translate(-453.49 -387.57)"/><path class="cls-11" d="M527.56,648.18c-.9.54-1.72,1-2.53,1.52a.78.78,0,0,1-1.11-.23c-1.69-1.88-1.7-1.87.45-3.22l.81-.5a.63.63,0,0,1,1,.23Z" transform="translate(-453.49 -387.57)"/><path class="cls-11" d="M516.41,663.14c.22-.16.38-.29.56-.41,1.22-.85,1.22-.85,2.25.16a4.78,4.78,0,0,1,.67.68c.32.45,1.34.84.45,1.5-1.22.92-1.37,1.14-2.29.21A7.92,7.92,0,0,1,516.41,663.14Z" transform="translate(-453.49 -387.57)"/><path class="cls-11" d="M524,642.62c.73,1.72.73,1.72-1,2.82-.22.14-.44.31-.67.43-.82.41-1,.32-1.54-.49s0-.94.46-1.23c.91-.53,1.65-1.37,2.77-1.53Z" transform="translate(-453.49 -387.57)"/><path class="cls-4" d="M519.14,576.61c1.39-.74,2.74,0,4.08.17,2.6.31,5.18.79,7.76,1.21,3.51.57,7.06.45,10.55,1,2,.29,4,.08,5.94.32a85.39,85.39,0,0,0,12.89.22c2.73-.07,5.46-.23,8.2-.27a.9.9,0,0,0,.72-.3,25.82,25.82,0,0,0,4.6-1.07,4.78,4.78,0,0,1,1.54-.25,1.44,1.44,0,0,1,.78,1c.28,1.3.57,2.6.78,3.92a2.63,2.63,0,0,1-1.24,2.89c-1.61.39-3.28.46-4.9.72-2.46.39-5-.11-7.36.55a.86.86,0,0,1-.32,0c-3.71-.15-7.39.49-11.1.36a53.36,53.36,0,0,1-6.06-.6,8.61,8.61,0,0,0-1.61-.06c-4.24.11-8.47-.31-12.7-.42a87,87,0,0,1-9.08-.92,18.26,18.26,0,0,1-3.47-1.26l-.91-.32c-.12-.24-.35-.46-.36-.7A10.87,10.87,0,0,1,519.14,576.61Z" transform="translate(-453.49 -387.57)"/><path class="cls-28" d="M517.48,586.31c0,.84.61,1.48.68,2.29a2,2,0,0,1-2.42-.67c-.47-.52-1-1-1.4-1.54s-.55-1,0-1.44a1.15,1.15,0,0,1,1.48,0,3.47,3.47,0,0,1,1,1A.93.93,0,0,0,517.48,586.31Z" transform="translate(-453.49 -387.57)"/><path class="cls-11" d="M549.43,532.85a5.24,5.24,0,0,1-.61.66,13,13,0,0,0-2,1.66,1,1,0,0,1-1.32.17c-.33-.17-.69-.28-1-.44-.84-.37-.85-.5-.12-1.16.51-.46,1-1,1.57-1.38a2.3,2.3,0,0,1,3.13-.08A.63.63,0,0,1,549.43,532.85Z" transform="translate(-453.49 -387.57)"/><path class="cls-11" d="M544.84,536.71c-.69,1.21-2,1.77-2.91,2.73-.22.23-.49.14-.74,0l-.73-.35c-1.37-.69-1.37-.69-.25-1.82l.12-.11C542.32,535.2,542.32,535.2,544.84,536.71Z" transform="translate(-453.49 -387.57)"/><path class="cls-11" d="M537.29,537.51l-.66-1c-.13-.43-.26-.86-.38-1.29.87-1.88,2.4-2.11,4-.62.33.32.14.58-.09.82A6.57,6.57,0,0,1,537.29,537.51Z" transform="translate(-453.49 -387.57)"/><path class="cls-29" d="M544.34,542.36a13.15,13.15,0,0,1-2.05,2.23c-.33.34-.7.63-1.16,1a7,7,0,0,1-1.26-2.6c.65-.06,1-.56,1.38-1a1.12,1.12,0,0,1,1.64-.29A3.32,3.32,0,0,0,544.34,542.36Z" transform="translate(-453.49 -387.57)"/><path class="cls-30" d="M548.25,538.14a20.42,20.42,0,0,1-2.92,3.24,7.11,7.11,0,0,1-1.84-1.1,14.1,14.1,0,0,1,2.45-2.49C546.75,537.12,547.52,537.75,548.25,538.14Z" transform="translate(-453.49 -387.57)"/><path class="cls-31" d="M539.22,541.72c-.31-.65-.63-1.3-1-2,.41.13.83.23,1.22.38s.81.17.85.62-.34.64-.66.83A1.36,1.36,0,0,1,539.22,541.72Z" transform="translate(-453.49 -387.57)"/><path class="cls-32" d="M556.32,541.35a1.34,1.34,0,0,1-1.16,1.32.93.93,0,0,1-1.08-.92,1.34,1.34,0,0,1,1.16-1.32A.93.93,0,0,1,556.32,541.35Z" transform="translate(-453.49 -387.57)"/><path class="cls-27" d="M522.76,544.26a.89.89,0,0,1,.19-.91A.83.83,0,0,1,522.76,544.26Z" transform="translate(-453.49 -387.57)"/><path class="cls-5" d="M608,468.58c3.86,2.38,6.22,5.62,6.23,10.36A23.15,23.15,0,0,1,612,489a28.28,28.28,0,0,1-5.93,8.54,26.76,26.76,0,0,1-7.45,5,4.6,4.6,0,0,1-2.17.53,2.72,2.72,0,0,0-2.64,1.45c-.55.27-.93-.08-1.29-.39a83.79,83.79,0,0,0-7.53-5.26c-9.78-6.46-19.77-12.61-29.37-19.35a152.2,152.2,0,0,0-27.5-14.82,3.39,3.39,0,0,0-3.49.31c-6.49,3.72-12.16,8.53-17.81,13.36a64.27,64.27,0,0,1-5.24,4.06c-.57.39-1.28,1.05-1.85-.08-.38-2.4,0-4.8-.14-7.2a3.24,3.24,0,0,1,0-.88c0-2.18,0-4.37,0-6.55a3.59,3.59,0,0,1,.18-1.72,1,1,0,0,0,.29-.73,67.64,67.64,0,0,1,1-7.64,1.19,1.19,0,0,1,1.12-.51c4.92-.14,9.85-.88,14.78,0,.45.08,1.05.34,1.34-.15s-.32-.91-.66-1.29c-3.85-3.47-8.55-5.46-13.23-7.46-.55-.23-1.32-.21-1.42-1.06l2.71-7.65c.19-.55.35-1.11.52-1.66.61-.72,1.46-.58,2.25-.59q6,0,12.1,0a34.49,34.49,0,0,0,5-.28c6.62-.14,13.23.16,19.85.24,8.23.08,16.45.57,24.68.79A93.25,93.25,0,0,1,581,439a5.23,5.23,0,0,0,2.39-.25,8.11,8.11,0,0,1,2.54-.38,2,2,0,0,1,2.14,1.57,29.92,29.92,0,0,1,1.12,8.92,18.91,18.91,0,0,0-.34,5,29.5,29.5,0,0,1-.52,6.43c-1.13,6.14-2,12.32-3.4,18.42a6.71,6.71,0,0,0-.25,2.23c.11.92.55,1.12,1.3.56a4,4,0,0,0,.7-.67c.75-.92,1.44-.86,2.28,0,1,1,1.47.92,1.84-.45,1.3-4.87,4.68-7.68,9.17-9.41,1.51-.59,3-1.24,4.51-1.77A6,6,0,0,1,608,468.58Z" transform="translate(-453.49 -387.57)"/><path class="cls-33" d="M528.2,464.46a33,33,0,0,1,5.6,2.43c2.69,1.35,5.45,2.56,8.16,3.88,5.3,2.58,10,6.07,14.94,9.24,1.86,1.19,3.63,2.51,5.48,3.71,4.33,2.81,8.73,5.52,13,8.39,4.47,3,8.93,6,13.51,8.83,1.72,1.07,3.28,2.42,4.91,3.64a1.35,1.35,0,0,1-.06,1.77,32.91,32.91,0,0,1-2.73,3.39,58.84,58.84,0,0,1-13.22,10.51c-2.38,1.48-4.7,3-7.16,4.39a76.39,76.39,0,0,1-10.72,4.83,32.08,32.08,0,0,1-9.49,1.67,80.57,80.57,0,0,1-9.83-.15,38.71,38.71,0,0,1-11.1-2.61,2.94,2.94,0,0,1-.91-1.31c-1.06-2.82-2.12-5.64-3.12-8.49-1.44-4.09-1.5-8.37-1.85-12.59-.52-6.12-1.35-12.2-2.19-18.28-.25-1.81-.29-3.65-.47-5.47a8.19,8.19,0,0,1,1.31-5.21A63.12,63.12,0,0,0,527.13,466C527.35,465.35,527.47,464.69,528.2,464.46Z" transform="translate(-453.49 -387.57)"/><path class="cls-34" d="M588.67,449.18c-.12-3.16-.16-6.32-1.18-9.38a1.18,1.18,0,0,0-1.34-1,6.26,6.26,0,0,0-2.69.42,4.11,4.11,0,0,1-3,.21,12.12,12.12,0,0,0-2.88-.27c-2.25-.07-4.48-.32-6.72-.57a12.32,12.32,0,0,0-1.61-.06c-4.78.13-9.55-.37-14.33-.46-2.57,0-5.15-.09-7.72-.2-7.2-.33-14.4-.32-21.6-.33a394.24,394.24,0,0,0-39.81-8.24c-.57-.08-1.2,0-1.63-.53a39.91,39.91,0,0,1,4-3.24c.31-.21.75-.41.67-.82s-.57-.38-.94-.44A135.16,135.16,0,0,1,468.66,420c-3.25-1-6.29-2.49-9.4-3.8a22.67,22.67,0,0,0-3.76-1.41,5.17,5.17,0,0,1-1.35-.52,1.06,1.06,0,0,1-.2-1.85,3,3,0,0,1,.95-.58,96,96,0,0,1,16.77-5c2.46-.5,4.85-1.34,7.34-1.74,1.64-.26,3.26-.59,5-.91a8.43,8.43,0,0,0-2.15-2.33c-2.88-2.56-5.92-5-8.33-8-1-1.3-2.21-2.48-3.33-3.71-.18-.2-.39-.38-.56-.58a1.25,1.25,0,0,1-.17-1.5c.27-.45.73-.48,1.28-.38,1.74.31,3.5.48,5.23.8,2.1.4,4.26.43,6.34,1,.31.08.6.21.9.32,3.19,1.92,6,4.35,9.08,6.45a192.35,192.35,0,0,0,21,12.74A126.24,126.24,0,0,0,527.88,415c6.27,2.29,12.28,5.22,18.58,7.47A182,182,0,0,0,585.62,432c3,.37,6,.47,9,.82a5.4,5.4,0,0,1,3.28,1.57,18.47,18.47,0,0,0,2.1,1.76c1.23.9,2.06,1.83,1.85,3.6s1.92,3.08,3.68,2.26a2.41,2.41,0,0,1,2.79.33c2.12,1.57,4.36,3,6.6,4.36.63.39,1.37.69,1.57,1.53-1.34,2-3.08,3.78-4.2,6-.31.61-.66,1.19-1,1.78a29.81,29.81,0,0,0-8.94.39,8.71,8.71,0,0,1-4.9-.61,40.4,40.4,0,0,1-6.16-3.11A5.36,5.36,0,0,1,588.67,449.18Z" transform="translate(-453.49 -387.57)"/><path class="cls-35" d="M616.49,448.23c-3.08-2.05-6.32-3.86-9.24-6.16a.68.68,0,0,0-1,.06c-1.23,1-2.45.77-3.68,0a2.56,2.56,0,0,1-1.12-3.22,1.12,1.12,0,0,0-.46-1.4,36.38,36.38,0,0,1-3.83-3.19c-1.17-1.11-2.74-1.17-4.22-1.23-3.21-.13-6.39-.55-9.58-.93a159.77,159.77,0,0,1-21.24-4.28,169,169,0,0,1-18.39-5.93c-4.47-1.71-8.88-3.56-13.25-5.49-3-1.29-6.08-2.13-9.06-3.38a117.35,117.35,0,0,1-13.75-6.73c-4.23-2.45-8.42-5-12.47-7.69-3.69-2.49-7.35-5-10.87-7.75a3.73,3.73,0,0,1-1.1-1.17,45.85,45.85,0,0,1,7.9,1.39c6.15,1.44,12.33,2.77,18.49,4.16,4.29,1,8.52,2.16,12.78,3.23q8.34,2.08,16.7,4.14c3.18.77,6.29,1.79,9.41,2.77,2.77.87,5.63,1.35,8.42,2.08,4.88,1.29,9.74,2.58,14.55,4.13,7.2,2.33,14.46,4.48,21.69,6.69.66.2,1.35.27,2.19.43a16.53,16.53,0,0,0-3.25-7.64,8,8,0,0,1-1-1.44,1,1,0,0,1,.83-1.5,4.28,4.28,0,0,1,1.13,0c4.56.71,8.58,2.41,11.22,6.44a11.85,11.85,0,0,1,1.4,3.07c.27.92.74,1,1.52.84a19.62,19.62,0,0,1,5.77-.31c3.59.21,7.15.6,10.4,2.41a11.94,11.94,0,0,1,2.65,2.08,1.21,1.21,0,0,1,.37,1.45c-.26.53-.78.52-1.27.5-3.86-.18-7.51,1-11.26,1.63a8.34,8.34,0,0,0-1.08.32.38.38,0,0,0-.33.39c.65.77,1.69,1.17,2.4,2,1.21,1.37,1.25,2,0,3.3a4.3,4.3,0,0,0-1.23,1.51c1.09.47,2.11.92,3.14,1.35a20.4,20.4,0,0,1,7.36,5.08,6.09,6.09,0,0,1,.54.6c.45.72.23,1.41-.61,1.59a7.89,7.89,0,0,0-3.13,1.88C619.36,445.49,618,447,616.49,448.23Z" transform="translate(-453.49 -387.57)"/><path class="cls-36" d="M528.2,464.46a9.11,9.11,0,0,0-.8,2.41c-1.2,3-2.49,5.94-3.77,8.9a6.17,6.17,0,0,1-1,1.65c-1.54,1.73-1.44,3.83-1.13,5.82.28,1.81.19,3.63.49,5.44s.63,3.79.86,5.71c.31,2.49.68,5,.84,7.49.11,1.7.37,3.4.54,5.1.14,1.44.33,2.9.35,4.32,0,3.53,1.23,6.73,2.32,10,.81,2.38,1.73,4.73,2.6,7.1a36.82,36.82,0,0,1-12.18-6.76,45.6,45.6,0,0,1-10.15-12,73.33,73.33,0,0,1-5.07-11.13,25.93,25.93,0,0,1-1.43-6.27,5,5,0,0,1-.79-2.89c-.17-1.33-.43-2.64-.55-4-.08-.9-.18-1.85.75-2.46a27.84,27.84,0,0,0,4.72-3.35c3.75-2.89,7.17-6.19,11-9,2.85-2.13,5.86-4,8.86-5.93A3,3,0,0,1,528.2,464.46Z" transform="translate(-453.49 -387.57)"/><path class="cls-37" d="M588.67,449.18c2.58,4,6.75,5.45,11,6.7,1.7.5,3.49,0,5.24-.36a14.05,14.05,0,0,1,5.74.08,1,1,0,0,1,.68.38,26.21,26.21,0,0,0-3.25,12.6c-1.45.57-3,.65-4.45,1.34-2,1-4.18,1.42-6.1,2.53a17,17,0,0,0-5.56,5.51,8.77,8.77,0,0,0-.65,2.15c-.13.41-.18.85-.34,1.24-.41,1-1.2,1.15-2,.32-.42-.44-.54-1.4-1.29-1.24-.46.1-.8.8-1.21,1.22-.14.16-.3.3-.46.45a1.14,1.14,0,0,1-1.33.29c-.45-.21-.51-.64-.55-1.09a10.74,10.74,0,0,1,.39-3.19c.66-3.53,1.42-7,2.06-10.58s1.23-7,1.68-10.47a41.14,41.14,0,0,0,.1-5.33A8.77,8.77,0,0,1,588.67,449.18Z" transform="translate(-453.49 -387.57)"/><path class="cls-37" d="M484.2,428.79a78.52,78.52,0,0,1,12.2,1.78q8.49,1.68,17,3.45a106.77,106.77,0,0,1,11,2.87,2.42,2.42,0,0,1,1.26.67c-5.62.64-11.26.14-16.88.34-.86,0-1.72,0-2.58.05-3.12,0-6.25-.18-9.36,0a97.69,97.69,0,0,0-14.06,1.45,35.94,35.94,0,0,1-6.87.74,5.32,5.32,0,0,1-1.13,0c-.76-.13-1-.56-.71-1.27a4.65,4.65,0,0,1,1.27-1.84,109.58,109.58,0,0,0,8.49-7.92A2.76,2.76,0,0,1,484.2,428.79Z" transform="translate(-453.49 -387.57)"/><path class="cls-38" d="M500.08,482.89c-.73,1.8-.05,3.57.13,5.36.13,1.32.31,2.64.47,4a11.77,11.77,0,0,1-8.81-4.68,21,21,0,0,1-4.4-14,11.48,11.48,0,0,1,3.9-7.89c1.58-1.55,4.81-1.63,7-.45.47.26.9.59,1.35.88a2.79,2.79,0,0,1,.32,1.53c0,2.28,0,4.56,0,6.83-.83,0-.93-.78-1.3-1.26a3.81,3.81,0,0,0-5.18-.87c-.32.21-.67.43-.57.88s.47.39.79.39c1.1,0,.88.65.63,1.3a5,5,0,0,0-.2,3.31c.15.52.39,1.17,1,1s.34-.82.21-1.23a3.25,3.25,0,0,1,.42-2.92c.87-1.32,1.74-1.3,2.52.05a5.21,5.21,0,0,0,.65,1.16c.6-.15.17-1.21,1-1.16Z" transform="translate(-453.49 -387.57)"/><path class="cls-34" d="M503,447.26c2.34,1.05,4.73,2,7,3.12a49.41,49.41,0,0,1,6.61,3.93,8.93,8.93,0,0,1,1,1c-1.09.82-2.25.46-3.39.19-1.66-.38-3.28-.95-5-1.3-3.84-.81-7.43.27-11.06,1.21a6.8,6.8,0,0,1-2.95.59c0-.64.39-1.23.29-1.89-.38-2.49.81-4.56,1.85-6.66.59-1.21,1.18-1.42,2.49-1.08A15.58,15.58,0,0,0,503,447.26Z" transform="translate(-453.49 -387.57)"/><path class="cls-37" d="M495.25,456a28.14,28.14,0,0,1,5.95-1.86,18.42,18.42,0,0,1,10.9.27,12.63,12.63,0,0,0,5.5.9,3.63,3.63,0,0,1,.71.36c.79.67,1.11,1.47.72,1.93s-1.17.3-1.8.18a25.46,25.46,0,0,0-4.62-.55c-3.87-.07-7.72.37-11.59.44a25.07,25.07,0,0,1-3.64.58c-1.53.06-1.54,0-1.94-1.47C495.37,456.54,495.31,456.28,495.25,456Z" transform="translate(-453.49 -387.57)"/><path class="cls-34" d="M546.26,455.32a2.67,2.67,0,0,1,.59-.53,77.55,77.55,0,0,1,8.13-3.88,100.68,100.68,0,0,1,14.11-4.4c1.83-.39,3.66-.78,5.49-1.15a5.16,5.16,0,0,1,1-.06c1.34,0,1.7.37,1.8,1.68a13.3,13.3,0,0,1-.47,3.82c-.25,1.2-.56,2.39-.85,3.59-2.17.94-4.43.51-6.65.32A84.77,84.77,0,0,0,559,454a53,53,0,0,0-10.69,1.4C547.61,455.53,546.91,455.84,546.26,455.32Z" transform="translate(-453.49 -387.57)"/><path class="cls-37" d="M546.26,455.32a45.24,45.24,0,0,1,7.85-1.48c2.87-.16,5.72-.81,8.64-.19,1.49.32,3.08.09,4.63.37,2.86.54,5.76.31,8.65.37a6.12,6.12,0,0,1,0,1c-.32,1.49-.69,1.73-2.25,1.58a48.53,48.53,0,0,0-7.53.12,60.12,60.12,0,0,0-10.15,1.54c-3,.68-6,1.57-9.09,2.09-3.28.55-6.56,1.06-9.8,1.75-.09,0-.2-.05-.54-.17C539.58,459.43,542.51,456.83,546.26,455.32Z" transform="translate(-453.49 -387.57)"/><path class="cls-38" d="M608.43,483.22c0,4.92-2.56,8-6.81,10.14-2.57,1.26-7.2-.63-7.7-3.7a10.54,10.54,0,0,1,.31-4.29,7.49,7.49,0,0,0,2.08-2.19,10.14,10.14,0,0,1,3.37-3.18c1.71-1.08,2.64-.65,3.13,1.34a6.18,6.18,0,0,1-.31,3.16c-.11.42-.53,1,.19,1.22s.77-.47,1-.9A7.45,7.45,0,0,0,604,481c0-.51-.33-1.15.32-1.43s1,.16,1.48.46a2.58,2.58,0,0,1,1,1.27A3.56,3.56,0,0,0,608.43,483.22Z" transform="translate(-453.49 -387.57)"/><path class="cls-39" d="M608.43,483.22c-.95.4-1.39-.09-1.67-.92-.4-1.21-.94-2.31-2.53-2.5a11.65,11.65,0,0,1,.3,3.2,6.13,6.13,0,0,1-.74,2.62c-.37.74-1,1-1.56.71s-.61-.89-.34-1.49a5.35,5.35,0,0,0,.36-4.06c-.37-1.09-.77-1.3-1.77-.77a11,11,0,0,0-4.45,4.31,1.66,1.66,0,0,1-1.8,1.05,1.64,1.64,0,0,1-.05-2.08A13.62,13.62,0,0,1,599.7,478c2.88-1.51,7-.87,8.63,2.47A2.52,2.52,0,0,1,608.43,483.22Z" transform="translate(-453.49 -387.57)"/><path class="cls-40" d="M561,465.68h6.13c.32,0,.64,0,1,0,.91.09,1.46.57,1.37,1.24a1.23,1.23,0,0,1-1.36,1.1H554.58c-1.41,0-2.09-.45-2-1.27s.67-1.1,2-1.11c2.15,0,4.3,0,6.45,0Z" transform="translate(-453.49 -387.57)"/><path class="cls-41" d="M500,475.07c-.42.46-.21,1-.27,1.55,0,.21,0,.44-.26.53a.56.56,0,0,1-.68-.3c-.3-.55-.53-1.16-.82-1.73-.58-1.12-.9-1.12-1.67-.09a2.88,2.88,0,0,0-.41,3c.42,1,.27,1.6-.3,1.79s-1.39-.33-1.72-1.12a5.65,5.65,0,0,1,.43-4.66c-.29-.38-.55,0-.83,0-.53,0-1-.07-1.14-.64a1.06,1.06,0,0,1,.46-1.27c2.21-1.39,4.72-1.49,6.37.89.31.43.57.9.85,1.35C500,474.64,500,474.86,500,475.07Z" transform="translate(-453.49 -387.57)"/><path class="cls-42" d="M510.27,461.83h4.36a3.3,3.3,0,0,1,1.42.21,1.1,1.1,0,0,1,.77,1.11,1.15,1.15,0,0,1-.85,1.06,2.66,2.66,0,0,1-1.12.09l-8.87-.48c-.27,0-.54,0-.8-.06-.72-.09-1.22-.44-1.23-1.23s.46-1.1,1.32-1.1c1.4,0,2.8.08,4.19.14.27,0,.54.05.81.08Z" transform="translate(-453.49 -387.57)"/></svg>